<svg xmlns="http://www.w3.org/2000/svg" width="138.973" height="160.163" viewBox="0 0 36.77 42.376"><defs><path id="e" d="M408.189 472.441h7.559v26.457h-7.559z"/></defs><title>SVG Image created as ice40lp8k_development_board-F_Fab.svg date 2025/06/09 18:22:01 </title><desc>Image generated by PCBNEW</desc><text xml:space="preserve" x="-29.44" y="-85.195" style="font-style:normal;font-variant:normal;font-weight:400;font-stretch:normal;font-size:1.5875px;font-family:Nunito;-inkscape-font-specification:Nunito;text-align:start;writing-mode:lr-tb;direction:ltr;text-anchor:start;fill:#fff;stroke:#fff;stroke-width:0;stroke-linecap:round;stroke-linejoin:round"/><path d="M.71 20.64q-.174 0-.308-.046-.13-.045-.221-.133-.09-.09-.136-.224Q0 20.104 0 19.927v-.854q0-.079.038-.117.04-.038.114-.038t.112.038q.04.038.04.117v.852q0 .226.103.34.105.113.303.113.197 0 .3-.112.102-.115.102-.34v-.853q0-.079.038-.117.04-.038.114-.038.072 0 .11.038.04.038.04.117v.855q0 .233-.08.393t-.236.24q-.157.079-.388.079zm1.638 0q-.105 0-.21-.017-.104-.014-.197-.045-.093-.034-.167-.081-.043-.029-.06-.07-.016-.04-.011-.078.007-.04.03-.069.027-.03.065-.038.038-.007.083.021.105.062.222.09.116.03.245.03.188 0 .274-.062.085-.065.085-.165 0-.083-.061-.13-.06-.048-.208-.08l-.262-.054q-.226-.048-.338-.16-.11-.114-.11-.3 0-.116.048-.212t.134-.164q.088-.069.207-.105.121-.038.267-.038.143 0 .271.036t.231.105q.038.026.05.064.014.038.007.076-.007.036-.033.062t-.067.031q-.038.005-.088-.024-.088-.05-.178-.071-.091-.022-.196-.022-.11 0-.188.031t-.121.088q-.04.055-.04.131 0 .086.056.139.058.05.196.078l.26.055q.235.05.35.157.116.107.116.286 0 .114-.048.207-.045.093-.133.16-.086.066-.207.102-.122.036-.274.036zm1.076-.005q-.074 0-.114-.04-.038-.044-.038-.117v-1.386q0-.076.04-.115t.115-.04H4q.276 0 .426.133.15.131.15.37 0 .154-.07.266-.066.112-.195.172-.128.06-.311.06l.02-.037h.08q.097 0 .169.048t.128.15l.179.331q.028.05.026.098-.002.047-.036.078-.033.029-.097.029-.065 0-.105-.026-.04-.029-.072-.086l-.24-.443q-.043-.08-.103-.107-.057-.029-.147-.029h-.226v.534q0 .073-.038.116-.039.04-.115.04zm.153-.917h.371q.164 0 .248-.067.085-.069.085-.204t-.085-.2q-.084-.07-.248-.07h-.371z" aria-label="USR" style="font-weight:700;font-size:2.38125px;font-family:Nunito;-inkscape-font-specification:&quot;Nunito Bold&quot;;fill:#333;stroke:#333;stroke-width:0;stroke-linejoin:round"/><path d="M5.57 1.703q-.08 0-.122-.04-.04-.044-.04-.122V.186q0-.079.04-.12.043-.042.121-.042h.462q.422 0 .65.217.231.216.231.621 0 .202-.06.36-.057.154-.17.262-.113.107-.277.164-.162.055-.374.055zm.142-.253h.3q.148 0 .255-.036.11-.038.18-.11.075-.073.11-.182.036-.112.036-.26 0-.295-.145-.44T6.012.275h-.3Zm1.698.253q-.062 0-.098-.034-.033-.035-.033-.095 0-.062.033-.093.036-.03.098-.03h.267V.28h.147l-.35.212q-.045.026-.086.021Q7.35.507 7.322.481 7.296.452 7.286.414t.005-.076q.016-.04.062-.067L7.68.074q.048-.029.096-.048.047-.021.088-.021.05 0 .083.028.033.027.033.088v1.33h.243q.062 0 .095.03.036.031.036.093t-.036.095q-.033.034-.095.034zm1.833.023q-.207 0-.354-.097-.146-.1-.222-.286t-.076-.45q0-.214.048-.379.05-.166.142-.28.093-.115.227-.174.135-.06.304-.06.105 0 .212.033.11.031.205.096.038.023.05.061.012.039.003.077-.008.035-.034.064-.024.026-.062.033-.038.005-.083-.021-.081-.048-.152-.067-.072-.019-.143-.019-.138 0-.234.064-.095.065-.145.193-.048.129-.048.322v.178h-.028q.019-.121.078-.207.062-.088.158-.133.095-.048.212-.048.145 0 .257.07.112.068.176.19.064.121.064.278 0 .162-.071.29t-.195.201-.289.071zm-.016-.242q.085 0 .15-.039.066-.038.102-.107.036-.071.036-.162 0-.093-.036-.162T9.377.907q-.065-.04-.15-.04-.086 0-.15.04-.065.038-.103.107-.035.07-.035.162 0 .09.035.162.038.07.103.107.064.039.15.039z" aria-label="D16" style="font-weight:700;font-size:2.38125px;font-family:Nunito;-inkscape-font-specification:&quot;Nunito Bold&quot;;fill:#333;stroke:#333;stroke-width:0;stroke-linejoin:round"/><g style="stroke:#333;stroke-opacity:1"><g style="stroke:#333;stroke-opacity:1"><path d="M124.8 163.1h-2.6M123.5 163.1v1M123.5 160v1M122.2 161l1.3 2.1 1.3-2.1z" style="fill:none;stroke:#333;stroke-width:.3;stroke-linecap:round;stroke-linejoin:round;stroke-dasharray:none;stroke-opacity:1" transform="translate(-115.897 -142.274)"/></g><g style="stroke:#333;stroke-opacity:1"><path d="M131.5 162h1M132.2 161.7l.3.3M132.5 162l-.3.3" style="fill:none;stroke:#333;stroke-width:.3;stroke-linecap:round;stroke-linejoin:round;stroke-dasharray:none;stroke-opacity:1" transform="rotate(29.29 342.044 -143.82)"/></g><g style="stroke:#333;stroke-opacity:1"><path d="M131.5 162h1M132.2 161.7l.3.3M132.5 162l-.3.3" style="fill:none;stroke:#333;stroke-width:.3;stroke-linecap:round;stroke-linejoin:round;stroke-dasharray:none;stroke-opacity:1" transform="rotate(29.29 343.884 -143.246)"/></g></g><g style="stroke:#333;stroke-opacity:1"><path d="M117.5 159v1l-1 .4 2 .7-2 .8 2 .8-2 .8 2 .8-1 .4v1" style="fill:none;stroke:#333;stroke-width:.3;stroke-linecap:round;stroke-linejoin:round;stroke-dasharray:none;stroke-opacity:1" transform="translate(-109.897 -149.974)"/></g><path d="M7.603 15.726v2M7.603 21.826v2M7.603 25.826h20.5M7.603 25.826v-2M28.103 25.826v-2M17.853 27.826v-2M7.603 7.026v2M7.603 5.026v2" style="fill:none;stroke:#333;stroke-width:.3;stroke-linecap:round;stroke-linejoin:round;stroke-dasharray:none;stroke-opacity:1"/><g style="stroke:#333;stroke-opacity:1"><path d="M68.5 92.8v1" style="fill:none;stroke:#333;stroke-width:.3;stroke-linecap:round;stroke-linejoin:round;stroke-dasharray:none;stroke-opacity:1" transform="rotate(180 38.051 48.913)"/><path d="M95-68.5a.6.6 0 0 1-.6.6.6.6 0 0 1-.6-.6.6.6 0 0 1 .6-.6.6.6 0 0 1 .6.6z" style="fill:none;stroke-width:.3;stroke-linejoin:round" transform="rotate(-90 86.965 10.862)"/></g><path d="M10.186 13.24q-.129 0-.267-.034-.138-.033-.24-.1-.048-.03-.065-.071-.016-.04-.01-.076.01-.038.037-.065.028-.026.069-.03.043-.005.093.02.097.053.188.077.09.021.185.021.105 0 .177-.028.071-.029.107-.086.038-.057.038-.138 0-.12-.081-.176-.079-.06-.231-.06h-.152q-.067 0-.103-.033-.033-.033-.033-.093t.033-.093q.036-.033.103-.033h.123q.09 0 .155-.029.064-.03.1-.085t.036-.134q0-.11-.074-.167-.071-.057-.21-.057-.088 0-.166.022-.076.019-.17.074-.042.026-.083.021-.038-.005-.064-.03-.026-.027-.036-.063-.01-.038.005-.076.014-.04.06-.07.102-.066.226-.1.124-.035.255-.035.174 0 .297.055.124.052.188.152.067.098.067.238 0 .1-.038.184-.038.08-.107.138-.07.057-.167.08v-.028q.172.029.267.143.095.112.095.281 0 .148-.074.257t-.21.17q-.135.057-.323.057zm1.429 0q-.129 0-.267-.034-.138-.033-.24-.1-.048-.03-.065-.071-.016-.04-.01-.076.01-.038.036-.065.029-.026.07-.03.042-.005.092.02.098.053.188.077.09.021.186.021.105 0 .176-.028.072-.029.108-.086.038-.057.038-.138 0-.12-.081-.176-.079-.06-.231-.06h-.153q-.066 0-.102-.033-.033-.033-.033-.093t.033-.093q.036-.033.102-.033h.124q.09 0 .155-.029.064-.03.1-.085t.036-.134q0-.11-.074-.167-.072-.057-.21-.057-.088 0-.166.022-.077.019-.17.074-.042.026-.083.021-.038-.005-.064-.03-.026-.027-.036-.063-.01-.038.005-.076.014-.04.06-.07.102-.066.226-.1.124-.035.255-.035.173 0 .297.055.124.052.188.152.067.098.067.238 0 .1-.038.184-.038.08-.107.138-.07.057-.167.08v-.028q.171.029.267.143.095.112.095.281 0 .148-.074.257t-.21.17q-.135.057-.323.057zm1.462 0q-.298 0-.455-.224-.157-.226-.157-.643 0-.281.069-.472.071-.193.207-.29.138-.098.336-.098.3 0 .455.22.157.218.157.637 0 .28-.072.474-.069.193-.204.296-.136.1-.336.1zm0-.25q.162 0 .238-.15.078-.15.078-.47t-.078-.462q-.076-.145-.238-.145-.16 0-.238.145-.079.143-.079.462t.079.47.238.15zm1.557.226q-.062 0-.095-.034-.033-.033-.033-.092 0-.062.033-.093.033-.034.095-.034h.453v.081q-.281-.14-.408-.338-.123-.197-.123-.45 0-.23.107-.398.107-.166.295-.254.188-.09.431-.09.183 0 .333.052.153.05.265.147.112.095.171.234.062.135.062.31 0 .168-.055.313-.052.143-.169.262t-.305.212v-.08h.453q.062 0 .093.033.033.03.033.093 0 .06-.033.092-.031.034-.093.034h-.5q-.045 0-.076-.02-.031-.018-.048-.05-.017-.033-.017-.07 0-.034.007-.058.01-.026.029-.05t.048-.048q.11-.09.178-.188.07-.1.103-.21t.033-.225q0-.167-.062-.284t-.176-.176q-.115-.062-.274-.062-.157 0-.274.062-.114.06-.179.176-.061.117-.061.284 0 .112.033.221.033.11.102.212.072.102.181.19.048.039.067.072t.019.083q0 .057-.038.1-.038.04-.105.04z" aria-label="330 Ω" style="font-weight:700;font-size:2.38125px;font-family:Nunito;-inkscape-font-specification:&quot;Nunito Bold&quot;;fill:#333;stroke:#333;stroke-width:0;stroke-linejoin:round"/><path d="M19.453 40.826h-3.2M19.053 41.526h-2.4M18.353 42.226h-1M17.853 39.826v1M17.853 29.826v-2M17.853 39.826v-2" style="fill:#333;stroke:#333;stroke-width:.3;stroke-linecap:round;stroke-linejoin:round;stroke-dasharray:none;stroke-opacity:1"/><g style="stroke:#333;stroke-opacity:1"><g style="stroke:#333;stroke-opacity:1"><g style="stroke:#333;stroke-opacity:1"><path d="M68.5 92.8v1" style="fill:none;stroke:#333;stroke-width:.3;stroke-linecap:round;stroke-linejoin:round;stroke-dasharray:none;stroke-opacity:1" transform="matrix(-1 0 0 1 86.353 -62.974)"/><path d="M95-68.5a.6.6 0 0 1-.6.6.6.6 0 0 1-.6-.6.6.6 0 0 1 .6-.6.6.6 0 0 1 .6.6z" style="fill:none;stroke-width:.3;stroke-linejoin:round" transform="matrix(0 1 1 0 86.353 -62.974)"/></g><g style="stroke:#333;stroke-opacity:1"><path d="M68.5 92.8v1" style="fill:none;stroke:#333;stroke-width:.3;stroke-linecap:round;stroke-linejoin:round;stroke-dasharray:none;stroke-opacity:1" transform="matrix(1 0 0 -1 -50.647 130.626)"/><path d="M95-68.5a.6.6 0 0 1-.6.6.6.6 0 0 1-.6-.6.6.6 0 0 1 .6-.6.6.6 0 0 1 .6.6z" style="fill:none;stroke-width:.3;stroke-linejoin:round" transform="matrix(0 -1 -1 0 -50.647 130.626)"/></g></g><path d="M70.6 94.95c1.3-.75 2.5-.75 3.8 0" style="fill:none;stroke:#333;stroke-width:.3;stroke-linecap:round;stroke-linejoin:round;stroke-dasharray:none;stroke-opacity:1" transform="matrix(0 1 1 0 -78.647 -38.674)"/></g><path d="M19.496 34.682q-.067.003-.105-.035t-.038-.098q0-.045.028-.078.027-.036.079-.039l.071-.004q.105-.007.158-.065.054-.06.054-.169v-1.071q0-.076.038-.115.04-.04.115-.04.074 0 .112.04.04.039.04.115v1.069q0 .15-.055.255-.052.104-.157.164-.105.057-.26.067zm1.717.003q-.072 0-.112-.038-.04-.04-.04-.115v-.185h-.59q-.073 0-.118-.031-.043-.031-.043-.098 0-.038.02-.083t.073-.12l.652-.945q.034-.05.074-.076t.093-.026q.062 0 .102.038.04.036.04.114v.974h.118q.069 0 .102.034.036.03.036.093 0 .061-.036.095-.033.03-.102.03h-.117v.186q0 .074-.04.115-.041.038-.112.038zm-.153-.59v-.744h.07l-.563.824v-.08z" aria-label="J4" style="font-weight:700;font-size:2.38125px;font-family:Nunito;-inkscape-font-specification:&quot;Nunito Bold&quot;;fill:#333;stroke:#333;stroke-width:0;stroke-linejoin:round"/><path d="M19.72 20.635q-.073 0-.113-.04-.038-.043-.038-.117v-1.386q0-.076.04-.115t.114-.04h.574q.276 0 .426.138t.15.386-.15.388q-.15.138-.426.138h-.424v.49q0 .075-.038.117-.038.04-.114.04zm.153-.888h.377q.161 0 .245-.072.083-.074.083-.214t-.083-.212-.245-.071h-.377zm1.839.888q-.065 0-.105-.031-.038-.031-.062-.098l-.498-1.407q-.026-.076.01-.129.038-.052.126-.052.064 0 .1.03t.057.094l.429 1.271h-.095l.447-1.269q.024-.064.06-.095t.093-.031.09.03q.033.032.057.099l.434 1.266h-.084l.436-1.271q.022-.062.057-.093t.098-.031q.076 0 .112.052.035.053.01.129l-.503 1.41q-.024.064-.062.095-.038.03-.102.03-.065 0-.103-.03-.038-.031-.062-.098l-.414-1.18h.055l-.42 1.183q-.023.064-.061.095-.036.03-.1.03zm2.212 0q-.074 0-.114-.04-.039-.043-.039-.117v-1.386q0-.076.04-.115.041-.04.115-.04h.574q.276 0 .426.133.15.131.15.37 0 .154-.069.266-.066.112-.195.172t-.312.06l.022-.037h.078q.098 0 .17.048t.128.15l.178.331q.029.05.027.098-.003.047-.036.078-.034.029-.098.029t-.105-.026q-.04-.029-.071-.086l-.24-.443q-.043-.08-.103-.107-.057-.029-.148-.029h-.226v.534q0 .073-.038.116-.038.04-.114.04zm.152-.917h.372q.164 0 .247-.067.086-.069.086-.204t-.086-.2q-.083-.07-.247-.07h-.372z" aria-label="PWR" style="font-weight:700;font-size:2.38125px;font-family:Nunito;-inkscape-font-specification:&quot;Nunito Bold&quot;;fill:#333;stroke:#333;stroke-width:0;stroke-linejoin:round"/><path d="M26.527 1.726q-.128 0-.266-.033t-.24-.1q-.048-.03-.065-.071t-.01-.077q.01-.038.036-.064.029-.026.07-.03.042-.006.092.02.098.053.188.077.09.021.186.021.105 0 .176-.028.072-.029.107-.086.038-.057.038-.138 0-.12-.08-.176-.08-.06-.232-.06h-.152q-.067 0-.102-.033-.034-.034-.034-.093 0-.06.034-.093.035-.033.102-.033h.124q.09 0 .155-.029.064-.03.1-.086.035-.054.035-.133 0-.11-.073-.167-.072-.057-.21-.057-.088 0-.167.022-.076.019-.169.073-.043.027-.083.022-.038-.005-.064-.031T25.987.28q-.01-.038.005-.076.014-.04.06-.07.102-.066.225-.1.124-.035.255-.035.174 0 .298.055.124.052.188.152.067.098.067.238 0 .1-.038.184-.038.08-.108.138-.069.057-.166.08V.82q.171.029.266.143.096.112.096.281 0 .148-.074.257t-.21.17q-.135.056-.323.056zm1.598-.004q-.064 0-.107-.029-.04-.03-.067-.09L27.33.207q-.026-.06-.014-.105t.05-.071.09-.026q.07 0 .103.03.035.03.059.089l.564 1.307h-.102l.562-1.31q.026-.057.062-.085.036-.031.1-.031.052 0 .086.026.035.026.045.071.01.046-.017.105l-.621 1.396q-.026.06-.067.09-.038.029-.105.029zm1.529.004q-.129 0-.267-.033t-.24-.1q-.048-.03-.064-.071-.017-.04-.01-.077.01-.038.036-.064.028-.026.069-.03.043-.006.093.02.097.053.188.077.09.021.186.021.104 0 .176-.028.071-.029.107-.086.038-.057.038-.138 0-.12-.081-.176-.079-.06-.231-.06h-.152q-.067 0-.103-.033-.033-.034-.033-.093 0-.06.033-.093.036-.033.103-.033h.123q.091 0 .155-.029.065-.03.1-.086.036-.054.036-.133 0-.11-.074-.167-.071-.057-.21-.057-.088 0-.166.022-.076.019-.17.073-.042.027-.082.022-.039-.005-.065-.031T29.114.28q-.01-.038.004-.076.015-.04.06-.07.102-.066.226-.1Q29.528 0 29.66 0q.174 0 .298.055.123.052.188.152.066.098.066.238 0 .1-.038.184-.038.08-.107.138-.069.057-.167.08V.82q.172.029.267.143.095.112.095.281 0 .148-.074.257-.073.11-.21.17-.135.056-.323.056z" aria-label="3V3" style="font-weight:700;font-size:2.38125px;font-family:Nunito;-inkscape-font-specification:&quot;Nunito Bold&quot;;fill:#333;stroke:#333;stroke-width:0;stroke-linejoin:round"/><g style="stroke:#333;stroke-opacity:1"><g style="stroke:#333;stroke-opacity:1"><path d="M124.8 163.1h-2.6M123.5 163.1v1M123.5 160v1M122.2 161l1.3 2.1 1.3-2.1z" style="fill:none;stroke:#333;stroke-width:.3;stroke-linecap:round;stroke-linejoin:round;stroke-dasharray:none;stroke-opacity:1" transform="translate(-95.397 -142.274)"/></g><g style="stroke:#333;stroke-opacity:1"><path d="M131.5 162h1M132.2 161.7l.3.3M132.5 162l-.3.3" style="fill:none;stroke:#333;stroke-width:.3;stroke-linecap:round;stroke-linejoin:round;stroke-dasharray:none;stroke-opacity:1" transform="rotate(29.29 352.294 -104.594)"/></g><g style="stroke:#333;stroke-opacity:1"><path d="M131.5 162h1M132.2 161.7l.3.3M132.5 162l-.3.3" style="fill:none;stroke:#333;stroke-width:.3;stroke-linecap:round;stroke-linejoin:round;stroke-dasharray:none;stroke-opacity:1" transform="rotate(29.29 354.134 -104.021)"/></g></g><g style="stroke:#333;stroke-opacity:1"><path d="M117.5 159v1l-1 .4 2 .7-2 .8 2 .8-2 .8 2 .8-1 .4v1" style="fill:none;stroke:#333;stroke-width:.3;stroke-linecap:round;stroke-linejoin:round;stroke-dasharray:none;stroke-opacity:1" transform="translate(-89.397 -149.974)"/></g><path d="M28.103 15.726v2M28.103 21.826v2M28.103 7.026v2M28.103 5.026v2" style="fill:none;stroke:#333;stroke-width:.3;stroke-linecap:round;stroke-linejoin:round;stroke-dasharray:none;stroke-opacity:1"/><g style="stroke:#333;stroke-opacity:1"><path d="M68.5 92.8v1" style="fill:none;stroke:#333;stroke-width:.3;stroke-linecap:round;stroke-linejoin:round;stroke-dasharray:none;stroke-opacity:1" transform="rotate(180 48.301 48.913)"/><path d="M95-68.5a.6.6 0 0 1-.6.6.6.6 0 0 1-.6-.6.6.6 0 0 1 .6-.6.6.6 0 0 1 .6.6z" style="fill:none;stroke-width:.3;stroke-linejoin:round" transform="rotate(-90 97.215 .612)"/></g><path d="M30.686 13.24q-.129 0-.267-.034-.138-.033-.24-.1-.048-.03-.065-.071-.016-.04-.01-.076.01-.038.037-.065.028-.026.069-.03.043-.005.093.02.097.053.188.077.09.021.185.021.105 0 .177-.028.071-.029.107-.086.038-.057.038-.138 0-.12-.081-.176-.079-.06-.231-.06h-.152q-.067 0-.103-.033-.033-.033-.033-.093t.033-.093q.036-.033.103-.033h.123q.09 0 .155-.029.064-.03.1-.085t.036-.134q0-.11-.074-.167-.071-.057-.21-.057-.088 0-.166.022-.076.019-.17.074-.042.026-.083.021-.038-.005-.064-.03-.026-.027-.036-.063-.01-.038.005-.076.015-.04.06-.07.102-.066.226-.1.124-.035.255-.035.174 0 .297.055.124.052.189.152.066.098.066.238 0 .1-.038.184-.038.08-.107.138-.07.057-.167.08v-.028q.172.029.267.143.095.112.095.281 0 .148-.074.257-.073.11-.21.17-.135.057-.323.057zm1.429 0q-.129 0-.267-.034-.138-.033-.24-.1-.048-.03-.065-.071t-.01-.076q.01-.038.036-.065.029-.026.07-.03.042-.005.092.02.098.053.188.077.09.021.186.021.105 0 .176-.028.072-.029.108-.086.038-.057.038-.138 0-.12-.081-.176-.079-.06-.231-.06h-.153q-.066 0-.102-.033-.033-.033-.033-.093t.033-.093q.036-.033.102-.033h.124q.09 0 .155-.029.064-.03.1-.085t.036-.134q0-.11-.074-.167-.072-.057-.21-.057-.088 0-.166.022-.077.019-.17.074-.042.026-.083.021-.038-.005-.064-.03-.026-.027-.036-.063-.01-.038.005-.076.014-.04.06-.07.102-.066.226-.1.124-.035.255-.035.173 0 .297.055.124.052.188.152.067.098.067.238 0 .1-.038.184-.038.08-.107.138-.07.057-.167.08v-.028q.171.029.267.143.095.112.095.281 0 .148-.074.257t-.21.17q-.135.057-.323.057zm1.462 0q-.298 0-.455-.224-.157-.226-.157-.643 0-.281.069-.472.071-.193.207-.29.138-.098.336-.098.3 0 .455.22.157.218.157.637 0 .28-.072.474-.069.193-.204.296-.136.1-.336.1zm0-.25q.162 0 .238-.15.078-.15.078-.47t-.078-.462q-.076-.145-.238-.145-.16 0-.238.145-.079.143-.079.462t.079.47.238.15zm1.557.226q-.062 0-.095-.034-.033-.033-.033-.092 0-.062.033-.093.033-.034.095-.034h.453v.081q-.281-.14-.408-.338-.123-.197-.123-.45 0-.23.107-.398.107-.166.295-.254.188-.09.43-.09.184 0 .334.052.153.05.265.147.112.095.171.234.062.135.062.31 0 .168-.055.313-.052.143-.169.262t-.305.212v-.08h.453q.062 0 .093.033.033.03.033.093 0 .06-.033.092-.031.034-.093.034h-.5q-.046 0-.076-.02-.031-.018-.048-.05-.017-.033-.017-.07 0-.034.007-.058.01-.026.029-.05t.048-.047q.11-.091.178-.189.07-.1.103-.21t.033-.225q0-.167-.062-.284t-.176-.176q-.115-.062-.274-.062-.157 0-.274.062-.114.06-.179.176-.061.117-.061.284 0 .112.033.221.033.11.102.212.072.102.181.19.048.039.067.072t.019.083q0 .057-.038.1-.038.04-.105.04z" aria-label="330 Ω" style="font-weight:700;font-size:2.38125px;font-family:Nunito;-inkscape-font-specification:&quot;Nunito Bold&quot;;fill:#333;stroke:#333;stroke-width:0;stroke-linejoin:round"/></svg>