<svg xmlns="http://www.w3.org/2000/svg" width="78mm" height="83.15" viewBox="0 0 78 22"><defs><marker id="a" markerHeight="1" markerWidth="1" orient="auto-start-reverse" preserveAspectRatio="xMidYMid" refX="0" refY="0" style="overflow:visible" viewBox="0 0 1 1"><path d="M-.211-4.106 6.21-.894a1 1 90 0 1 0 1.788L-.21 4.106A1.236 1.236 31.717 0 1-2 3v-6A1.236 1.236 148.283 0 1-.211-4.106" style="fill:context-stroke;fill-rule:evenodd;stroke:none" transform="scale(.7)"/></marker><marker id="c" markerHeight="1" markerWidth="1" orient="auto-start-reverse" preserveAspectRatio="xMidYMid" refX="0" refY="0" style="overflow:visible" viewBox="0 0 1 1"><path d="M-.211-4.106 6.21-.894a1 1 90 0 1 0 1.788L-.21 4.106A1.236 1.236 31.717 0 1-2 3v-6A1.236 1.236 148.283 0 1-.211-4.106" style="fill:context-stroke;fill-rule:evenodd;stroke:none" transform="scale(.7)"/></marker><marker id="b" markerHeight="1" markerWidth="1" orient="auto-start-reverse" preserveAspectRatio="xMidYMid" refX="0" refY="0" style="overflow:visible" viewBox="0 0 1 1"><path d="M-.211-4.106 6.21-.894a1 1 90 0 1 0 1.788L-.21 4.106A1.236 1.236 31.717 0 1-2 3v-6A1.236 1.236 148.283 0 1-.211-4.106" style="fill:context-stroke;fill-rule:evenodd;stroke:none" transform="scale(.7)"/></marker><marker id="d" markerHeight="1" markerWidth="1" orient="auto-start-reverse" preserveAspectRatio="xMidYMid" refX="0" refY="0" style="overflow:visible" viewBox="0 0 1 1"><path d="M-.211-4.106 6.21-.894a1 1 90 0 1 0 1.788L-.21 4.106A1.236 1.236 31.717 0 1-2 3v-6A1.236 1.236 148.283 0 1-.211-4.106" style="fill:context-stroke;fill-rule:evenodd;stroke:none" transform="scale(.7)"/></marker></defs><path d="M60 3h6.6" style="fill:none;stroke:#bb3f3f;stroke-width:.3;stroke-linecap:round;stroke-linejoin:round;stroke-dasharray:none;stroke-opacity:1;marker-end:url(#a)"/><path d="M18 3h6.6" style="fill:none;stroke:#bb3f3f;stroke-width:.3;stroke-linecap:round;stroke-linejoin:round;stroke-dasharray:none;stroke-opacity:1;marker-end:url(#b)"/><path d="M60 11h6.6" style="fill:none;stroke:#bb3f3f;stroke-width:.3;stroke-linecap:round;stroke-linejoin:round;stroke-dasharray:none;stroke-opacity:1;marker-end:url(#c)"/><path d="M60 3v8M60 11v1.5" style="fill:none;stroke:#bb3f3f;stroke-width:.3;stroke-linecap:round;stroke-linejoin:round;stroke-dasharray:none;stroke-opacity:1"/><path d="M60 19h6.6" style="fill:none;stroke:#bb3f3f;stroke-width:.3;stroke-linecap:round;stroke-linejoin:round;stroke-dasharray:none;stroke-opacity:1;marker-end:url(#d)"/><path d="M60 17.5V19" style="fill:none;stroke:#bb3f3f;stroke-width:.3;stroke-linecap:round;stroke-linejoin:round;stroke-dasharray:none;stroke-opacity:1"/><path d="M60 13.65v3" style="fill:none;stroke:#bb3f3f;stroke-width:.3;stroke-linecap:round;stroke-linejoin:round;stroke-dasharray:.3,.9;stroke-dashoffset:0;stroke-opacity:1"/><path d="M52 3v8M52 3h8M36 3h4M48 3h4M10 3h8M18 11V3" style="fill:none;stroke:#bb3f3f;stroke-width:.3;stroke-linecap:round;stroke-linejoin:round;stroke-dasharray:none;stroke-opacity:1"/><path d="M1 0h8c.554 0 1 .446 1 1v4c0 .554-.446 1-1 1H1c-.554 0-1-.446-1-1V1c0-.554.446-1 1-1Z" style="fill:#bb3f3f;stroke:#bb3f3f;stroke-width:0;stroke-linejoin:round"/><path d="M2.072 3.866q-.18 0-.317-.046-.136-.047-.229-.138-.093-.09-.14-.226-.046-.138-.046-.32v-.809q0-.093.048-.14t.138-.048q.088 0 .136.048.048.047.048.14v.812q0 .205.092.31.093.102.27.102.176 0 .266-.102.093-.105.093-.31v-.812q0-.093.048-.14.047-.048.135-.048t.134.048q.047.047.047.14v.81q0 .24-.083.405-.08.162-.243.243-.16.08-.397.08zm1.65 0q-.1 0-.205-.017-.102-.014-.198-.043-.093-.029-.166-.071-.053-.029-.074-.074-.022-.048-.017-.095.007-.048.036-.084.03-.038.076-.047.048-.012.105.016.097.055.212.081.116.026.23.026.175 0 .248-.052.074-.055.074-.136 0-.069-.052-.11-.053-.04-.184-.068l-.269-.057q-.228-.048-.34-.162-.11-.117-.11-.305 0-.12.05-.217.05-.098.14-.169t.215-.11q.126-.038.276-.038.134 0 .262.034.129.03.227.093.047.028.064.073.019.043.012.089-.005.042-.036.076-.029.033-.074.043t-.11-.022q-.078-.04-.166-.06-.088-.018-.181-.018-.1 0-.171.026-.07.026-.108.074-.035.047-.035.11 0 .068.05.111t.173.07l.27.056q.233.05.347.162.115.11.115.29 0 .12-.048.217-.048.096-.138.165t-.217.107q-.126.036-.283.036Zm1.119-.027q-.093 0-.143-.05t-.05-.142V2.353q0-.092.05-.142t.143-.05h.576q.179 0 .305.052t.19.15q.067.098.067.233 0 .15-.086.255t-.235.14v-.037q.174.03.269.138.097.104.097.274 0 .223-.154.35-.155.123-.427.123ZM5 3.566h.392q.143 0 .21-.055.067-.057.067-.167t-.067-.164-.21-.055H5Zm0-.715h.352q.138 0 .205-.052.066-.053.066-.157 0-.103-.066-.155-.067-.053-.205-.053H5zm1.419.49q-.06 0-.103-.04-.04-.04-.04-.1 0-.062.04-.102.043-.04.103-.04h.49q.06 0 .1.04.043.04.043.102 0 .06-.043.1-.04.04-.1.04zm1.752.525q-.271 0-.464-.108-.193-.107-.298-.3-.102-.195-.102-.46 0-.197.057-.354.06-.16.172-.271.111-.115.271-.177.162-.062.364-.062.12 0 .24.031.125.029.215.084.06.033.081.083t.012.1q-.007.05-.04.086-.031.036-.08.045-.047.01-.106-.021-.072-.043-.15-.062-.079-.02-.16-.02-.16 0-.269.065-.107.062-.162.18-.055.12-.055.294 0 .171.055.293t.162.185q.11.062.27.062.075 0 .154-.019.081-.019.155-.06.062-.03.11-.02.05.006.08.042.034.034.04.081.01.048-.009.095-.019.048-.071.081-.088.06-.217.093-.128.034-.255.034z" aria-label="USB-C" style="font-weight:800;font-size:2.38125px;font-family:Nunito;-inkscape-font-specification:&quot;Nunito Ultra-Bold&quot;;fill:#fff;stroke:#fff;stroke-width:0;stroke-linejoin:round"/><path d="M27 0h8c.554 0 1 .446 1 1v4c0 .554-.446 1-1 1h-8c-.554 0-1-.446-1-1V1c0-.554.446-1 1-1z" style="fill:#bb3f3f;stroke:#bb3f3f;stroke-width:0;stroke-linejoin:round"/><path d="M28.78 3.84q-.091 0-.141-.05-.048-.05-.048-.139V2.344q0-.093.048-.14t.138-.048q.088 0 .136.047.047.048.047.141v1.183h.639q.076 0 .116.04.043.041.043.115 0 .076-.043.117-.04.04-.116.04zm1.369 0q-.093 0-.143-.05t-.05-.143V2.353q0-.092.05-.142t.143-.05h.464q.431 0 .664.219.236.216.236.619 0 .202-.062.36-.06.154-.174.261t-.28.165q-.167.054-.384.054zm.176-.303h.267q.135 0 .235-.033.1-.034.167-.1.067-.067.1-.167.033-.102.033-.238 0-.272-.135-.403-.134-.133-.4-.133h-.267zm2.253.329q-.248 0-.436-.108-.186-.11-.29-.304-.103-.196-.103-.455 0-.198.057-.355.06-.16.17-.271.109-.115.261-.177.155-.062.34-.062.253 0 .439.108.185.107.288.302.105.193.105.452 0 .198-.06.358t-.169.273-.262.177-.34.062zm0-.315q.14 0 .238-.064.1-.067.152-.19.055-.127.055-.298 0-.262-.117-.405-.116-.145-.328-.145-.139 0-.239.064t-.152.188q-.052.124-.052.298 0 .26.116.407.117.145.327.145z" aria-label="LDO" style="font-weight:800;font-size:2.38125px;font-family:Nunito;-inkscape-font-specification:&quot;Nunito Ultra-Bold&quot;;fill:#fff;stroke:#fff;stroke-width:0;stroke-linejoin:round"/><path d="M4.563 13.26q-.126 0-.257-.034-.131-.033-.24-.102-.046-.029-.063-.067-.014-.04-.007-.078.01-.041.036-.067.028-.029.067-.034.04-.004.088.022.088.05.178.076t.193.026q.1 0 .172-.035t.11-.1q.037-.065.037-.15 0-.134-.08-.215-.082-.083-.222-.083-.076 0-.148.026-.071.024-.14.086-.022.019-.055.038-.033.017-.072.017-.06 0-.09-.031-.031-.031-.031-.086v-.779q0-.064.033-.097.036-.036.1-.036h.784q.064 0 .097.033.036.031.036.093 0 .06-.036.093-.033.033-.097.033h-.62v.534h-.078q.062-.084.164-.129t.224-.045q.16 0 .276.069.12.067.184.188.066.12.066.279 0 .164-.073.29-.074.124-.212.195-.136.07-.324.07zm1.55-.005q-.064 0-.107-.029-.04-.03-.067-.09l-.621-1.396q-.026-.06-.015-.105.012-.045.05-.071t.09-.026q.07 0 .103.03.036.03.06.089l.564 1.307h-.102l.562-1.31q.026-.057.062-.085.035-.031.1-.031.052 0 .085.026.036.026.046.071.01.046-.017.105l-.621 1.396q-.027.06-.067.09-.038.029-.105.029zm1.829 0q-.074 0-.114-.04-.039-.044-.039-.117v-1.386q0-.077.04-.115.041-.04.115-.04h.574q.276 0 .426.138t.15.386-.15.388q-.15.138-.426.138h-.424v.49q0 .074-.038.117-.038.04-.114.04zm.152-.889h.376q.162 0 .246-.07.083-.075.083-.215t-.083-.212-.246-.072h-.376Zm1.367.886q-.071 0-.11-.043-.038-.042-.038-.119v-.874q0-.078.039-.119.038-.042.11-.042.07 0 .109.042.04.04.04.12v.873q0 .077-.038.12t-.112.042zm0-1.419q-.083 0-.13-.04-.046-.043-.046-.117 0-.076.045-.117.048-.04.131-.04.086 0 .131.04t.045.117q0 .074-.045.117-.045.04-.13.04zm.607 1.422q-.071 0-.11-.038-.037-.04-.037-.115v-.9q0-.074.038-.112t.107-.038.107.038.038.112v.162l-.026-.06q.052-.126.162-.19.112-.067.252-.067t.231.053.136.16q.045.104.045.266v.576q0 .074-.038.115-.038.038-.11.038-.07 0-.111-.038-.038-.04-.038-.115v-.562q0-.135-.053-.197-.05-.062-.157-.062-.13 0-.21.083-.076.081-.076.217v.521q0 .153-.15.153zm2.253.369q-.148-.234-.214-.49-.065-.26-.065-.525 0-.176.029-.35.029-.173.09-.34.062-.17.16-.324.026-.043.069-.052.045-.012.083.004.04.017.06.062.019.043-.005.11-.057.152-.095.3-.036.145-.055.29-.017.146-.017.3 0 .155.02.3.019.146.057.291t.09.3q.024.067.005.11-.02.045-.06.061-.038.017-.083.005-.043-.01-.069-.052zm.571-.376q-.052 0-.088-.029-.033-.031-.035-.079 0-.047.04-.1l.386-.476v.14l-.362-.445q-.043-.052-.04-.1.002-.047.035-.076.036-.03.088-.03.055 0 .09.018.039.02.07.06l.286.366h-.105l.288-.366q.033-.04.069-.06t.088-.019q.055 0 .088.031.034.031.034.079.002.047-.04.1l-.36.44v-.133l.385.471q.043.05.04.098t-.037.079q-.034.03-.088.03t-.089-.018-.069-.06l-.31-.39h.1l-.306.39q-.031.038-.067.06-.036.019-.09.019zm1.436-.012q-.062 0-.097-.034-.034-.035-.034-.095 0-.062.034-.093.035-.03.097-.03h.267v-1.17h.148l-.35.212q-.046.026-.086.021-.038-.007-.067-.033-.026-.029-.035-.067t.004-.076q.017-.04.062-.067l.329-.197q.047-.029.095-.048.048-.021.088-.021.05 0 .084.028.033.027.033.088v1.33h.243q.062 0 .095.03.036.031.036.093t-.036.095q-.033.034-.095.034zm1.393.388q-.026.043-.071.052-.043.012-.083-.007-.04-.017-.06-.06-.017-.042.007-.109.06-.155.095-.3t.053-.29q.019-.146.019-.3 0-.155-.02-.3-.018-.146-.056-.291-.036-.145-.09-.3-.025-.067-.006-.11.02-.045.06-.062.04-.016.083-.004.043.01.07.052.145.231.211.49.067.26.067.524 0 .177-.031.35-.029.174-.09.341-.06.169-.158.324z" aria-label="5V Pin (x1)" style="font-weight:700;font-size:2.38125px;font-family:Nunito;-inkscape-font-specification:&quot;Nunito Bold&quot;;fill:#bb3f3f;stroke:#bb3f3f;stroke-width:0;stroke-linejoin:round"/><path d="M37.086 13.26q-.128 0-.266-.034-.138-.033-.24-.1-.048-.03-.065-.071t-.01-.076q.01-.039.036-.065.029-.026.07-.03.042-.006.092.02.098.053.188.077.09.021.186.021.105 0 .176-.028.072-.029.107-.086.038-.057.038-.138 0-.12-.08-.176-.08-.06-.231-.06h-.153q-.067 0-.102-.033-.034-.034-.034-.093 0-.06.034-.093.035-.033.102-.033h.124q.09 0 .155-.029.064-.03.1-.086.035-.054.035-.133 0-.11-.073-.167-.072-.057-.21-.057-.088 0-.167.022-.076.019-.169.073-.043.027-.083.022-.038-.005-.064-.031t-.036-.062q-.01-.038.005-.076.014-.04.06-.07.102-.066.226-.1.123-.035.254-.035.174 0 .298.055.124.052.188.152.067.098.067.238 0 .1-.038.184-.038.08-.107.138-.07.057-.167.08v-.028q.171.029.267.143.095.112.095.281 0 .148-.074.257t-.21.17q-.135.056-.323.056zm1.598-.005q-.064 0-.107-.029-.04-.03-.067-.09l-.621-1.396q-.026-.06-.014-.105t.05-.071.09-.026q.07 0 .103.03.035.03.06.089l.563 1.307h-.102l.562-1.31q.026-.057.062-.085.036-.031.1-.031.052 0 .086.026.035.026.045.071.01.046-.017.105l-.621 1.396q-.026.06-.067.09-.038.029-.105.029zm1.53.005q-.13 0-.268-.034-.138-.033-.24-.1-.048-.03-.064-.071-.017-.04-.01-.076.01-.039.036-.065.028-.026.069-.03.043-.006.093.02.097.053.188.077.09.021.186.021.104 0 .176-.028.071-.029.107-.086.038-.057.038-.138 0-.12-.08-.176-.08-.06-.232-.06h-.152q-.067 0-.103-.033-.033-.034-.033-.093 0-.06.033-.093.036-.033.103-.033h.124q.09 0 .154-.029.065-.03.1-.086.036-.054.036-.133 0-.11-.074-.167-.071-.057-.21-.057-.087 0-.166.022-.076.019-.17.073-.042.027-.082.022-.039-.005-.065-.031t-.035-.062q-.01-.038.004-.076.015-.04.06-.07.102-.066.226-.1.124-.035.255-.035.174 0 .298.055.123.052.188.152.066.098.066.238 0 .1-.038.184-.038.08-.107.138-.069.057-.167.08v-.028q.172.029.267.143.095.112.095.281 0 .148-.073.257-.074.11-.21.17-.136.056-.324.056zm1.728-.005q-.074 0-.114-.04-.039-.044-.039-.117v-1.386q0-.077.04-.115.041-.04.115-.04h.574q.276 0 .426.138t.15.386-.15.388q-.15.138-.426.138h-.424v.49q0 .074-.038.117-.038.04-.114.04zm.152-.889h.376q.162 0 .246-.07.083-.075.083-.215t-.083-.212-.246-.072h-.376zm1.367.886q-.071 0-.11-.043-.038-.042-.038-.119v-.874q0-.078.039-.119.038-.042.11-.042.07 0 .109.042.04.04.04.12v.873q0 .077-.038.12t-.112.042zm0-1.419q-.083 0-.13-.04-.046-.043-.046-.117 0-.076.045-.117.048-.04.131-.04.086 0 .131.04t.045.117q0 .074-.045.117-.045.04-.13.04zm.607 1.422q-.071 0-.11-.038-.037-.04-.037-.115v-.9q0-.074.038-.112t.107-.038.107.038.038.112v.162l-.026-.06q.052-.126.162-.19.112-.067.252-.067t.231.053.136.16q.045.104.045.266v.576q0 .074-.038.115-.038.038-.11.038-.07 0-.111-.038-.038-.04-.038-.115v-.562q0-.135-.053-.197-.05-.062-.157-.062-.13 0-.21.083-.076.081-.076.217v.521q0 .153-.15.153zm2.253.369q-.148-.234-.214-.49-.065-.26-.065-.525 0-.176.029-.35.029-.173.09-.34.062-.17.16-.324.026-.043.069-.052.045-.012.083.004.04.017.06.062.019.043-.005.11-.057.152-.095.3-.036.145-.055.29-.017.146-.017.3 0 .155.02.3.019.146.057.291t.09.3q.024.067.005.11-.02.045-.06.061-.038.017-.083.005-.043-.01-.069-.052zm.571-.376q-.052 0-.088-.029-.033-.031-.035-.079 0-.047.04-.1l.386-.476v.14l-.362-.445q-.043-.052-.04-.1.002-.047.035-.076.036-.03.088-.03.055 0 .09.018.039.02.07.06l.286.366h-.105l.288-.366q.033-.04.069-.06t.088-.019q.055 0 .088.031.034.031.034.079.002.047-.04.1l-.36.44v-.133l.385.471q.043.05.04.098t-.037.079q-.034.03-.088.03t-.089-.018-.069-.06l-.31-.39h.1l-.306.39q-.031.038-.067.06-.036.019-.09.019zm1.794.011q-.127 0-.258-.033-.13-.033-.24-.102-.045-.029-.062-.067-.014-.04-.007-.079.01-.04.036-.066.028-.029.066-.034.04-.004.088.022.088.05.179.076.09.026.193.026.1 0 .171-.035t.11-.1.038-.15q0-.134-.081-.215-.081-.083-.221-.083-.077 0-.148.026-.072.024-.14.086-.022.019-.055.038-.034.017-.072.017-.06 0-.09-.031-.031-.031-.031-.086v-.779q0-.064.033-.097.036-.036.1-.036h.784q.064 0 .097.033.036.031.036.093 0 .06-.036.093-.033.033-.097.033h-.62v.534h-.078q.062-.084.164-.129t.224-.045q.16 0 .276.069.12.067.184.188.066.12.066.279 0 .164-.074.29-.073.124-.212.195-.135.07-.323.07zm1.035.365q-.026.043-.071.052-.043.012-.083-.007-.04-.017-.06-.06-.017-.042.007-.109.06-.155.095-.3t.053-.29q.019-.146.019-.3 0-.155-.02-.3-.018-.146-.056-.291-.036-.145-.09-.3-.025-.067-.006-.11.02-.045.06-.062.04-.016.083-.004.043.01.07.052.145.231.211.49.067.26.067.524 0 .177-.031.35-.029.174-.09.341-.06.169-.158.324z" aria-label="3V3 Pin (x5)" style="font-weight:700;font-size:2.38125px;font-family:Nunito;-inkscape-font-specification:&quot;Nunito Bold&quot;;fill:#bb3f3f;stroke:#bb3f3f;stroke-width:0;stroke-linejoin:round"/><path d="M43.06 6.22q-.066.002-.104-.036-.038-.039-.038-.098 0-.045.028-.079.026-.035.079-.038l.071-.005q.105-.007.157-.064.055-.06.055-.169V4.66q0-.077.038-.115.04-.04.115-.04.073 0 .112.04.04.038.04.115v1.069q0 .15-.055.255-.052.104-.157.164-.105.057-.26.067zm1.415.006q-.129 0-.267-.033t-.24-.1q-.048-.03-.064-.071-.017-.04-.01-.077.01-.038.036-.064.028-.026.069-.03.043-.006.093.02.097.053.188.077.09.021.186.021.104 0 .176-.028.071-.029.107-.086.038-.057.038-.138 0-.12-.08-.176-.08-.06-.232-.06h-.152q-.067 0-.103-.033-.033-.034-.033-.093 0-.06.033-.093.036-.033.103-.033h.124q.09 0 .154-.029.065-.03.1-.086.036-.054.036-.133 0-.11-.074-.167-.071-.057-.21-.057-.087 0-.166.022-.076.019-.17.073-.042.027-.082.022-.039-.005-.065-.031t-.035-.062q-.01-.038.004-.076.015-.04.06-.07.102-.066.226-.1.124-.035.255-.035.174 0 .298.055.123.052.188.152.066.098.066.238 0 .1-.038.184-.038.08-.107.138-.069.057-.167.08V5.32q.172.029.267.143.095.112.095.281 0 .148-.073.257-.074.11-.21.17-.136.056-.324.056z" aria-label="J3" style="font-weight:700;font-size:2.38125px;font-family:Nunito;-inkscape-font-specification:&quot;Nunito Bold&quot;;fill:#bb3f3f;stroke:#bb3f3f;stroke-width:0;stroke-linejoin:round"/><path d="M16.075 1.9q-.053 0-.081-.029t-.029-.083v-.39h-.383q-.05 0-.079-.027-.028-.028-.028-.078t.028-.076q.029-.029.079-.029h.383V.809q0-.052.029-.08.028-.03.083-.03.052 0 .079.03.028.028.028.08v.379h.384q.052 0 .078.029.029.026.029.076t-.029.078q-.026.027-.078.027h-.384v.39q0 .052-.028.083-.027.029-.081.029zm1.443.1q-.126 0-.257-.033-.131-.034-.241-.103-.045-.028-.062-.066-.014-.04-.007-.079.01-.04.036-.067.028-.028.066-.033.04-.005.089.021.088.05.178.077t.193.026q.1 0 .171-.036t.11-.1.038-.15q0-.133-.08-.214-.082-.084-.222-.084-.077 0-.148.027-.071.023-.14.085-.022.02-.055.038-.034.017-.072.017-.06 0-.09-.03-.031-.032-.031-.087V.431q0-.065.033-.098.036-.036.1-.036h.784q.064 0 .097.034.036.03.036.093 0 .06-.036.092-.033.034-.097.034h-.62v.533h-.078q.062-.083.164-.128.103-.046.224-.046.16 0 .276.07.12.066.184.188.066.119.066.278 0 .164-.073.29-.074.125-.212.196-.136.069-.324.069zm2.195-.005q-.064 0-.107-.028-.04-.031-.067-.09L18.918.48q-.026-.06-.014-.105t.05-.071.09-.027q.07 0 .102.031.036.029.06.088l.564 1.308h-.102l.562-1.31q.026-.057.062-.086.036-.03.1-.03.052 0 .086.026.035.026.045.071t-.017.105l-.621 1.395q-.027.06-.067.09-.038.03-.105.03z" aria-label="+5 V" style="font-weight:700;font-size:2.38125px;font-family:Nunito;-inkscape-font-specification:&quot;Nunito Bold&quot;;fill:#bb3f3f;stroke:#bb3f3f;stroke-width:0;stroke-linejoin:round"/><path d="M54.065 1.9q-.052 0-.08-.029-.03-.03-.03-.083v-.39h-.383q-.05 0-.078-.027-.029-.028-.029-.078t.029-.076q.028-.029.078-.029h.383V.809q0-.052.03-.08.028-.03.082-.03.053 0 .079.03.029.028.029.08v.379h.383q.052 0 .079.029.028.026.028.076t-.028.078q-.027.027-.079.027h-.383v.39q0 .052-.029.083-.026.029-.081.029zm1.395.1q-.128 0-.266-.033-.138-.034-.24-.1-.048-.031-.065-.072t-.01-.076q.01-.038.036-.064.029-.026.07-.031t.092.021q.098.053.188.076.09.022.186.022.105 0 .176-.029.072-.028.107-.085.038-.058.038-.139 0-.119-.08-.176-.08-.06-.232-.06h-.152q-.067 0-.102-.033t-.034-.093q0-.06.034-.092.035-.034.102-.034h.124q.09 0 .155-.028.064-.031.1-.086.035-.055.035-.133 0-.11-.073-.167-.072-.057-.21-.057-.088 0-.167.021-.076.02-.169.074-.043.026-.083.021-.038-.004-.064-.03-.027-.027-.036-.062-.01-.039.005-.077.014-.04.06-.069.102-.066.225-.1.124-.035.255-.035.174 0 .298.054.124.053.188.153.067.097.067.238 0 .1-.038.183-.038.081-.108.138-.069.058-.166.081v-.028q.171.028.266.143.096.112.096.28 0 .148-.074.258t-.21.169Q55.65 2 55.461 2zm1.046-.012q-.081 0-.131-.05-.048-.05-.048-.128 0-.077.048-.124.05-.05.13-.05.084 0 .13.05.047.047.047.124 0 .078-.048.128-.045.05-.128.05zM57.48 2q-.129 0-.267-.033-.138-.034-.24-.1-.048-.031-.065-.072-.016-.04-.01-.076.01-.038.036-.064.029-.026.07-.031t.092.021q.098.053.189.076.09.022.185.022.105 0 .176-.029.072-.028.108-.085.038-.058.038-.139 0-.119-.081-.176-.079-.06-.231-.06h-.153q-.066 0-.102-.033-.033-.033-.033-.093t.033-.092q.036-.034.102-.034h.124q.09 0 .155-.028.064-.031.1-.086t.036-.133q0-.11-.074-.167-.072-.057-.21-.057-.088 0-.166.021-.077.02-.17.074-.042.026-.083.021-.038-.004-.064-.03-.026-.027-.036-.062-.01-.039.005-.077.014-.04.06-.069.102-.066.226-.1.124-.035.255-.035.173 0 .297.054.124.053.188.153.067.097.067.238 0 .1-.038.183-.038.081-.107.138-.07.058-.167.081v-.028q.172.028.267.143.095.112.095.28 0 .148-.074.258t-.21.169Q57.669 2 57.48 2zm2.243-.005q-.064 0-.107-.028-.04-.031-.067-.09L58.928.48Q58.9.42 58.913.376t.05-.071.09-.027q.07 0 .103.031.036.029.06.088l.564 1.308h-.102l.562-1.31q.026-.057.062-.086.035-.03.1-.03.052 0 .085.026.036.026.045.071t-.016.105l-.622 1.395q-.026.06-.066.09-.038.03-.105.03z" aria-label="+3.3 V" style="font-weight:700;font-size:2.38125px;font-family:Nunito;-inkscape-font-specification:&quot;Nunito Bold&quot;;fill:#bb3f3f;stroke:#bb3f3f;stroke-width:0;stroke-linejoin:round"/><path d="M69 8h8c.554 0 1 .446 1 1v4c0 .554-.446 1-1 1h-8c-.554 0-1-.446-1-1V9c0-.554.446-1 1-1z" style="fill:#bb3f3f;stroke:#bb3f3f;stroke-width:0;stroke-linejoin:round"/><path d="M69.433 11.86q-.09 0-.14-.05-.048-.05-.048-.144v-1.313q0-.092.05-.142t.143-.05h.814q.071 0 .107.038.038.035.038.104 0 .072-.038.11-.036.036-.107.036h-.638v.41h.586q.071 0 .11.037.037.036.037.105 0 .07-.038.107-.038.038-.11.038h-.585v.52q0 .195-.181.195zm1.357-.02q-.09 0-.14-.05-.048-.05-.048-.139v-1.307q0-.093.048-.14.047-.048.138-.048.088 0 .136.047.047.048.047.141v1.183h.638q.077 0 .117.04.043.041.043.115 0 .076-.043.117-.04.04-.117.04zm1.196.02q-.067 0-.11-.03-.04-.031-.052-.083-.01-.053.021-.117l.61-1.336q.038-.081.09-.117.053-.038.122-.038t.121.038q.052.036.088.117l.615 1.336q.03.064.021.119-.007.052-.048.083-.04.029-.104.029-.081 0-.127-.038-.042-.038-.076-.12l-.143-.33.148.102h-.993l.148-.102-.14.33q-.037.084-.077.122-.038.036-.114.036zm.676-1.306-.305.726-.064-.093h.745l-.064.093-.307-.726zm1.648 1.312q-.1 0-.205-.017-.102-.014-.198-.043-.093-.029-.166-.071-.053-.029-.074-.074-.022-.048-.017-.095.007-.048.036-.084.03-.038.076-.047.048-.012.105.016.097.055.212.081.116.026.23.026.175 0 .248-.052.074-.055.074-.136 0-.069-.052-.11-.053-.04-.184-.068l-.269-.057q-.228-.048-.34-.162-.11-.117-.11-.305 0-.12.05-.217.05-.098.14-.169t.215-.11q.126-.038.276-.038.134 0 .262.034.129.03.226.093.048.028.065.073.019.043.012.089-.005.042-.036.076-.029.033-.074.043t-.11-.022q-.078-.04-.166-.06-.088-.018-.181-.018-.1 0-.172.026-.069.026-.107.074-.035.047-.035.11 0 .068.05.111t.173.07l.27.056q.233.05.347.162.114.11.114.29 0 .12-.047.217-.048.096-.138.165t-.217.107q-.126.036-.283.036zm1.112-.005q-.09 0-.138-.05t-.048-.14V10.33q0-.09.048-.14.047-.05.138-.05.088 0 .135.05t.048.14v.504h.781v-.504q0-.09.048-.14.047-.05.135-.05.091 0 .139.05.047.05.047.14v1.34q0 .09-.047.14-.048.05-.139.05-.088 0-.135-.05t-.048-.14v-.528h-.78v.528q0 .09-.049.14-.045.05-.135.05z" aria-label="FLASH" style="font-weight:800;font-size:2.38125px;font-family:Nunito;-inkscape-font-specification:&quot;Nunito Ultra-Bold&quot;;fill:#fff;stroke:#fff;stroke-width:0;stroke-linejoin:round"/><path d="M69 17h8c.554 0 1 .446 1 1v4c0 .554-.446 1-1 1h-8c-.554 0-1-.446-1-1v-4c0-.554.446-1 1-1z" style="fill:#bb3f3f;stroke:#bb3f3f;stroke-width:0;stroke-linejoin:round" transform="translate(0 -1)"/><path d="M71.408 20.866q-.248 0-.436-.108-.186-.11-.29-.304-.103-.196-.103-.455 0-.198.057-.355.06-.16.17-.271.109-.115.261-.177.155-.062.34-.062.253 0 .439.108.186.107.288.302.105.193.105.452 0 .198-.06.358t-.169.273-.262.177-.34.062zm0-.315q.14 0 .238-.064.1-.067.152-.19.055-.127.055-.298 0-.262-.117-.405-.116-.145-.328-.145-.138 0-.238.064t-.153.188-.052.298q0 .26.117.407.116.145.326.145zm1.717.315q-.1 0-.205-.017-.103-.014-.198-.043-.093-.029-.167-.071-.052-.029-.073-.074-.022-.048-.017-.095.007-.048.036-.084.03-.038.076-.047.048-.012.105.016.097.055.212.081.116.026.23.026.174 0 .248-.052.074-.055.074-.136 0-.069-.052-.11-.053-.04-.184-.068l-.269-.057q-.228-.048-.34-.162-.11-.117-.11-.305 0-.12.05-.217.05-.098.14-.169t.215-.11q.126-.038.276-.038.134 0 .262.034.129.03.226.093.048.028.065.073.019.043.012.089-.005.042-.036.076-.029.033-.074.043t-.11-.022q-.078-.04-.166-.06-.088-.018-.181-.018-.1 0-.172.026-.069.026-.107.074-.035.047-.035.11 0 .068.05.111t.173.07l.27.056q.233.05.347.162.114.11.114.29 0 .12-.047.217-.048.096-.138.165t-.217.107q-.126.036-.283.036zm1.74 0q-.271 0-.464-.108-.193-.107-.298-.3-.102-.195-.102-.46 0-.197.057-.354.06-.16.172-.271.111-.115.271-.177.162-.062.364-.062.12 0 .24.031.125.029.215.084.06.033.081.083t.012.1q-.007.05-.04.086-.031.036-.08.045-.047.01-.106-.021-.072-.043-.15-.062-.079-.02-.16-.02-.16 0-.269.065-.107.062-.162.18-.055.12-.055.294 0 .171.055.293t.162.185q.11.062.27.062.075 0 .154-.019.081-.019.155-.06.062-.03.11-.02.05.006.08.042.034.034.04.081.01.048-.009.095-.019.048-.071.081-.088.06-.217.093-.128.034-.255.034z" aria-label="OSC" style="font-weight:800;font-size:2.38125px;font-family:Nunito;-inkscape-font-specification:&quot;Nunito Ultra-Bold&quot;;fill:#fff;stroke:#fff;stroke-width:0;stroke-linejoin:round" transform="translate(0 -1)"/><path d="M69 0h8c.554 0 1 .446 1 1v4c0 .554-.446 1-1 1h-8c-.554 0-1-.446-1-1V1c0-.554.446-1 1-1Z" style="fill:#bb3f3f;stroke:#bb3f3f;stroke-width:0;stroke-linejoin:round"/><path d="M70.05 3.86q-.09 0-.14-.05-.047-.05-.047-.144V2.353q0-.092.05-.142t.143-.05h.814q.071 0 .107.038.038.035.038.104 0 .072-.038.11-.036.036-.107.036h-.638v.41h.586q.071 0 .11.037.037.036.037.105 0 .07-.038.107-.038.038-.11.038h-.585v.52q0 .195-.181.195zm1.356 0q-.09 0-.138-.05t-.048-.14V2.35q0-.093.048-.14.05-.048.14-.048h.579q.28 0 .433.142.153.141.153.393 0 .253-.153.396-.152.143-.433.143h-.398v.435q0 .09-.047.14-.046.05-.136.05zm.183-.911h.336q.143 0 .217-.064.076-.065.076-.189 0-.123-.076-.185-.074-.062-.217-.062h-.336zm2.036.917q-.283 0-.48-.108-.196-.107-.299-.3-.102-.192-.102-.452 0-.2.06-.36.062-.162.176-.273.117-.115.28-.177.167-.062.377-.062.129 0 .257.029.129.029.248.095.05.029.067.074.019.043.01.093-.008.048-.039.086-.029.035-.076.047-.045.01-.105-.019-.079-.043-.167-.062-.088-.021-.193-.021-.169 0-.283.064-.114.062-.171.186-.055.121-.055.3 0 .269.128.407.131.138.386.138.086 0 .176-.016.09-.017.179-.048l-.07.15V3.18h-.213q-.072 0-.11-.036t-.038-.098q0-.064.038-.097.038-.036.11-.036h.373q.072 0 .108.038.038.038.038.11v.552q0 .062-.024.105t-.081.062q-.107.038-.24.062-.134.024-.265.024zm.984-.005q-.067 0-.11-.031-.04-.031-.052-.083-.01-.053.021-.117l.61-1.336q.038-.081.09-.117.053-.038.122-.038t.121.038q.052.036.088.117l.615 1.336q.03.064.021.119-.007.052-.048.083-.04.029-.104.029-.081 0-.127-.038-.042-.038-.076-.12l-.143-.33.148.102h-.993l.148-.102-.14.33q-.037.084-.077.122-.038.036-.114.036zm.676-1.307-.305.726-.064-.093h.745l-.064.093-.307-.726z" aria-label="FPGA" style="font-weight:800;font-size:2.38125px;font-family:Nunito;-inkscape-font-specification:&quot;Nunito Ultra-Bold&quot;;fill:#fff;stroke:#fff;stroke-width:0;stroke-linejoin:round"/><path d="M18 11v1" style="fill:none;stroke:#bb3f3f;stroke-width:.3;stroke-linecap:round;stroke-linejoin:round;stroke-dasharray:none;stroke-opacity:1"/><path d="M13.2-18a.6.6 0 0 1-.6.6.6.6 0 0 1-.6-.6.6.6 0 0 1 .6-.6.6.6 0 0 1 .6.6z" style="fill:none;stroke:#bb3f3f;stroke-width:.3;stroke-linejoin:round" transform="rotate(90)"/><path d="M52 11v1" style="fill:none;stroke:#bb3f3f;stroke-width:.3;stroke-linecap:round;stroke-linejoin:round;stroke-dasharray:none;stroke-opacity:1"/><path d="M13.2-52a.6.6 0 0 1-.6.6.6.6 0 0 1-.6-.6.6.6 0 0 1 .6-.6.6.6 0 0 1 .6.6z" style="fill:none;stroke:#bb3f3f;stroke-width:.3;stroke-linejoin:round" transform="rotate(90)"/><path d="M68.5 92.8v1" style="fill:none;stroke:#bb3f3f;stroke-width:.3;stroke-linecap:round;stroke-linejoin:round;stroke-dasharray:none;stroke-opacity:1" transform="rotate(-90 9.35 62.15)"/><path d="M95-68.5a.6.6 0 0 1-.6.6.6.6 0 0 1-.6-.6.6.6 0 0 1 .6-.6.6.6 0 0 1 .6.6z" style="fill:none;stroke:#bb3f3f;stroke-width:.3;stroke-linejoin:round" transform="translate(-52.8 71.5)"/><path d="M68.5 92.8v1" style="fill:none;stroke:#bb3f3f;stroke-width:.3;stroke-linecap:round;stroke-linejoin:round;stroke-dasharray:none;stroke-opacity:1" transform="rotate(90 103.15 37.65)"/><path d="M95-68.5a.6.6 0 0 1-.6.6.6.6 0 0 1-.6-.6.6.6 0 0 1 .6-.6.6.6 0 0 1 .6.6z" style="fill:none;stroke:#bb3f3f;stroke-width:.3;stroke-linejoin:round" transform="matrix(-1 0 0 -1 140.8 -65.5)"/><path d="M70.6 94.95c1.3-.75 2.5-.75 3.8 0" style="fill:none;stroke:#bb3f3f;stroke-width:.3;stroke-linecap:round;stroke-linejoin:round;stroke-dasharray:none;stroke-opacity:1" transform="translate(-28.5 -93.5)"/></svg>