<svg xmlns="http://www.w3.org/2000/svg" width="178.016" height="189.354" viewBox="0 0 47.1 50.1"><title>SVG Image created as bluejay-F_Fab.svg date 2026/01/09 13:32:00 </title><desc>Image generated by PCBNEW</desc><g style="fill:none;stroke:#000;stroke-width:.025;stroke-linecap:round;stroke-linejoin:round;stroke-opacity:1"><g class="stroked-text" transform="rotate(90 -.75 24.3)"><desc>C20</desc><path d="m1.871 4.572-.01.01M1.862 4.582l-.029.01M1.833 4.591h-.019M1.814 4.591l-.028-.01M1.786 4.582l-.02-.02M1.767 4.563l-.01-.02M1.757 4.544l-.01-.038M1.748 4.506v-.03M1.748 4.477l.01-.038M1.757 4.439l.01-.02M1.767 4.42l.019-.02M1.786 4.4l.028-.009M1.814 4.391h.02M1.833 4.391l.029.01M1.862 4.4l.01.01M1.948 4.41l.01-.01M1.957 4.4l.02-.009M1.976 4.391h.048M2.024 4.391l.019.01M2.043 4.4l.01.01M2.052 4.41l.01.02M2.062 4.43v.018M2.062 4.448l-.01.029M2.052 4.477l-.114.114M1.938 4.591h.124M2.186 4.391h.019M2.205 4.391l.019.01M2.224 4.4l.01.01M2.233 4.41l.01.02M2.243 4.43l.01.037M2.252 4.467v.048M2.252 4.515l-.01.038M2.243 4.553l-.01.02M2.233 4.572l-.01.01M2.224 4.582l-.02.01M2.205 4.591h-.02M2.186 4.591l-.02-.01M2.167 4.582l-.01-.01M2.157 4.572l-.01-.019M2.148 4.553l-.01-.038M2.138 4.515v-.048M2.138 4.467l.01-.038M2.148 4.43l.01-.02M2.157 4.41l.01-.01M2.167 4.4l.019-.009"/></g><g class="stroked-text" transform="rotate(90 -.75 24.3)"><desc>C18</desc><path d="m4.572 2.129.01.01M4.582 2.138l.01.029M4.591 2.167v.019M4.591 2.186l-.01.028M4.582 2.214l-.02.02M4.563 2.233l-.02.01M4.544 2.243l-.038.01M4.506 2.252h-.03M4.477 2.252l-.038-.01M4.439 2.243l-.02-.01M4.42 2.233l-.02-.019M4.4 2.214l-.009-.028M4.391 2.186v-.02M4.391 2.167l.01-.029M4.4 2.138l.01-.01M4.591 1.938v.114M4.591 1.995h-.2M4.391 1.995l.029.02M4.42 2.014l.019.02M4.439 2.033l.01.02M4.477 1.824l-.01.019M4.467 1.843l-.01.01M4.458 1.852l-.02.01M4.439 1.862h-.01M4.43 1.862l-.02-.01M4.41 1.852l-.01-.01M4.4 1.843l-.009-.02M4.391 1.824v-.038M4.391 1.786l.01-.02M4.4 1.767l.01-.01M4.41 1.757l.02-.01M4.43 1.748h.009M4.439 1.748l.019.01M4.458 1.757l.01.01M4.467 1.767l.01.019M4.477 1.786v.038M4.477 1.824l.01.019M4.487 1.843l.009.01M4.496 1.852l.019.01M4.515 1.862h.038M4.553 1.862l.02-.01M4.572 1.852l.01-.01M4.582 1.843l.01-.02M4.591 1.824v-.038M4.591 1.786l-.01-.02M4.582 1.767l-.01-.01M4.572 1.757l-.019-.01M4.553 1.748h-.038M4.515 1.748l-.019.01M4.496 1.757l-.01.01M4.487 1.767l-.01.019"/></g></g><g style="fill:none;stroke:#000;stroke-width:.1;stroke-linecap:round;stroke-linejoin:round;stroke-opacity:1"><g class="stroked-text" transform="rotate(90 -.75 24.3)"><desc>J1</desc><path d="M-.435 15.507h.571M.136 15.507l.115.038M.25 15.545l.077.076M.327 15.621l.038.114M.365 15.735v.076M.365 14.707v.457M.365 14.935h-.8M-.435 14.935l.114.076M-.32 15.011l.075.077M-.245 15.088l.038.076"/></g><g class="stroked-text" transform="rotate(90 -.75 24.3)"><desc>J2</desc><path d="M-.435-14.973h.571M.136-14.973l.115.038M.25-14.935l.077.076M.327-14.859l.038.114M.365-14.745v.076M-.359-15.316l-.038-.038M-.397-15.354l-.038-.077M-.435-15.43v-.191M-.435-15.621l.038-.076M-.397-15.697l.038-.038M-.359-15.735l.076-.038M-.283-15.773h.076M-.206-15.773l.114.038M-.092-15.735l.457.457M.365-15.278v-.495"/></g></g><g style="fill:none;stroke:#000;stroke-width:.025;stroke-linecap:round;stroke-linejoin:round;stroke-opacity:1"><g class="stroked-text" transform="rotate(90 -.75 24.3)"><desc>C11</desc><path d="m-.129 3.572-.01.01M-.138 3.582l-.029.01M-.167 3.591h-.019M-.186 3.591l-.028-.01M-.214 3.582l-.02-.02M-.233 3.563l-.01-.02M-.243 3.544l-.01-.038M-.252 3.506v-.03M-.252 3.477l.01-.038M-.243 3.439l.01-.02M-.233 3.42l.019-.02M-.214 3.4l.028-.009M-.186 3.391h.02M-.167 3.391l.029.01M-.138 3.4l.01.01M.062 3.591h-.114M.005 3.591v-.2M.005 3.391l-.02.029M-.014 3.42l-.02.019M-.033 3.439l-.02.01M.252 3.591H.138M.195 3.591v-.2M.195 3.391l-.019.029M.176 3.42l-.019.019M.157 3.439l-.019.01"/></g><g class="stroked-text" transform="rotate(90 -.75 24.3)"><desc>R9</desc><path d="m-12.033-7.659-.067-.095M-12.148-7.659v-.2M-12.148-7.859h.077M-12.071-7.859l.019.01M-12.052-7.85l.01.01M-12.043-7.84l.01.02M-12.033-7.82v.028M-12.033-7.792l-.01.019M-12.043-7.773l-.01.01M-12.052-7.763l-.02.009M-12.071-7.754h-.077M-11.938-7.659h.038M-11.9-7.659l.019-.01M-11.881-7.668l.01-.01M-11.871-7.678l.019-.028M-11.852-7.706l.01-.038M-11.843-7.744v-.077M-11.843-7.82l-.01-.02M-11.852-7.84l-.01-.01M-11.862-7.85l-.019-.009M-11.881-7.859h-.038M-11.919-7.859l-.02.01M-11.938-7.85l-.01.01M-11.948-7.84l-.01.02M-11.957-7.82v.047M-11.957-7.773l.01.019M-11.948-7.754l.01.01M-11.938-7.744l.019.009M-11.919-7.735h.038M-11.881-7.735l.02-.01M-11.862-7.744l.01-.01M-11.852-7.754l.01-.02"/></g><g class="stroked-text" transform="rotate(90 -.75 24.3)"><desc>C23</desc><path d="m13.572-.871.01.01M13.582-.862l.01.029M13.591-.833v.019M13.591-.814l-.01.028M13.582-.786l-.02.02M13.563-.767l-.02.01M13.544-.757l-.039.01M13.506-.748h-.03M13.477-.748l-.038-.01M13.439-.757l-.02-.01M13.42-.767l-.02-.019M13.4-.786l-.009-.028M13.391-.814v-.02M13.391-.833l.01-.029M13.4-.862l.01-.01M13.41-.948l-.01-.01M13.4-.957l-.009-.02M13.391-.976v-.048M13.391-1.024l.01-.019M13.4-1.043l.01-.01M13.41-1.052l.02-.01M13.43-1.062h.018M13.448-1.062l.029.01M13.477-1.052l.114.114M13.591-.938v-.124M13.391-1.129v-.123M13.391-1.252l.076.066M13.467-1.186v-.028M13.467-1.214l.01-.02M13.477-1.233l.01-.01M13.487-1.243l.018-.01M13.506-1.252h.047M13.553-1.252l.02.01M13.572-1.243l.01.01M13.582-1.233l.01.019M13.591-1.214v.057M13.591-1.157l-.01.019M13.582-1.138l-.01.01"/></g><g class="stroked-text" transform="rotate(90 -.75 24.3)"><desc>R2</desc><path d="m12.967-2.409-.067-.095M12.852-2.409v-.2M12.852-2.609h.077M12.929-2.609l.019.01M12.948-2.6l.01.01M12.957-2.59l.01.02M12.967-2.57v.028M12.967-2.542l-.01.019M12.957-2.523l-.01.01M12.948-2.513l-.02.009M12.929-2.504h-.077M13.043-2.59l.01-.01M13.052-2.6l.02-.009M13.071-2.609h.048M13.119-2.609l.02.01M13.138-2.6l.01.01M13.148-2.59l.01.02M13.157-2.57v.018M13.157-2.552l-.01.029M13.148-2.523l-.115.114M13.033-2.409h.124"/></g><g class="stroked-text" transform="rotate(90 -.75 24.3)"><desc>C5</desc><path d="m-3.428-1.967.01.01M-3.418-1.957l.01.028M-3.409-1.929v.02M-3.409-1.91l-.01.029M-3.418-1.881l-.02.02M-3.437-1.862l-.02.01M-3.456-1.852l-.038.01M-3.494-1.843h-.03M-3.523-1.843l-.038-.01M-3.561-1.852l-.02-.01M-3.58-1.862l-.02-.019M-3.6-1.881l-.009-.028M-3.609-1.91v-.019M-3.609-1.929l.01-.028M-3.6-1.957l.01-.01M-3.609-2.148v.096M-3.609-2.052l.095.01M-3.513-2.043l-.01-.01M-3.523-2.052l-.01-.02M-3.533-2.071v-.048M-3.533-2.119l.01-.02M-3.523-2.138l.01-.01M-3.513-2.148l.018-.01M-3.494-2.157h.047M-3.447-2.157l.02.01M-3.428-2.148l.01.01M-3.418-2.138l.01.019M-3.409-2.119v.048M-3.409-2.071l-.01.019M-3.418-2.052l-.01.01"/></g></g><g style="fill:none;stroke:#000;stroke-width:.075;stroke-linecap:round;stroke-linejoin:round;stroke-opacity:1"><g class="stroked-text" transform="rotate(90 -.75 24.3)"><desc>U2</desc><path d="M9.326-4.457h-.485M8.84-4.457l-.056.028M8.784-4.429l-.03.029M8.755-4.4l-.029.057M8.726-4.343v.114M8.726-4.229l.029.058M8.755-4.171l.028.028M8.784-4.143l.057.029M8.84-4.114h.486M9.27-3.857l.028.028M9.298-3.829l.028.058M9.326-3.771v.142M9.326-3.629l-.028.058M9.298-3.571l-.029.028M9.27-3.543l-.058.029M9.212-3.514h-.057M9.155-3.514l-.086-.029M9.07-3.543l-.344-.343M8.726-3.886v.372"/></g></g><g style="fill:none;stroke:#000;stroke-width:.025;stroke-linecap:round;stroke-linejoin:round;stroke-opacity:1"><g class="stroked-text" transform="rotate(90 -.75 24.3)"><desc>C7</desc><path d="m-.033-3.428-.01.01M-.043-3.418l-.028.01M-.071-3.409h-.02M-.09-3.409l-.029-.01M-.119-3.418l-.02-.02M-.138-3.437l-.01-.02M-.148-3.456l-.01-.038M-.157-3.494v-.03M-.157-3.523l.01-.038M-.148-3.561l.01-.02M-.138-3.58l.019-.02M-.119-3.6l.029-.009M-.09-3.609h.019M-.071-3.609l.028.01M-.043-3.6l.01.01M.033-3.609h.134M.167-3.609l-.086.2"/></g><g class="stroked-text" transform="rotate(90 -.75 24.3)"><desc>C27</desc><path d="m-14.428 4.129.01.01M-14.418 4.138l.01.029M-14.409 4.167v.019M-14.409 4.186l-.01.028M-14.418 4.214l-.02.02M-14.437 4.233l-.02.01M-14.456 4.243l-.039.01M-14.494 4.252h-.03M-14.523 4.252l-.038-.01M-14.561 4.243l-.02-.01M-14.58 4.233l-.02-.019M-14.6 4.214l-.009-.028M-14.609 4.186v-.02M-14.609 4.167l.01-.029M-14.6 4.138l.01-.01M-14.59 4.052l-.01-.01M-14.6 4.043l-.009-.02M-14.609 4.024v-.048M-14.609 3.976l.01-.019M-14.6 3.957l.01-.01M-14.59 3.948l.02-.01M-14.57 3.938h.018M-14.552 3.938l.029.01M-14.523 3.948l.114.114M-14.409 4.062v-.124M-14.609 3.871v-.133M-14.609 3.738l.2.086"/></g><g class="stroked-text" transform="rotate(90 -.75 24.3)"><desc>C12</desc><path d="m-.129 4.572-.01.01M-.138 4.582l-.029.01M-.167 4.591h-.019M-.186 4.591l-.028-.01M-.214 4.582l-.02-.02M-.233 4.563l-.01-.02M-.243 4.544l-.01-.038M-.252 4.506v-.03M-.252 4.477l.01-.038M-.243 4.439l.01-.02M-.233 4.42l.019-.02M-.214 4.4l.028-.009M-.186 4.391h.02M-.167 4.391l.029.01M-.138 4.4l.01.01M.062 4.591h-.114M.005 4.591v-.2M.005 4.391l-.02.029M-.014 4.42l-.02.019M-.033 4.439l-.02.01M.138 4.41l.01-.01M.148 4.4l.019-.009M.167 4.391h.047M.214 4.391l.02.01M.233 4.4l.01.01M.243 4.41l.01.02M.252 4.43v.018M.252 4.448l-.01.029M.243 4.477l-.114.114M.129 4.591h.123"/></g><g class="stroked-text" transform="rotate(90 -.75 24.3)"><desc>C8</desc><path d="m-.033-4.428-.01.01M-.043-4.418l-.028.01M-.071-4.409h-.02M-.09-4.409l-.029-.01M-.119-4.418l-.02-.02M-.138-4.437l-.01-.02M-.148-4.456l-.01-.038M-.157-4.494v-.03M-.157-4.523l.01-.038M-.148-4.561l.01-.02M-.138-4.58l.019-.02M-.119-4.6l.029-.009M-.09-4.609h.019M-.071-4.609l.028.01M-.043-4.6l.01.01M.081-4.523l-.02-.01M.062-4.533l-.01-.01M.052-4.542l-.01-.02M.043-4.561v-.01M.043-4.57l.01-.02M.052-4.59l.01-.01M.062-4.6l.019-.009M.081-4.609h.038M.119-4.609l.02.01M.138-4.6l.01.01M.148-4.59l.01.02M.157-4.57v.009M.157-4.561l-.01.019M.148-4.542l-.01.01M.138-4.533l-.019.01M.119-4.523H.081M.081-4.523l-.02.01M.062-4.513l-.01.009M.052-4.504l-.01.019M.043-4.485v.038M.043-4.447l.01.02M.052-4.428l.01.01M.062-4.418l.019.01M.081-4.409h.038M.119-4.409l.02-.01M.138-4.418l.01-.01M.148-4.428l.01-.019M.157-4.447v-.038M.157-4.485l-.01-.019M.148-4.504l-.01-.01M.138-4.513l-.019-.01"/></g><g class="stroked-text" transform="rotate(90 -.75 24.3)"><desc>C16</desc><path d="m4.572-1.871.01.01M4.582-1.862l.01.029M4.591-1.833v.019M4.591-1.814l-.01.028M4.582-1.786l-.02.02M4.563-1.767l-.02.01M4.544-1.757l-.038.01M4.506-1.748h-.03M4.477-1.748l-.038-.01M4.439-1.757l-.02-.01M4.42-1.767l-.02-.019M4.4-1.786l-.009-.028M4.391-1.814v-.02M4.391-1.833l.01-.029M4.4-1.862l.01-.01M4.591-2.062v.114M4.591-2.005h-.2M4.391-2.005l.029.02M4.42-1.986l.019.02M4.439-1.967l.01.02M4.391-2.233v.038M4.391-2.195l.01.019M4.4-2.176l.01.01M4.41-2.167l.029.02M4.439-2.148l.038.01M4.477-2.138h.076M4.553-2.138l.02-.01M4.572-2.148l.01-.01M4.582-2.157l.01-.02M4.591-2.176v-.038M4.591-2.214l-.01-.02M4.582-2.233l-.01-.01M4.572-2.243l-.019-.01M4.553-2.252h-.048M4.506-2.252l-.02.01M4.487-2.243l-.01.01M4.477-2.233l-.01.019M4.467-2.214v.038M4.467-2.176l.01.019M4.477-2.157l.01.01M4.487-2.148l.019.01"/></g><g class="stroked-text" transform="rotate(90 -.75 24.3)"><desc>C1</desc><path d="m3.572.033.01.01M3.582.043l.01.028M3.591.071v.02M3.591.09l-.01.029M3.582.119l-.02.02M3.563.138l-.02.01M3.544.148l-.038.01M3.506.157h-.03M3.477.157l-.038-.01M3.439.148l-.02-.01M3.42.138 3.4.12M3.4.119 3.392.091M3.391.09V.072M3.391.071l.01-.028M3.4.043l.01-.01M3.591-.157v.114M3.591-.1h-.2M3.391-.1l.029.019M3.42-.081l.019.02M3.439-.062l.01.02"/></g><g class="stroked-text" transform="rotate(90 -.75 24.3)"><desc>C24</desc><path d="m12.572 3.629.01.01M12.582 3.638l.01.029M12.591 3.667v.019M12.591 3.686l-.01.028M12.582 3.714l-.02.02M12.563 3.733l-.02.01M12.544 3.743l-.039.01M12.506 3.752h-.03M12.477 3.752l-.038-.01M12.439 3.743l-.02-.01M12.42 3.733l-.02-.019M12.4 3.714l-.009-.028M12.391 3.686v-.02M12.391 3.667l.01-.029M12.4 3.638l.01-.01M12.41 3.552l-.01-.01M12.4 3.543l-.009-.02M12.391 3.524v-.048M12.391 3.476l.01-.019M12.4 3.457l.01-.01M12.41 3.448l.02-.01M12.43 3.438h.018M12.448 3.438l.029.01M12.477 3.448l.114.114M12.591 3.562v-.124M12.458 3.267h.133M12.382 3.314l.143.048M12.525 3.362v-.124"/></g></g><g class="stroked-text" style="fill:none;stroke:#000;stroke-width:.075;stroke-linecap:round;stroke-linejoin:round;stroke-opacity:1" transform="rotate(90 -.75 24.3)"><desc>U1</desc><path d="M-.457-.326v.485M-.457.16l.028.056M-.429.217-.4.245M-.4.245l.057.029M-.343.274h.114M-.229.274-.17.245M-.171.245l.028-.028M-.143.217l.029-.058M-.114.16v-.486M.486.274H.143M.314.274v-.6M.314-.326l-.057.085M.257-.24.2-.185M.2-.183l-.057.028"/></g><g style="fill:none;stroke:#000;stroke-width:.025;stroke-linecap:round;stroke-linejoin:round;stroke-opacity:1"><g class="stroked-text" transform="rotate(90 -.75 24.3)"><desc>R5</desc><path d="m12.967-4.409-.067-.095M12.852-4.409v-.2M12.852-4.609h.077M12.929-4.609l.019.01M12.948-4.6l.01.01M12.957-4.59l.01.02M12.967-4.57v.028M12.967-4.542l-.01.019M12.957-4.523l-.01.01M12.948-4.513l-.02.009M12.929-4.504h-.077M13.148-4.609h-.096M13.052-4.609l-.01.096M13.043-4.513l.01-.01M13.052-4.523l.02-.01M13.071-4.533h.048M13.119-4.533l.02.01M13.138-4.523l.01.01M13.148-4.513l.01.019M13.157-4.494v.047M13.157-4.447l-.01.02M13.148-4.428l-.01.01M13.138-4.418l-.019.01M13.119-4.409h-.048M13.071-4.409l-.019-.01M13.052-4.418l-.01-.01"/></g><g class="stroked-text" transform="rotate(90 -.75 24.3)"><desc>C28</desc><path d="m-8.928 4.129.01.01M-8.918 4.138l.01.029M-8.909 4.167v.019M-8.909 4.186l-.01.028M-8.918 4.214l-.02.02M-8.937 4.233l-.02.01M-8.956 4.243l-.039.01M-8.994 4.252h-.03M-9.023 4.252l-.038-.01M-9.061 4.243l-.02-.01M-9.08 4.233l-.02-.019M-9.1 4.214l-.009-.028M-9.109 4.186v-.02M-9.109 4.167l.01-.029M-9.1 4.138l.01-.01M-9.09 4.052l-.01-.01M-9.1 4.043l-.009-.02M-9.109 4.024v-.048M-9.109 3.976l.01-.019M-9.1 3.957l.01-.01M-9.09 3.948l.02-.01M-9.07 3.938h.018M-9.052 3.938l.029.01M-9.023 3.948l.114.114M-8.909 4.062v-.124M-9.023 3.824l-.01.019M-9.033 3.843l-.01.01M-9.042 3.852l-.02.01M-9.061 3.862h-.01M-9.07 3.862l-.02-.01M-9.09 3.852l-.01-.01M-9.1 3.843l-.009-.02M-9.109 3.824v-.038M-9.109 3.786l.01-.02M-9.1 3.767l.01-.01M-9.09 3.757l.02-.01M-9.07 3.748h.009M-9.061 3.748l.019.01M-9.042 3.757l.01.01M-9.033 3.767l.01.019M-9.023 3.786v.038M-9.023 3.824l.01.019M-9.013 3.843l.009.01M-9.004 3.852l.019.01M-8.985 3.862h.038M-8.947 3.862l.02-.01M-8.928 3.852l.01-.01M-8.918 3.843l.01-.02M-8.909 3.824v-.038M-8.909 3.786l-.01-.02M-8.918 3.767l-.01-.01M-8.928 3.757l-.019-.01M-8.947 3.748h-.038M-8.985 3.748l-.019.01M-9.004 3.757l-.01.01M-9.013 3.767l-.01.019"/></g><g class="stroked-text" transform="rotate(90 -.75 24.3)"><desc>C10</desc><path d="m1.871-4.428-.01.01M1.862-4.418l-.029.01M1.833-4.409h-.019M1.814-4.409l-.028-.01M1.786-4.418l-.02-.02M1.767-4.437l-.01-.02M1.757-4.456l-.01-.038M1.748-4.494v-.03M1.748-4.523l.01-.038M1.757-4.561l.01-.02M1.767-4.58l.019-.02M1.786-4.6l.028-.009M1.814-4.609h.02M1.833-4.609l.029.01M1.862-4.6l.01.01M2.062-4.409h-.114M2.005-4.409v-.2M2.005-4.609l-.02.029M1.986-4.58l-.02.019M1.967-4.561l-.02.01M2.186-4.609h.019M2.205-4.609l.019.01M2.224-4.6l.01.01M2.233-4.59l.01.02M2.243-4.57l.01.037M2.252-4.533v.048M2.252-4.485l-.01.038M2.243-4.447l-.01.02M2.233-4.428l-.01.01M2.224-4.418l-.02.01M2.205-4.409h-.02M2.186-4.409l-.02-.01M2.167-4.418l-.01-.01M2.157-4.428l-.01-.019M2.148-4.447l-.01-.038M2.138-4.485v-.048M2.138-4.533l.01-.038M2.148-4.57l.01-.02M2.157-4.59l.01-.01M2.167-4.6l.019-.009"/></g></g><g style="fill:none;stroke:#000;stroke-width:.1;stroke-linecap:round;stroke-linejoin:round;stroke-opacity:1"><g class="stroked-text" transform="rotate(90 -.75 24.3)"><desc>J5</desc><path d="M-20.6-.267h-.571M-21.171-.267l-.115-.038M-21.286-.305l-.076-.076M-21.362-.381l-.038-.114M-21.4-.495v-.076M-20.6.495v-.38M-20.6.114l-.38-.038M-20.98.076l.037.038M-20.943.114l.038.077M-20.905.19v.191M-20.905.381l-.038.076M-20.943.457l-.038.038M-20.98.495l-.077.038M-21.057.533h-.19M-21.247.533l-.077-.038M-21.324.495l-.038-.038M-21.362.457-21.4.381M-21.4.381v-.19M-21.4.19l.038-.076M-21.362.114l.038-.038"/></g></g><g style="fill:none;stroke:#000;stroke-width:.025;stroke-linecap:round;stroke-linejoin:round;stroke-opacity:1"><g class="stroked-text" transform="rotate(90 -.75 24.3)"><desc>R10</desc><path d="m-12.129-4.659-.066-.095M-12.243-4.659v-.2M-12.243-4.859h.076M-12.167-4.859l.02.01M-12.148-4.85l.01.01M-12.138-4.84l.01.02M-12.129-4.82v.028M-12.129-4.792l-.01.019M-12.138-4.773l-.01.01M-12.148-4.763l-.019.009M-12.167-4.754h-.076M-11.938-4.659h-.114M-11.995-4.659v-.2M-11.995-4.859l-.02.029M-12.014-4.83l-.02.019M-12.033-4.811l-.02.01M-11.814-4.859h.019M-11.795-4.859l.019.01M-11.776-4.85l.01.01M-11.767-4.84l.01.02M-11.757-4.82l.01.037M-11.748-4.783v.048M-11.748-4.735l-.01.038M-11.757-4.697l-.01.02M-11.767-4.678l-.01.01M-11.776-4.668l-.02.01M-11.795-4.659h-.02M-11.814-4.659l-.02-.01M-11.833-4.668l-.01-.01M-11.843-4.678l-.01-.019M-11.852-4.697l-.01-.038M-11.862-4.735v-.048M-11.862-4.783l.01-.038M-11.852-4.82l.01-.02M-11.843-4.84l.01-.01M-11.833-4.85l.019-.009"/></g><g class="stroked-text" transform="rotate(90 -.75 24.3)"><desc>C22</desc><path d="m12.572-.871.01.01M12.582-.862l.01.029M12.591-.833v.019M12.591-.814l-.01.028M12.582-.786l-.02.02M12.563-.767l-.02.01M12.544-.757l-.039.01M12.506-.748h-.03M12.477-.748l-.038-.01M12.439-.757l-.02-.01M12.42-.767l-.02-.019M12.4-.786l-.009-.028M12.391-.814v-.02M12.391-.833l.01-.029M12.4-.862l.01-.01M12.41-.948l-.01-.01M12.4-.957l-.009-.02M12.391-.976v-.048M12.391-1.024l.01-.019M12.4-1.043l.01-.01M12.41-1.052l.02-.01M12.43-1.062h.018M12.448-1.062l.029.01M12.477-1.052l.114.114M12.591-.938v-.124M12.41-1.138l-.01-.01M12.4-1.148l-.009-.019M12.391-1.167v-.047M12.391-1.214l.01-.02M12.4-1.233l.01-.01M12.41-1.243l.02-.01M12.43-1.252h.018M12.448-1.252l.029.01M12.477-1.243l.114.114M12.591-1.129v-.123"/></g><g class="stroked-text" transform="rotate(90 -.75 24.3)"><desc>C26</desc><path d="m-8.928.129.01.01M-8.918.138l.01.029M-8.909.167v.019M-8.909.186l-.01.028M-8.918.214l-.02.02M-8.937.233l-.02.01M-8.956.243l-.039.01M-8.994.252h-.03M-9.023.252l-.038-.01M-9.061.243l-.02-.01M-9.08.233-9.1.214M-9.1.214l-.009-.028M-9.109.186v-.02M-9.109.167l.01-.029M-9.1.138l.01-.01M-9.09.052l-.01-.01M-9.1.043l-.009-.02M-9.109.024v-.048M-9.109-.024l.01-.019M-9.1-.043l.01-.01M-9.09-.052l.02-.01M-9.07-.062h.018M-9.052-.062l.029.01M-9.023-.052l.114.114M-8.909.062v-.124M-9.109-.233v.038M-9.109-.195l.01.019M-9.1-.176l.01.01M-9.09-.167l.029.02M-9.061-.148l.038.01M-9.023-.138h.076M-8.947-.138l.02-.01M-8.928-.148l.01-.01M-8.918-.157l.01-.02M-8.909-.176v-.038M-8.909-.214l-.01-.02M-8.918-.233l-.01-.01M-8.928-.243l-.019-.01M-8.947-.252h-.048M-8.994-.252l-.02.01M-9.013-.243l-.01.01M-9.023-.233l-.01.019M-9.033-.214v.038M-9.033-.176l.01.019M-9.023-.157l.01.01M-9.013-.148l.018.01"/></g><g class="stroked-text" transform="rotate(90 -.75 24.3)"><desc>C6</desc><path d="m-4.428-1.967.01.01M-4.418-1.957l.01.028M-4.409-1.929v.02M-4.409-1.91l-.01.029M-4.418-1.881l-.02.02M-4.437-1.862l-.02.01M-4.456-1.852l-.038.01M-4.494-1.843h-.03M-4.523-1.843l-.038-.01M-4.561-1.852l-.02-.01M-4.58-1.862l-.02-.019M-4.6-1.881l-.009-.028M-4.609-1.91v-.019M-4.609-1.929l.01-.028M-4.6-1.957l.01-.01M-4.609-2.138v.038M-4.609-2.1l.01.019M-4.6-2.081l.01.01M-4.59-2.071l.029.019M-4.561-2.052l.038.01M-4.523-2.043h.076M-4.447-2.043l.02-.01M-4.428-2.052l.01-.01M-4.418-2.062l.01-.019M-4.409-2.081v-.038M-4.409-2.119l-.01-.02M-4.418-2.138l-.01-.01M-4.428-2.148l-.019-.01M-4.447-2.157h-.048M-4.494-2.157l-.02.01M-4.513-2.148l-.01.01M-4.523-2.138l-.01.019M-4.533-2.119v.038M-4.533-2.081l.01.02M-4.523-2.062l.01.01M-4.513-2.052l.019.01"/></g><g class="stroked-text" transform="rotate(90 -.75 24.3)"><desc>R7</desc><path d="m-15.409-.967-.095.067M-15.409-.852h-.2M-15.609-.852V-.93M-15.609-.929l.01-.019M-15.6-.948l.01-.01M-15.59-.957l.02-.01M-15.57-.967h.028M-15.542-.967l.019.01M-15.523-.957l.01.01M-15.513-.948l.009.02M-15.504-.929v.077M-15.609-1.033v-.134M-15.609-1.167l.2.086"/></g><g class="stroked-text" transform="rotate(90 -.75 24.3)"><desc>R4</desc><path d="m12.967-3.409-.067-.095M12.852-3.409v-.2M12.852-3.609h.077M12.929-3.609l.019.01M12.948-3.6l.01.01M12.957-3.59l.01.02M12.967-3.57v.028M12.967-3.542l-.01.019M12.957-3.523l-.01.01M12.948-3.513l-.02.009M12.929-3.504h-.077M13.138-3.542v.133M13.09-3.618l-.047.143M13.043-3.475h.124"/></g><g class="stroked-text" transform="rotate(90 -.75 24.3)"><desc>R8</desc><path d="m-15.409 1.033-.095.067M-15.409 1.148h-.2M-15.609 1.148V1.07M-15.609 1.071l.01-.019M-15.6 1.052l.01-.01M-15.59 1.043l.02-.01M-15.57 1.033h.028M-15.542 1.033l.019.01M-15.523 1.043l.01.01M-15.513 1.052l.009.02M-15.504 1.071v.077M-15.523.919l-.01.02M-15.533.938l-.01.01M-15.542.948l-.02.01M-15.561.957h-.01M-15.57.957l-.02-.01M-15.59.948l-.01-.01M-15.6.938l-.009-.019M-15.609.919V.881M-15.609.881l.01-.02M-15.6.862l.01-.01M-15.59.852l.02-.01M-15.57.843h.009M-15.561.843l.019.01M-15.542.852l.01.01M-15.533.862l.01.019M-15.523.881v.038M-15.523.919l.01.02M-15.513.938l.009.01M-15.504.948l.019.01M-15.485.957h.038M-15.447.957l.02-.01M-15.428.948l.01-.01M-15.418.938l.01-.019M-15.409.919V.881M-15.409.881l-.01-.02M-15.418.862l-.01-.01M-15.428.852l-.019-.01M-15.447.843h-.038M-15.485.843l-.019.01M-15.504.852l-.01.01M-15.513.862l-.01.019"/></g><g class="stroked-text" transform="rotate(90 -.75 24.3)"><desc>C25</desc><path d="m-14.428.129.01.01M-14.418.138l.01.029M-14.409.167v.019M-14.409.186l-.01.028M-14.418.214l-.02.02M-14.437.233l-.02.01M-14.456.243l-.039.01M-14.494.252h-.03M-14.523.252l-.038-.01M-14.561.243l-.02-.01M-14.58.233l-.02-.019M-14.6.214l-.009-.028M-14.609.186v-.02M-14.609.167l.01-.029M-14.6.138l.01-.01M-14.59.052l-.01-.01M-14.6.043l-.009-.02M-14.609.024v-.048M-14.609-.024l.01-.019M-14.6-.043l.01-.01M-14.59-.052l.02-.01M-14.57-.062h.018M-14.552-.062l.029.01M-14.523-.052l.114.114M-14.409.062v-.124M-14.609-.243v.095M-14.609-.148l.095.01M-14.513-.138l-.01-.01M-14.523-.148l-.01-.019M-14.533-.167v-.047M-14.533-.214l.01-.02M-14.523-.233l.01-.01M-14.513-.243l.018-.01M-14.494-.252h.047M-14.447-.252l.02.01M-14.428-.243l.01.01M-14.418-.233l.01.019M-14.409-.214v.047M-14.409-.167l-.01.02M-14.418-.148l-.01.01"/></g></g><g class="stroked-text" style="fill:none;stroke:#000;stroke-width:.075;stroke-linecap:round;stroke-linejoin:round;stroke-opacity:1" transform="rotate(90 -.75 24.3)"><desc>U3</desc><path d="M9.043 2.174v.485M9.043 2.66l.028.056M9.071 2.717l.029.028M9.1 2.745l.057.029M9.157 2.774h.114M9.271 2.774l.058-.029M9.329 2.745l.028-.029M9.357 2.717l.029-.058M9.386 2.66v-.486M9.614 2.174h.372M9.986 2.174l-.2.228M9.786 2.402h.085M9.871 2.402l.058.029M9.929 2.43l.028.03M9.957 2.46l.029.057M9.986 2.517v.142M9.986 2.66l-.029.056M9.957 2.717l-.028.028M9.929 2.745l-.058.029M9.871 2.774H9.7M9.7 2.774l-.057-.029M9.643 2.745l-.029-.029"/></g><g style="fill:none;stroke:#000;stroke-width:.025;stroke-linecap:round;stroke-linejoin:round;stroke-opacity:1"><g class="stroked-text" transform="rotate(90 -.75 24.3)"><desc>C21</desc><path d="m-4.428-3.871.01.01M-4.418-3.862l.01.029M-4.409-3.833v.019M-4.409-3.814l-.01.028M-4.418-3.786l-.02.02M-4.437-3.767l-.02.01M-4.456-3.757l-.038.01M-4.494-3.748h-.03M-4.523-3.748l-.038-.01M-4.561-3.757l-.02-.01M-4.58-3.767l-.02-.019M-4.6-3.786l-.009-.028M-4.609-3.814v-.02M-4.609-3.833l.01-.029M-4.6-3.862l.01-.01M-4.59-3.948l-.01-.01M-4.6-3.957l-.009-.02M-4.609-3.976v-.048M-4.609-4.024l.01-.019M-4.6-4.043l.01-.01M-4.59-4.052l.02-.01M-4.57-4.062h.018M-4.552-4.062l.029.01M-4.523-4.052l.114.114M-4.409-3.938v-.124M-4.409-4.252v.114M-4.409-4.195h-.2M-4.609-4.195l.029.019M-4.58-4.176l.019.019M-4.561-4.157l.01.019"/></g></g><g style="fill:none;stroke:#000;stroke-width:.025;stroke-linecap:round;stroke-linejoin:round;stroke-opacity:1"><g class="stroked-text" transform="rotate(90 -.75 24.3)"><desc>C13</desc><path d="m-2.129 3.572-.01.01M-2.138 3.582l-.029.01M-2.167 3.591h-.019M-2.186 3.591l-.028-.01M-2.214 3.582l-.02-.02M-2.233 3.563l-.01-.02M-2.243 3.544l-.01-.038M-2.252 3.506v-.03M-2.252 3.477l.01-.038M-2.243 3.439l.01-.02M-2.233 3.42l.019-.02M-2.214 3.4l.028-.009M-2.186 3.391h.02M-2.167 3.391l.029.01M-2.138 3.4l.01.01M-1.938 3.591h-.114M-1.995 3.591v-.2M-1.995 3.391l-.02.029M-2.014 3.42l-.02.019M-2.033 3.439l-.02.01M-1.871 3.391h.123M-1.748 3.391l-.066.076M-1.814 3.467h.028M-1.786 3.467l.02.01M-1.767 3.477l.01.01M-1.757 3.487l.01.018M-1.748 3.506v.047M-1.748 3.553l-.01.02M-1.757 3.572l-.01.01M-1.767 3.582l-.019.01M-1.786 3.591h-.057M-1.843 3.591l-.019-.01M-1.862 3.582l-.01-.01"/></g><g class="stroked-text" transform="rotate(90 -.75 24.3)"><desc>D2</desc><path d="M-11.909-3.352h-.2M-12.109-3.352V-3.4M-12.109-3.4l.01-.029M-12.1-3.429l.02-.019M-12.08-3.448l.019-.01M-12.061-3.457l.038-.01M-12.023-3.467h.029M-11.994-3.467l.038.01M-11.956-3.457l.019.01M-11.937-3.448l.019.02M-11.918-3.429l.01.029M-11.909-3.4v.048M-12.09-3.543l-.01-.01M-12.1-3.552l-.009-.02M-12.109-3.571v-.048M-12.109-3.619l.01-.02M-12.1-3.638l.01-.01M-12.09-3.648l.02-.01M-12.07-3.657h.018M-12.052-3.657l.029.01M-12.023-3.648l.114.115M-11.909-3.533v-.124"/></g></g><g style="fill:none;stroke:#000;stroke-width:.0375;stroke-linecap:round;stroke-linejoin:round;stroke-opacity:1"><g class="stroked-text" transform="rotate(90 -.75 24.3)"><desc>Y1</desc><path d="M-2.744-4.143h-.143M-2.587-4.243l-.157.1M-2.744-4.143l.157.1M-2.887-3.786v-.171M-2.887-3.871h.3M-2.587-3.871-2.63-3.9M-2.63-3.9l-.028-.029M-2.658-3.929l-.014-.028"/></g></g><g style="fill:none;stroke:#000;stroke-width:.025;stroke-linecap:round;stroke-linejoin:round;stroke-opacity:1"><g class="stroked-text" transform="rotate(90 -.75 24.3)"><desc>C14</desc><path d="m-2.129 4.572-.01.01M-2.138 4.582l-.029.01M-2.167 4.591h-.019M-2.186 4.591l-.028-.01M-2.214 4.582l-.02-.02M-2.233 4.563l-.01-.02M-2.243 4.544l-.01-.038M-2.252 4.506v-.03M-2.252 4.477l.01-.038M-2.243 4.439l.01-.02M-2.233 4.42l.019-.02M-2.214 4.4l.028-.009M-2.186 4.391h.02M-2.167 4.391l.029.01M-2.138 4.4l.01.01M-1.938 4.591h-.114M-1.995 4.591v-.2M-1.995 4.391l-.02.029M-2.014 4.42l-.02.019M-2.033 4.439l-.02.01M-1.767 4.458v.133M-1.814 4.382l-.048.143M-1.862 4.525h.124"/></g><g class="stroked-text" transform="rotate(90 -.75 24.3)"><desc>C9</desc><path d="m1.967-3.428-.01.01M1.957-3.418l-.028.01M1.929-3.409h-.02M1.91-3.409l-.029-.01M1.881-3.418l-.02-.02M1.862-3.437l-.01-.02M1.852-3.456l-.01-.038M1.843-3.494v-.03M1.843-3.523l.01-.038M1.852-3.561l.01-.02M1.862-3.58l.019-.02M1.881-3.6l.028-.009M1.91-3.609h.019M1.929-3.609l.028.01M1.957-3.6l.01.01M2.062-3.409H2.1M2.1-3.409l.019-.01M2.119-3.418l.01-.01M2.129-3.428l.019-.028M2.148-3.456l.01-.038M2.157-3.494v-.077M2.157-3.57l-.01-.02M2.148-3.59l-.01-.01M2.138-3.6l-.019-.009M2.119-3.609h-.038M2.081-3.609l-.02.01M2.062-3.6l-.01.01M2.052-3.59l-.01.02M2.043-3.57v.047M2.043-3.523l.01.019M2.052-3.504l.01.01M2.062-3.494l.019.009M2.081-3.485h.038M2.119-3.485l.02-.01M2.138-3.494l.01-.01M2.148-3.504l.01-.02"/></g><g class="stroked-text" transform="rotate(90 -.75 24.3)"><desc>C4</desc><path d="m-4.428.033.01.01M-4.418.043l.01.028M-4.409.071v.02M-4.409.09l-.01.029M-4.418.119l-.02.02M-4.437.138l-.02.01M-4.456.148l-.038.01M-4.494.157h-.03M-4.523.157l-.038-.01M-4.561.148l-.02-.01M-4.58.138-4.6.12M-4.6.119l-.009-.028M-4.609.09V.072M-4.609.071l.01-.028M-4.6.043l.01-.01M-4.542-.138h.133M-4.618-.09l.143.047M-4.475-.043v-.124"/></g><g class="stroked-text" transform="rotate(90 -.75 24.3)"><desc>C15</desc><path d="m3.572-1.871.01.01M3.582-1.862l.01.029M3.591-1.833v.019M3.591-1.814l-.01.028M3.582-1.786l-.02.02M3.563-1.767l-.02.01M3.544-1.757l-.038.01M3.506-1.748h-.03M3.477-1.748l-.038-.01M3.439-1.757l-.02-.01M3.42-1.767l-.02-.019M3.4-1.786l-.009-.028M3.391-1.814v-.02M3.391-1.833l.01-.029M3.4-1.862l.01-.01M3.591-2.062v.114M3.591-2.005h-.2M3.391-2.005l.029.02M3.42-1.986l.019.02M3.439-1.967l.01.02M3.391-2.243v.095M3.391-2.148l.095.01M3.487-2.138l-.01-.01M3.477-2.148l-.01-.019M3.467-2.167v-.047M3.467-2.214l.01-.02M3.477-2.233l.01-.01M3.487-2.243l.018-.01M3.506-2.252h.047M3.553-2.252l.02.01M3.572-2.243l.01.01M3.582-2.233l.01.019M3.591-2.214v.047M3.591-2.167l-.01.02M3.582-2.148l-.01.01"/></g></g><g style="fill:none;stroke:#000;stroke-width:.0625;stroke-linecap:round;stroke-linejoin:round;stroke-opacity:1"><g class="stroked-text" transform="rotate(90 -.75 24.3)"><desc>U6</desc><path d="M-6.522 4.881h.405M-6.117 4.881l.047-.024M-6.07 4.857l.024-.024M-6.046 4.833l.024-.047M-6.022 4.786V4.69M-6.022 4.69l-.024-.047M-6.046 4.643l-.024-.024M-6.07 4.619l-.047-.024M-6.117 4.595h-.405M-6.522 4.143v.095M-6.522 4.238l.024.048M-6.498 4.286l.024.024M-6.474 4.31l.071.047M-6.403 4.357l.095.024M-6.308 4.381h.19M-6.117 4.381l.047-.024M-6.07 4.357l.024-.024M-6.046 4.333l.024-.047M-6.022 4.286V4.19M-6.022 4.19l-.024-.047M-6.046 4.143l-.024-.024M-6.07 4.119l-.047-.024M-6.117 4.095h-.12M-6.236 4.095l-.048.024M-6.284 4.119l-.024.024M-6.308 4.143l-.024.048M-6.331 4.19v.096M-6.331 4.286l.023.047M-6.308 4.333l.024.024M-6.284 4.357l.048.024"/></g></g><g style="fill:none;stroke:#000;stroke-width:.025;stroke-linecap:round;stroke-linejoin:round;stroke-opacity:1"><g class="stroked-text" transform="rotate(90 -.75 24.3)"><desc>C3</desc><path d="m-3.428.033.01.01M-3.418.043l.01.028M-3.409.071v.02M-3.409.09l-.01.029M-3.418.119l-.02.02M-3.437.138l-.02.01M-3.456.148l-.038.01M-3.494.157h-.03M-3.523.157l-.038-.01M-3.561.148l-.02-.01M-3.58.138-3.6.12M-3.6.119l-.009-.028M-3.609.09V.072M-3.609.071l.01-.028M-3.6.043l.01-.01M-3.609-.033v-.124M-3.609-.157l.076.067M-3.533-.09V-.12M-3.533-.119l.01-.02M-3.523-.138l.01-.01M-3.513-.148l.018-.01M-3.494-.157h.047M-3.447-.157l.02.01M-3.428-.148l.01.01M-3.418-.138l.01.019M-3.409-.119v.057M-3.409-.062l-.01.02M-3.418-.043l-.01.01"/></g><g class="stroked-text" transform="rotate(90 -.75 24.3)"><desc>R1</desc><path d="m3.591 4.033-.095.067M3.591 4.148h-.2M3.391 4.148V4.07M3.391 4.071l.01-.019M3.4 4.052l.01-.01M3.41 4.043l.02-.01M3.43 4.033h.028M3.458 4.033l.019.01M3.477 4.043l.01.01M3.487 4.052l.009.02M3.496 4.071v.077M3.591 3.843v.114M3.591 3.9h-.2M3.391 3.9l.029.019M3.42 3.919l.019.02M3.439 3.938l.01.02"/></g><g class="stroked-text" transform="rotate(90 -.75 24.3)"><desc>R3</desc><path d="m12.967-5.409-.067-.095M12.852-5.409v-.2M12.852-5.609h.077M12.929-5.609l.019.01M12.948-5.6l.01.01M12.957-5.59l.01.02M12.967-5.57v.028M12.967-5.542l-.01.019M12.957-5.523l-.01.01M12.948-5.513l-.02.009M12.929-5.504h-.077M13.033-5.609h.124M13.157-5.609l-.067.076M13.09-5.533h.029M13.119-5.533l.02.01M13.138-5.523l.01.01M13.148-5.513l.01.019M13.157-5.494v.047M13.157-5.447l-.01.02M13.148-5.428l-.01.01M13.138-5.418l-.019.01M13.119-5.409h-.057M13.062-5.409l-.02-.01M13.043-5.418l-.01-.01"/></g><g class="stroked-text" transform="rotate(90 -.75 24.3)"><desc>C19</desc><path d="m1.871 3.572-.01.01M1.862 3.582l-.029.01M1.833 3.591h-.019M1.814 3.591l-.028-.01M1.786 3.582l-.02-.02M1.767 3.563l-.01-.02M1.757 3.544l-.01-.038M1.748 3.506v-.03M1.748 3.477l.01-.038M1.757 3.439l.01-.02M1.767 3.42l.019-.02M1.786 3.4l.028-.009M1.814 3.391h.02M1.833 3.391l.029.01M1.862 3.4l.01.01M2.062 3.591h-.114M2.005 3.591v-.2M2.005 3.391l-.02.029M1.986 3.42l-.02.019M1.967 3.439l-.02.01M2.157 3.591h.038M2.195 3.591l.02-.01M2.214 3.582l.01-.01M2.224 3.572l.019-.028M2.243 3.544l.01-.038M2.252 3.506v-.077M2.252 3.43l-.01-.02M2.243 3.41l-.01-.01M2.233 3.4l-.019-.009M2.214 3.391h-.038M2.176 3.391l-.019.01M2.157 3.4l-.01.01M2.148 3.41l-.01.02M2.138 3.43v.047M2.138 3.477l.01.019M2.148 3.496l.01.01M2.157 3.506l.02.009M2.176 3.515h.038M2.214 3.515l.02-.01M2.233 3.506l.01-.01M2.243 3.496l.01-.02"/></g></g><g style="fill:none;stroke:#000;stroke-width:.0625;stroke-linecap:round;stroke-linejoin:round;stroke-opacity:1"><g class="stroked-text" transform="rotate(90 -.75 24.3)"><desc>U4</desc><path d="M-12.022.881h.405M-11.617.881l.047-.024M-11.57.857l.024-.024M-11.546.833l.024-.047M-11.522.786V.69M-11.522.69l-.024-.047M-11.546.643l-.024-.024M-11.57.619l-.047-.024M-11.617.595h-.405M-11.855.143h.333M-12.046.262l.357.119M-11.689.381v-.31"/></g><g class="stroked-text" transform="rotate(90 -.75 24.3)"><desc>U5</desc><path d="M-12.022 4.881h.405M-11.617 4.881l.047-.024M-11.57 4.857l.024-.024M-11.546 4.833l.024-.047M-11.522 4.786V4.69M-11.522 4.69l-.024-.047M-11.546 4.643l-.024-.024M-11.57 4.619l-.047-.024M-11.617 4.595h-.405M-12.022 4.119v.238M-12.022 4.357l.238.024M-11.784 4.381l-.024-.024M-11.808 4.357l-.024-.048M-11.831 4.31v-.12M-11.831 4.19l.023-.047M-11.808 4.143l.024-.024M-11.784 4.119l.048-.024M-11.736 4.095h.119M-11.617 4.095l.047.024M-11.57 4.119l.024.024M-11.546 4.143l.024.048M-11.522 4.19v.12M-11.522 4.31l-.024.047M-11.546 4.357l-.024.024"/></g></g><g style="fill:none;stroke:#000;stroke-width:.025;stroke-linecap:round;stroke-linejoin:round;stroke-opacity:1"><g class="stroked-text" transform="rotate(90 -.75 24.3)"><desc>C17</desc><path d="m3.572 2.129.01.01M3.582 2.138l.01.029M3.591 2.167v.019M3.591 2.186l-.01.028M3.582 2.214l-.02.02M3.563 2.233l-.02.01M3.544 2.243l-.038.01M3.506 2.252h-.03M3.477 2.252l-.038-.01M3.439 2.243l-.02-.01M3.42 2.233l-.02-.019M3.4 2.214l-.009-.028M3.391 2.186v-.02M3.391 2.167l.01-.029M3.4 2.138l.01-.01M3.591 1.938v.114M3.591 1.995h-.2M3.391 1.995l.029.02M3.42 2.014l.019.02M3.439 2.033l.01.02M3.391 1.871v-.133M3.391 1.738l.2.086"/></g><g class="stroked-text" transform="rotate(90 -.75 24.3)"><desc>D1</desc><path d="M-11.909-6.352h-.2M-12.109-6.352V-6.4M-12.109-6.4l.01-.029M-12.1-6.429l.02-.019M-12.08-6.448l.019-.01M-12.061-6.457l.038-.01M-12.023-6.467h.029M-11.994-6.467l.038.01M-11.956-6.457l.019.01M-11.937-6.448l.019.02M-11.918-6.429l.01.029M-11.909-6.4v.048M-11.909-6.657v.114M-11.909-6.6h-.2M-12.109-6.6l.029.019M-12.08-6.581l.019.02M-12.061-6.562l.01.02"/></g><g class="stroked-text" transform="rotate(90 -.75 24.3)"><desc>R6</desc><path d="m12.967 2.091-.067-.095M12.852 2.091v-.2M12.852 1.891h.077M12.929 1.891l.019.01M12.948 1.9l.01.01M12.957 1.91l.01.02M12.967 1.93v.028M12.967 1.958l-.01.019M12.957 1.977l-.01.01M12.948 1.987l-.02.009M12.929 1.996h-.077M13.138 1.891H13.1M13.1 1.891l-.019.01M13.081 1.9l-.01.01M13.071 1.91l-.019.029M13.052 1.939l-.01.038M13.043 1.977v.076M13.043 2.053l.01.02M13.052 2.072l.01.01M13.062 2.082l.019.01M13.081 2.091h.038M13.119 2.091l.02-.01M13.138 2.082l.01-.01M13.148 2.072l.01-.019M13.157 2.053v-.047M13.157 2.006l-.01-.02M13.148 1.987l-.01-.01M13.138 1.977l-.019-.01M13.119 1.967h-.038M13.081 1.967l-.02.01M13.062 1.977l-.01.01M13.052 1.987l-.01.018"/></g></g><g class="stroked-text" style="fill:none;stroke:#000;stroke-width:.1;stroke-linecap:round;stroke-linejoin:round;stroke-opacity:1" transform="rotate(90 -.75 24.3)"><desc>J4</desc><path d="M-21.39-7.353h.571M-20.819-7.353l.115.038M-20.704-7.315l.076.076M-20.628-7.239l.038.114M-20.59-7.125v.076M-21.123-8.077h.533M-21.428-7.887l.571.19M-20.857-7.696v-.495"/></g><g class="stroked-text" style="fill:none;stroke:#000;stroke-width:.1;stroke-linecap:round;stroke-linejoin:round;stroke-opacity:1" transform="rotate(90 -.75 24.3)"><desc>J3</desc><path d="M16.075.267h.571M16.646.267l.115.038M16.76.305l.077.076M16.837.381l.038.114M16.875.495v.076M16.075-.038v-.495M16.075-.533l.305.266M16.38-.267V-.38M16.38-.381l.038-.076M16.418-.457l.038-.038M16.456-.495l.076-.038M16.532-.533h.19M16.723-.533l.076.038M16.799-.495l.038.038M16.837-.457l.038.076M16.875-.381v.229M16.875-.152l-.038.076M16.837-.076l-.038.038"/></g><g style="fill:none;stroke:#000;stroke-width:.025;stroke-linecap:round;stroke-linejoin:round;stroke-opacity:1"><g class="stroked-text" transform="rotate(90 -.75 24.3)"><desc>C29</desc><path d="m-3.428 4.129.01.01M-3.418 4.138l.01.029M-3.409 4.167v.019M-3.409 4.186l-.01.028M-3.418 4.214l-.02.02M-3.437 4.233l-.02.01M-3.456 4.243l-.038.01M-3.494 4.252h-.03M-3.523 4.252l-.038-.01M-3.561 4.243l-.02-.01M-3.58 4.233l-.02-.019M-3.6 4.214l-.009-.028M-3.609 4.186v-.02M-3.609 4.167l.01-.029M-3.6 4.138l.01-.01M-3.59 4.052l-.01-.01M-3.6 4.043l-.009-.02M-3.609 4.024v-.048M-3.609 3.976l.01-.019M-3.6 3.957l.01-.01M-3.59 3.948l.02-.01M-3.57 3.938h.018M-3.552 3.938l.029.01M-3.523 3.948l.114.114M-3.409 4.062v-.124M-3.409 3.843v-.038M-3.409 3.805l-.01-.02M-3.418 3.786l-.01-.01M-3.428 3.776l-.028-.019M-3.456 3.757l-.038-.01M-3.494 3.748h-.077M-3.57 3.748l-.02.01M-3.59 3.757l-.01.01M-3.6 3.767l-.009.019M-3.609 3.786v.038M-3.609 3.824l.01.019M-3.6 3.843l.01.01M-3.59 3.852l.02.01M-3.57 3.862h.047M-3.523 3.862l.019-.01M-3.504 3.852l.01-.01M-3.494 3.843l.009-.02M-3.485 3.824v-.038M-3.485 3.786l-.01-.02M-3.494 3.767l-.01-.01M-3.504 3.757l-.02-.01"/></g><g class="stroked-text" transform="rotate(90 -.75 24.3)"><desc>C2</desc><path d="m4.572.033.01.01M4.582.043l.01.028M4.591.071v.02M4.591.09l-.01.029M4.582.119l-.02.02M4.563.138l-.02.01M4.544.148l-.038.01M4.506.157h-.03M4.477.157l-.038-.01M4.439.148l-.02-.01M4.42.138 4.4.12M4.4.119 4.392.091M4.391.09V.072M4.391.071l.01-.028M4.4.043l.01-.01M4.41-.043l-.01-.01M4.4-.052l-.009-.02M4.391-.071V-.12M4.391-.119l.01-.02M4.4-.138l.01-.01M4.41-.148l.02-.01M4.43-.157h.018M4.448-.157l.029.01M4.477-.148l.114.115M4.591-.033v-.124"/></g></g><g style="fill:none;stroke:#000;stroke-width:.1;stroke-linecap:round;stroke-linejoin:round;stroke-opacity:1"><path d="M19.3 26.55v1M18.8 26.55h.5M19.3 27.55h-.5M18.8 27.55v-1M22.05 29.3v.5M21.05 29.3h1M22.05 29.8h-1M21.05 29.8v-.5M10.81 7.27v35.56M6.81 7.27h4M5.81 8.27l1-1M10.81 42.83h-5M5.81 42.83V8.27M41.29 7.27v35.56M37.29 7.27h4M36.29 8.27l1-1M41.29 42.83h-5M36.29 42.83V8.27M20.3 24.55v1M19.8 24.55h.5M20.3 25.55h-.5M19.8 25.55v-1M31.55 12.55v1M31.05 12.55h.5M31.55 13.55h-.5M31.05 13.55v-1M25.05 38.3v.5M24.05 38.3h1M25.05 38.8h-1M24.05 38.8v-.5M26.3 37.55v1M25.8 37.55h.5M26.3 38.55h-.5M25.8 38.55v-1M26.05 21.3v.5M25.05 21.3h1M26.05 21.8h-1M25.05 21.8v-.5M29.55 31.55h-4M29.55 35.55v-4M29.55 35.55l-1 1M28.55 36.55h-3M25.55 36.55v-5M27.3 24.55v1M26.8 24.55h.5M27.3 25.55h-.5M26.8 25.55v-1M20.05 10.3v.5M19.05 10.3h1M20.05 10.8h-1M19.05 10.8v-.5M19.3 24.55v1M18.8 24.55h.5M19.3 25.55h-.5M18.8 25.55v-1M28.3 24.55v1M27.8 24.55h.5M28.3 25.55h-.5M27.8 25.55v-1M26.05 29.3v.5M25.05 29.3h1M26.05 29.8h-1M25.05 29.8v-.5M24.05 28.3v.5M23.05 28.3h1M24.05 28.8h-1M23.05 28.8v-.5M20.55 37.3v.5M19.55 37.3h1M20.55 37.8h-1M19.55 37.8v-.5M25.05 23.05l.5.5M21.55 23.05h3.5M25.55 23.55v3.5M25.55 27.05h-4M21.55 27.05v-4M28.3 37.55v1M27.8 37.55h.5M28.3 38.55h-.5M27.8 38.55v-1M20.05 15.8v.5M19.05 15.8h1M20.05 16.3h-1M19.05 16.3v-.5M28.3 26.55v1M27.8 26.55h.5M28.3 27.55h-.5M27.8 27.55v-1M28.02.05V6.4M19.08.05h8.94M28.02 6.4l-1 1M27.02 7.4h-7.94M19.08 7.4V.05M28.55 12.55v1M28.05 12.55h.5M28.55 13.55h-.5M28.05 13.55v-1M25.05 37.3v.5M24.05 37.3h1M25.05 37.8h-1M24.05 37.8v-.5M24.05 15.8v.5M23.05 15.8h1M24.05 16.3h-1M23.05 16.3v-.5M26.05 20.3v.5M25.05 20.3h1M26.05 20.8h-1M25.05 20.8v-.5M25.05 9.3v.5M24.05 9.3h1M25.05 9.8h-1M24.05 9.8v-.5M27.3 37.55v1M26.8 37.55h.5M27.3 38.55h-.5M26.8 38.55v-1M23.05 9.3v.5M22.05 9.3h1M23.05 9.8h-1M22.05 9.8v-.5M24.05 10.3v.5M23.05 10.3h1M24.05 10.8h-1M23.05 10.8v-.5M43.55 4.9a1.35 1.35 0 0 1-1.35-1.35 1.35 1.35 0 0 1 1.35-1.35 1.35 1.35 0 0 1 1.35 1.35 1.35 1.35 0 0 1-1.35 1.35M3.55 4.9A1.35 1.35 0 0 1 2.2 3.55 1.35 1.35 0 0 1 3.55 2.2 1.35 1.35 0 0 1 4.9 3.55 1.35 1.35 0 0 1 3.55 4.9M22.1 32.4v3.775M20 32.4h2.1M22.1 36.175l-.525.525M21.575 36.7H20M20 36.7v-4.3M28.05 20.3v.5M27.05 20.3h1M28.05 20.8h-1M27.05 20.8v-.5M3.55 47.9a1.35 1.35 0 0 1-1.35-1.35 1.35 1.35 0 0 1 1.35-1.35 1.35 1.35 0 0 1 1.35 1.35 1.35 1.35 0 0 1-1.35 1.35M20.3 22.55v1M19.8 22.55h.5M20.3 23.55h-.5M19.8 23.55v-1"/></g><path d="M-12.787-3.856a.013.013 0 0 1-.013.013.013.013 0 0 1-.013-.013.013.013 0 0 1 .013-.012.013.013 0 0 1 .013.012" style="fill:#000;fill-opacity:1;stroke:none" transform="rotate(90 -.75 24.3)"/><g style="fill:none;stroke:#000;stroke-width:.1;stroke-linecap:round;stroke-linejoin:round;stroke-opacity:1"><path d="M27.45 12.25h-.6M26.65 12.45l.2-.2M26.65 12.45v1.4M27.45 13.85v-1.6M26.65 13.85h.8"/></g><g style="fill:#000;fill-opacity:1;stroke:none"><path d="M27.406 13.863a.013.013 0 0 1-.013-.013.013.013 0 0 1 .013-.013.013.013 0 0 1 .012.013.013.013 0 0 1-.012.013M26.694 13.863a.013.013 0 0 1-.012-.013.013.013 0 0 1 .012-.013.013.013 0 0 1 .013.013.013.013 0 0 1-.013.013"/></g><g style="fill:none;stroke:#000;stroke-width:.1;stroke-linecap:round;stroke-linejoin:round;stroke-opacity:1"><path d="M28.32 21.88v.84M26.78 21.88h1.54M26.78 22.47v-.59M28.32 22.72h-1.29M27.03 22.72l-.25-.25M19.3 22.55v1M18.8 22.55h.5M19.3 23.55h-.5M18.8 23.55v-1M27.3 26.55v1M26.8 26.55h.5M27.3 27.55h-.5M26.8 27.55v-1M24.05 20.3v.5M23.05 20.3h1M24.05 20.8h-1M23.05 20.8v-.5M26.05 28.3v.5M25.05 28.3h1M26.05 28.8h-1M25.05 28.8v-.5M20.125 17.95l.425.425M17.55 17.95h2.575M20.55 18.375v1.275M20.55 19.65h-3M17.55 19.65v-1.7M24.05 21.3v.5M23.05 21.3h1M24.05 21.8h-1M23.05 21.8v-.5M20.05 28.3v.5M19.05 28.3h1M20.05 28.8h-1M19.05 28.8v-.5M29.3 37.55v1M28.8 37.55h.5M29.3 38.55h-.5M28.8 38.55v-1M20.3 26.55v1M19.8 26.55h.5M20.3 27.55h-.5M19.8 27.55v-1M24.125 12.45l.425.425M21.55 12.45h2.575M24.55 12.875v1.275M24.55 14.15h-3M21.55 14.15v-1.7M20.125 12.45l.425.425M17.55 12.45h2.575M20.55 12.875v1.275M20.55 14.15h-3M17.55 14.15v-1.7M22.05 28.3v.5M21.05 28.3h1M22.05 28.8h-1M21.05 28.8v-.5"/></g><path d="M-12.787-6.856a.013.013 0 0 1-.013.013.013.013 0 0 1-.013-.013.013.013 0 0 1 .013-.012.013.013 0 0 1 .013.012" style="fill:#000;fill-opacity:1;stroke:none" transform="rotate(90 -.75 24.3)"/><g style="fill:none;stroke:#000;stroke-width:.1;stroke-linecap:round;stroke-linejoin:round;stroke-opacity:1"><path d="M30.45 12.25h-.6M29.65 12.45l.2-.2M29.65 12.45v1.4M30.45 13.85v-1.6M29.65 13.85h.8"/></g><g style="fill:#000;fill-opacity:1;stroke:none"><path d="M30.406 13.863a.013.013 0 0 1-.013-.013.013.013 0 0 1 .013-.013.013.013 0 0 1 .012.013.013.013 0 0 1-.012.013M29.694 13.863a.013.013 0 0 1-.012-.013.013.013 0 0 1 .012-.013.013.013 0 0 1 .013.013.013.013 0 0 1-.013.013"/></g><g style="fill:none;stroke:#000;stroke-width:.1;stroke-linecap:round;stroke-linejoin:round;stroke-opacity:1"><path d="M21.8 37.55v1M21.3 37.55h.5M21.8 38.55h-.5M21.3 38.55v-1M32.42 1.555v5.08M30.545 1.555h1.875M29.92 2.18l.625-.625M32.42 6.635h-2.5M29.92 6.635V2.18M26.735 40.31l.625.625M19.74 40.31h6.995M27.36 40.935v1.875M27.36 42.81h-7.62M19.74 42.81v-2.5M43.55 47.9a1.35 1.35 0 0 1-1.35-1.35 1.35 1.35 0 0 1 1.35-1.35 1.35 1.35 0 0 1 1.35 1.35 1.35 1.35 0 0 1-1.35 1.35M20.05 21.3v.5M19.05 21.3h1M20.05 21.8h-1M19.05 21.8v-.5M24.05 29.3v.5M23.05 29.3h1M24.05 29.8h-1M23.05 29.8v-.5"/></g><g style="fill:none;stroke:#000;stroke-width:.1;stroke-linecap:round;stroke-linejoin:round;stroke-dasharray:none;stroke-opacity:1"><path d="M21.5 23.5A3.5 3.5 0 0 0 25 20M-25 20v-40M-21.5-23.5A3.5 3.5 0 0 0-25-20M25-20a3.5 3.5 0 0 0-3.5-3.5M25 20v-40M21.5-23.5h-43M-25 20a3.5 3.5 0 0 0 3.5 3.5M-21.5 23.5h43" style="stroke-width:.1;stroke-dasharray:none" transform="rotate(90 -.75 24.3)"/></g></svg>