<svg xmlns="http://www.w3.org/2000/svg" width="315.709" height="286.358" viewBox="0 0 83.531 75.766"><defs><marker id="a" markerHeight=".75" markerWidth="1.5" orient="auto-start-reverse" preserveAspectRatio="none" refX="0" refY="0" style="overflow:visible" viewBox="0 0 1 1"><path d="m5.77 0-8.65 5V-5Z" style="fill:context-stroke;fill-rule:evenodd;stroke:context-stroke;stroke-width:1pt" transform="scale(.5)"/></marker><marker id="b" markerHeight=".75" markerWidth="1.5" orient="auto-start-reverse" preserveAspectRatio="none" refX="0" refY="0" style="overflow:visible" viewBox="0 0 1 1"><path d="m5.77 0-8.65 5V-5Z" style="fill:context-stroke;fill-rule:evenodd;stroke:context-stroke;stroke-width:1pt" transform="scale(.5)"/></marker><marker id="c" markerHeight=".75" markerWidth="1.5" orient="auto-start-reverse" preserveAspectRatio="none" refX="0" refY="0" style="overflow:visible" viewBox="0 0 1 1"><path d="m5.77 0-8.65 5V-5Z" style="fill:context-stroke;fill-rule:evenodd;stroke:context-stroke;stroke-width:1pt" transform="scale(.5)"/></marker><marker id="d" markerHeight=".75" markerWidth="1.5" orient="auto-start-reverse" preserveAspectRatio="none" refX="0" refY="0" style="overflow:visible" viewBox="0 0 1 1"><path d="m5.77 0-8.65 5V-5Z" style="fill:context-stroke;fill-rule:evenodd;stroke:context-stroke;stroke-width:1pt" transform="scale(.5)"/></marker><marker id="e" markerHeight=".75" markerWidth="1.5" orient="auto-start-reverse" preserveAspectRatio="none" refX="0" refY="0" style="overflow:visible" viewBox="0 0 1 1"><path d="m5.77 0-8.65 5V-5Z" style="fill:context-stroke;fill-rule:evenodd;stroke:context-stroke;stroke-width:1pt" transform="scale(.5)"/></marker><marker id="f" markerHeight=".75" markerWidth="1.5" orient="auto-start-reverse" preserveAspectRatio="none" refX="0" refY="0" style="overflow:visible" viewBox="0 0 1 1"><path d="m5.77 0-8.65 5V-5Z" style="fill:context-stroke;fill-rule:evenodd;stroke:context-stroke;stroke-width:1pt" transform="scale(.5)"/></marker><marker id="g" markerHeight=".75" markerWidth="1.5" orient="auto-start-reverse" preserveAspectRatio="none" refX="0" refY="0" style="overflow:visible" viewBox="0 0 1 1"><path d="m5.77 0-8.65 5V-5Z" style="fill:context-stroke;fill-rule:evenodd;stroke:context-stroke;stroke-width:1pt" transform="scale(.5)"/></marker><marker id="h" markerHeight=".75" markerWidth="1.5" orient="auto-start-reverse" preserveAspectRatio="none" refX="0" refY="0" style="overflow:visible" viewBox="0 0 1 1"><path d="m5.77 0-8.65 5V-5Z" style="fill:context-stroke;fill-rule:evenodd;stroke:context-stroke;stroke-width:1pt" transform="scale(.5)"/></marker></defs><title>SVG Image created as bluejay-F_Fab.svg date 2026/01/09 13:32:00 </title><desc>Image generated by PCBNEW</desc><g style="fill:none;stroke:#000;stroke-width:.1;stroke-linecap:round;stroke-linejoin:round;stroke-opacity:1"><g class="stroked-text" transform="rotate(90 4.633 32.898)"><desc>J1</desc><path d="M-.435 15.507h.571M.136 15.507l.115.038M.25 15.545l.077.076M.327 15.621l.038.114M.365 15.735v.076M.365 14.707v.457M.365 14.935h-.8M-.435 14.935l.114.076M-.32 15.011l.075.077M-.245 15.088l.038.076"/></g><g class="stroked-text" transform="rotate(90 4.633 32.898)"><desc>J2</desc><path d="M-.435-14.973h.571M.136-14.973l.115.038M.25-14.935l.077.076M.327-14.859l.038.114M.365-14.745v.076M-.359-15.316l-.038-.038M-.397-15.354l-.038-.077M-.435-15.43v-.191M-.435-15.621l.038-.076M-.397-15.697l.038-.038M-.359-15.735l.076-.038M-.283-15.773h.076M-.206-15.773l.114.038M-.092-15.735l.457.457M.365-15.278v-.495"/></g></g><g class="stroked-text" style="fill:none;stroke:#000;stroke-width:.1;stroke-linecap:round;stroke-linejoin:round;stroke-opacity:1" transform="rotate(90 4.633 32.898)"><desc>J4</desc><path d="M-21.39-7.353h.571M-20.819-7.353l.115.038M-20.704-7.315l.076.076M-20.628-7.239l.038.114M-20.59-7.125v.076M-21.123-8.077h.533M-21.428-7.887l.571.19M-20.857-7.696v-.495"/></g><g class="stroked-text" style="fill:none;stroke:#000;stroke-width:.1;stroke-linecap:round;stroke-linejoin:round;stroke-opacity:1" transform="rotate(90 4.633 32.898)"><desc>J3</desc><path d="M16.075.267h.571M16.646.267l.115.038M16.76.305l.077.076M16.837.381l.038.114M16.875.495v.076M16.075-.038v-.495M16.075-.533l.305.266M16.38-.267V-.38M16.38-.381l.038-.076M16.418-.457l.038-.038M16.456-.495l.076-.038M16.532-.533h.19M16.723-.533l.076.038M16.799-.495l.038.038M16.837-.457l.038.076M16.875-.381v.229M16.875-.152l-.038.076M16.837-.076l-.038.038"/></g><path d="M24.791 10.486v35.56M20.791 10.486h4M19.791 11.486l1-1M24.791 46.046h-5M19.791 46.046v-34.56M55.271 10.486v35.56M51.271 10.486h4M50.271 11.486l1-1M55.271 46.046h-5M50.271 46.046v-34.56M42.001 3.266v6.35M33.061 3.266h8.94M42.001 9.616l-1 1M41.001 10.616h-7.94M33.061 10.616v-7.35" style="fill:none;stroke:#000;stroke-width:.1;stroke-linecap:round;stroke-linejoin:round;stroke-opacity:1"/><path d="M8.116-57.531a1.35 1.35 0 0 1-1.35 1.35 1.35 1.35 0 0 1-1.35-1.35 1.35 1.35 0 0 1 1.35-1.35 1.35 1.35 0 0 1 1.35 1.35M8.116-17.531a1.35 1.35 0 0 1-1.35 1.35 1.35 1.35 0 0 1-1.35-1.35 1.35 1.35 0 0 1 1.35-1.35 1.35 1.35 0 0 1 1.35 1.35M51.116-17.531a1.35 1.35 0 0 1-1.35 1.35 1.35 1.35 0 0 1-1.35-1.35 1.35 1.35 0 0 1 1.35-1.35 1.35 1.35 0 0 1 1.35 1.35" style="fill:none;stroke:#000;stroke-width:.1;stroke-linecap:round;stroke-linejoin:round" transform="rotate(90)"/><path d="M46.401 4.77v5.08M44.526 4.77h1.875M43.901 5.396l.625-.625M46.401 9.85h-2.5M43.901 9.85V5.397M40.716 43.526l.625.625M33.721 43.526h6.995M41.341 44.15v1.876M41.341 46.026h-7.62M33.721 46.026v-2.5" style="fill:none;stroke:#000;stroke-width:.1;stroke-linecap:round;stroke-linejoin:round;stroke-opacity:1"/><path d="M51.116-57.531a1.35 1.35 0 0 1-1.35 1.35 1.35 1.35 0 0 1-1.35-1.35 1.35 1.35 0 0 1 1.35-1.35 1.35 1.35 0 0 1 1.35 1.35" style="fill:none;stroke:#000;stroke-width:.1;stroke-linecap:round;stroke-linejoin:round" transform="rotate(90)"/><g style="fill:none;stroke:#000;stroke-width:.1;stroke-linecap:round;stroke-linejoin:round;stroke-dasharray:none;stroke-opacity:1"><path d="M21.5 23.5A3.5 3.5 0 0 0 25 20M-25 20v-40M-21.5-23.5A3.5 3.5 0 0 0-25-20M25-20a3.5 3.5 0 0 0-3.5-3.5M25 20v-40M21.5-23.5h-43M-25 20a3.5 3.5 0 0 0 3.5 3.5M-21.5 23.5h43" style="stroke-width:.1;stroke-dasharray:none" transform="rotate(90 4.633 32.898)"/></g><path d="M37.531 29.766v25.5M37.531 26.766v-25.5M39.031 28.266h25M36.031 28.266h-25" style="fill:#000;fill-opacity:1;stroke:#bb3f3f;stroke-width:.2;stroke-linecap:butt;stroke-linejoin:round;stroke-dasharray:4,1,1,1;stroke-dashoffset:0;stroke-opacity:1"/><path d="M37.031 28.266h1M37.531 27.766v1" style="fill:#000;fill-opacity:1;stroke:#bb3f3f;stroke-width:.2;stroke-linecap:butt;stroke-linejoin:round;stroke-dasharray:none;stroke-dashoffset:0;stroke-opacity:1"/><path d="M15.783 5.012 11.53.765h-2" style="fill:none;fill-opacity:1;stroke:#bb3f3f;stroke-width:.199408;stroke-linecap:butt;stroke-linejoin:round;stroke-dasharray:none;stroke-dashoffset:0;stroke-opacity:1;marker-start:url(#a)"/><g stroke="none" aria-label="⌀2.7 mm" style="font-size:2.11041px;font-family:Roboto;-inkscape-font-specification:Roboto;fill:#bb3f3f;stroke:#bb3f3f;stroke-width:0;stroke-linejoin:round"><path d="M1.209.269q.153.19.153.428 0 .281-.201.48-.2.2-.48.2-.236 0-.428-.148l-.092.09-.107-.106.091-.093Q0 .933 0 .697 0 .414.198.215q.2-.2.482-.2.238 0 .422.147L1.196.07l.109.109ZM.994.272Q.854.168.68.168q-.216 0-.372.156Q.15.48.15.697q0 .173.106.312zm-.634.845q.145.109.32.109.218 0 .373-.157.156-.156.156-.372 0-.18-.107-.317z" style="font-size:3.16561px;font-family:Nunito;-inkscape-font-specification:Nunito" transform="scale(.99662 1.00339)"/><path d="M1.82 1.507q-.047 0-.07-.021-.021-.023-.021-.061 0-.024.01-.045.013-.023.034-.046l.473-.507Q2.353.711 2.4.614q.048-.1.048-.2 0-.127-.078-.192-.076-.068-.223-.068-.095 0-.18.03t-.162.09q-.028.021-.05.02Q1.732.29 1.715.275T1.693.238q-.006-.023 0-.046Q1.7.169 1.727.15q.082-.068.198-.108Q2.041 0 2.161 0q.15 0 .254.046.103.047.156.138.053.088.053.217 0 .089-.03.175-.027.085-.087.173-.056.089-.15.184l-.449.475v-.049h.711q.04 0 .06.02.02.016.02.052 0 .038-.02.057t-.06.019zm1.236.008q-.053 0-.084-.031-.032-.034-.032-.085 0-.05.032-.082.031-.034.084-.034t.083.034q.031.032.031.082t-.031.085q-.03.031-.083.031zm.593.007q-.03 0-.05-.015-.022-.015-.028-.04-.004-.028.013-.06L4.26.094v.076h-.76q-.037 0-.059-.02-.02-.02-.02-.056t.02-.055q.022-.019.06-.019h.837q.038 0 .062.019.023.019.023.055 0 .03-.009.053-.006.02-.019.048l-.65 1.269q-.014.03-.038.044-.023.015-.059.015zm1.705 0q-.042 0-.063-.024-.021-.023-.021-.065v-.88q0-.042.021-.063.021-.024.061-.024t.062.024q.023.02.023.063v.186l-.023-.03q.04-.118.128-.181.091-.066.216-.066.13 0 .21.063.083.062.11.193h-.031q.038-.119.135-.186.099-.07.23-.07.116 0 .19.044.076.045.114.136.038.088.038.225v.566q0 .042-.024.065-.02.024-.063.024-.04 0-.063-.024-.021-.023-.021-.065V.876q0-.142-.049-.207Q6.486.601 6.37.601q-.127 0-.2.09-.073.086-.073.235v.507q0 .042-.023.065-.021.024-.063.024-.04 0-.064-.024-.02-.023-.02-.065V.876q0-.142-.051-.207-.049-.068-.163-.068-.126 0-.2.09-.072.086-.072.235v.507q0 .089-.087.089zm1.807 0q-.042 0-.063-.024-.021-.023-.021-.065v-.88q0-.042.02-.063.022-.024.062-.024T7.22.49q.023.02.023.063v.186L7.22.709q.04-.118.129-.181.09-.066.215-.066.13 0 .211.063.082.062.11.193h-.032q.038-.119.135-.186.1-.07.23-.07.116 0 .19.044.076.045.114.136.038.088.038.225v.566q0 .042-.023.065-.021.024-.063.024-.04 0-.064-.024-.02-.023-.02-.065V.876q0-.142-.05-.207-.048-.068-.164-.068-.127 0-.2.09-.072.086-.072.235v.507q0 .042-.023.065-.022.024-.064.024-.04 0-.063-.024-.021-.023-.021-.065V.876q0-.142-.05-.207-.05-.068-.163-.068-.127 0-.2.09-.073.086-.073.235v.507q0 .089-.086.089z" style="font-family:Nunito;-inkscape-font-specification:Nunito" transform="scale(.99662 1.00339)"/></g><path d="M58.031 49.766h15.5M58.031 6.765h15.5M62.031 3.265h21.5M62.031 53.266h21.5" style="fill:#000;fill-opacity:.444685;stroke:#bb3f3f;stroke-width:.2;stroke-linecap:butt;stroke-linejoin:round;stroke-dasharray:none;stroke-dashoffset:0;stroke-opacity:1"/><path d="M-31.261 71.777v.157h-1.087v-.112l.673-1.043h.156l-.167.302-.445.696zm-.21-.998v1.505h-.191v-1.505zm.661.658h.137q.1 0 .165-.033.066-.034.098-.092.034-.059.034-.132 0-.087-.03-.146-.028-.059-.086-.089t-.147-.03q-.08 0-.143.032-.06.031-.096.09-.034.057-.034.136h-.191q0-.115.058-.21.058-.093.162-.15.105-.055.244-.055.136 0 .239.049.102.047.159.142t.057.235q0 .057-.027.122-.026.064-.082.12-.055.056-.142.092-.088.035-.211.035h-.164zm0 .157v-.115h.164q.143 0 .237.035.095.034.148.09.055.057.077.126.022.067.022.134 0 .105-.036.187t-.1.138-.15.086q-.088.03-.19.03-.098 0-.185-.029-.086-.028-.152-.08-.066-.054-.103-.132t-.037-.178h.19q0 .078.035.137t.1.092q.064.032.152.032t.15-.03q.065-.03.1-.093.034-.062.034-.156t-.039-.154-.112-.09q-.07-.03-.168-.03zm.935.588q0-.048.03-.081.03-.035.089-.035t.087.035q.031.033.031.081t-.03.08q-.03.034-.088.034t-.09-.033q-.03-.033-.03-.08zm1.479-.77v.229q0 .185-.033.312t-.095.204-.15.113q-.087.034-.197.034-.086 0-.16-.021-.073-.022-.132-.07-.058-.048-.1-.126-.04-.077-.062-.188-.022-.11-.022-.258v-.23q0-.185.033-.31.034-.125.096-.2.062-.077.149-.11.088-.033.196-.033.088 0 .162.022.074.02.132.067.058.045.098.122.041.075.063.185t.022.257zm-.192.26v-.293q0-.101-.013-.178-.011-.077-.034-.132t-.058-.089-.08-.05-.1-.016q-.068 0-.12.026-.053.025-.09.08-.035.054-.053.143-.019.09-.019.216v.293q0 .101.012.178.012.078.036.135.023.056.058.092.034.036.078.054.046.016.1.016.07 0 .123-.027t.088-.083q.036-.058.054-.148.018-.091.018-.217zm1.173-.285v.897h-.193v-1.119h.182zm-.04.295-.089-.003q.001-.115.03-.212.03-.098.086-.17.057-.073.142-.112t.196-.04q.079 0 .145.022t.115.07q.048.047.075.122.027.074.027.18v.745h-.191v-.736q0-.088-.03-.14-.03-.054-.083-.077-.054-.025-.126-.025-.085 0-.142.03t-.09.082-.05.121-.015.143zm.725-.105-.128.039q0-.092.03-.177t.085-.15q.057-.067.14-.105.083-.04.19-.04.089 0 .158.024.07.024.118.074.049.048.073.125.025.076.025.182v.735h-.192v-.737q0-.094-.03-.146-.029-.053-.083-.073-.052-.022-.126-.022-.063 0-.111.022-.049.021-.082.06-.033.037-.05.085t-.017.104zm1.17-.19v.897h-.191v-1.119h.181zm-.038.295-.09-.003q.002-.115.03-.212.03-.098.086-.17.057-.073.142-.112t.196-.04q.079 0 .145.022t.115.07q.048.047.075.122.027.074.027.18v.745h-.191v-.736q0-.088-.03-.14-.029-.054-.083-.077-.053-.025-.126-.025-.085 0-.141.03-.057.03-.091.082-.035.053-.05.121t-.014.143zm.724-.105-.128.039q0-.092.03-.177t.086-.15.14-.105q.082-.04.188-.04.09 0 .16.024t.117.074q.049.048.074.125.024.076.024.182v.735h-.192v-.737q0-.094-.03-.146-.029-.053-.082-.073-.053-.022-.127-.022-.063 0-.111.022-.049.021-.082.06-.033.037-.05.085t-.017.104z" aria-label="43.0 mm" style="font-size:2.11667px;font-family:Roboto;-inkscape-font-specification:Roboto;fill:#bb3f3f;stroke:#bb3f3f;stroke-width:0;stroke-linejoin:round" transform="rotate(-90)"/><path d="M-31.836 82.303q-.12 0-.241-.036-.119-.036-.216-.113-.026-.017-.034-.04t-.002-.046.023-.038q.017-.017.04-.02.026-.002.053.017.087.062.18.091.093.03.195.03.104 0 .178-.038.076-.04.114-.11.04-.072.04-.167 0-.146-.084-.24-.085-.093-.233-.093-.091 0-.168.034-.076.034-.14.108-.014.017-.035.03-.02.01-.045.01-.036 0-.057-.019-.019-.02-.019-.055v-.736q0-.04.021-.06t.06-.02h.72q.04 0 .059.018.02.02.02.055t-.02.055q-.02.02-.06.02h-.628v.594h-.047q.055-.089.152-.135.098-.049.218-.049.142 0 .244.06.104.059.159.167.057.105.057.247 0 .14-.062.248-.061.108-.173.17-.112.06-.269.06zm1.238 0q-.256 0-.39-.197-.133-.197-.133-.57 0-.25.06-.419.059-.171.175-.258.119-.087.288-.087.258 0 .39.195.133.193.133.567 0 .25-.06.421-.058.172-.175.26t-.288.088zm0-.15q.178 0 .263-.151.086-.152.086-.468t-.086-.463q-.085-.149-.263-.149-.175 0-.262.149-.087.148-.087.463t.087.468q.087.15.262.15zm.879.139q-.053 0-.085-.032-.032-.034-.032-.084t.032-.083q.032-.034.085-.034t.082.034q.032.032.032.083 0 .05-.032.084-.03.032-.082.032zm.874.01q-.256 0-.39-.196-.133-.197-.133-.57 0-.25.06-.419.059-.171.175-.258.118-.087.288-.087.258 0 .39.195.133.193.133.567 0 .25-.06.421-.059.172-.175.26-.117.088-.288.088zm0-.15q.178 0 .262-.15.087-.152.087-.468t-.087-.463q-.084-.149-.262-.149-.176 0-.263.149-.086.148-.086.463t.086.468q.087.15.263.15zm1.43.146q-.042 0-.063-.023t-.021-.066v-.882q0-.043.021-.064.021-.023.062-.023t.061.023q.023.021.023.064v.186l-.023-.03q.04-.118.13-.182.09-.065.215-.065.131 0 .212.063.082.062.11.193h-.032q.038-.119.135-.186.1-.07.231-.07.117 0 .19.044.077.045.115.136.038.089.038.226v.567q0 .043-.023.066-.021.023-.064.023-.04 0-.063-.023-.021-.023-.021-.066v-.558q0-.142-.05-.208-.048-.068-.164-.068-.127 0-.201.09-.072.086-.072.236v.508q0 .043-.024.066-.02.023-.063.023-.04 0-.064-.023-.02-.023-.02-.066v-.558q0-.142-.051-.208-.05-.068-.163-.068-.127 0-.202.09-.072.086-.072.236v.508q0 .09-.086.09zm1.813 0q-.043 0-.064-.023t-.021-.066v-.882q0-.043.021-.064.021-.023.061-.023t.062.023q.023.021.023.064v.186l-.023-.03q.04-.118.129-.182.091-.065.216-.065.131 0 .212.063.082.062.11.193h-.032q.038-.119.135-.186.1-.07.231-.07.116 0 .19.044.077.045.115.136.038.089.038.226v.567q0 .043-.023.066-.022.023-.064.023-.04 0-.063-.023-.022-.023-.022-.066v-.558q0-.142-.048-.208-.049-.068-.165-.068-.127 0-.201.09-.072.086-.072.236v.508q0 .043-.024.066-.02.023-.063.023-.04 0-.064-.023-.02-.023-.02-.066v-.558q0-.142-.052-.208-.048-.068-.163-.068-.127 0-.2.09-.073.086-.073.236v.508q0 .09-.086.09z" aria-label="50.0 mm" style="font-size:2.11667px;font-family:Nunito;-inkscape-font-specification:Nunito;fill:#bb3f3f;stroke:#bb3f3f;stroke-width:0;stroke-linejoin:round" transform="rotate(-90)"/><path d="M71.531 33.266v15.3" style="fill:#000;stroke:#bb3f3f;stroke-width:.2;stroke-linejoin:round;stroke-dasharray:none;stroke-opacity:1;marker-end:url(#b)"/><path d="M81.531 33.266v18.8" style="fill:#000;stroke:#bb3f3f;stroke-width:.2;stroke-linejoin:round;stroke-dasharray:none;stroke-opacity:1;marker-end:url(#c)"/><path d="M71.531 23.266v-15.3" style="fill:#000;stroke:#bb3f3f;stroke-width:.2;stroke-linejoin:round;stroke-dasharray:none;stroke-opacity:1;marker-end:url(#d)"/><path d="M81.531 23.266v-18.8" style="fill:#000;stroke:#bb3f3f;stroke-width:.2;stroke-linejoin:round;stroke-dasharray:none;stroke-opacity:1;marker-end:url(#e)"/><path d="M57.531 50.266v15.5M61.031 54.266v21.5M14.031 54.266v21.5" style="fill:#f55;fill-opacity:.444685;stroke:#bb3f3f;stroke-width:.2;stroke-linecap:butt;stroke-linejoin:round;stroke-dasharray:none;stroke-dashoffset:0;stroke-opacity:1"/><path d="M17.531 50.266v15.5" style="fill:#000;fill-opacity:.444685;stroke:#bb3f3f;stroke-width:.2;stroke-linecap:butt;stroke-linejoin:round;stroke-dasharray:none;stroke-dashoffset:0;stroke-opacity:1"/><path d="M34.214 64.533q-.04 0-.063-.024-.023-.023-.023-.065v-.246h-.608q-.042 0-.068-.019-.023-.02-.023-.059 0-.023.01-.047.011-.025.039-.063l.645-.94q.02-.03.043-.044.023-.015.055-.015.034 0 .057.021.025.021.025.068v.95h.155q.04 0 .061.02.021.018.021.054t-.02.055q-.022.02-.062.02h-.155v.245q0 .042-.023.065-.023.024-.066.024zm-.086-.483v-.821h.05l-.592.868v-.047zm1.107.487q-.256 0-.39-.197-.133-.197-.133-.57 0-.249.06-.418.058-.172.175-.259.118-.086.288-.086.258 0 .39.194.132.193.132.568 0 .25-.059.42-.06.172-.175.261-.117.087-.288.087zm0-.15q.177 0 .262-.15.087-.153.087-.468 0-.318-.087-.464-.085-.148-.262-.148-.176 0-.263.148t-.087.464.087.467q.087.15.263.15zm.878.14q-.053 0-.085-.032-.031-.034-.031-.085 0-.05.031-.083.032-.033.085-.033t.083.033q.031.032.031.083 0 .05-.031.085-.03.031-.083.031zm.874.01q-.256 0-.39-.197-.133-.197-.133-.57 0-.249.06-.418.059-.172.175-.259.119-.086.288-.086.258 0 .39.194.133.193.133.568 0 .25-.06.42-.058.172-.175.261-.116.087-.288.087zm0-.15q.178 0 .263-.15.086-.153.086-.468 0-.318-.086-.464-.085-.148-.263-.148-.175 0-.262.148t-.087.464.087.467q.087.15.262.15zm1.431.146q-.042 0-.063-.024-.022-.023-.022-.065v-.883q0-.042.022-.063.02-.024.061-.024t.061.024q.024.02.024.063v.186l-.024-.03q.04-.118.13-.181.09-.066.215-.066.132 0 .212.064.083.061.11.192h-.032q.038-.118.136-.186.1-.07.23-.07.117 0 .191.045.076.044.114.135.038.089.038.227v.567q0 .042-.023.065-.021.024-.063.024-.04 0-.064-.024-.021-.023-.021-.065v-.559q0-.142-.049-.207-.048-.068-.165-.068-.127 0-.2.089-.073.087-.073.237v.508q0 .042-.023.065-.021.024-.064.024-.04 0-.063-.024-.021-.023-.021-.065v-.559q0-.142-.051-.207-.049-.068-.163-.068-.127 0-.201.089-.072.087-.072.237v.508q0 .089-.087.089zm1.812 0q-.042 0-.064-.024-.02-.023-.02-.065v-.883q0-.042.02-.063.022-.024.062-.024t.061.024q.024.02.024.063v.186l-.024-.03q.04-.118.13-.181.09-.066.215-.066.131 0 .212.064.082.061.11.192h-.032q.038-.118.136-.186.1-.07.23-.07.117 0 .19.045.077.044.115.135.038.089.038.227v.567q0 .042-.023.065-.021.024-.063.024-.04 0-.064-.024-.021-.023-.021-.065v-.559q0-.142-.049-.207-.048-.068-.165-.068-.127 0-.201.089-.072.087-.072.237v.508q0 .042-.023.065-.021.024-.064.024-.04 0-.063-.024-.021-.023-.021-.065v-.559q0-.142-.051-.207-.049-.068-.163-.068-.127 0-.201.089-.072.087-.072.237v.508q0 .089-.087.089z" aria-label="40.0 mm" style="font-size:2.11667px;font-family:Nunito;-inkscape-font-specification:Nunito;fill:#bb3f3f;stroke:#bb3f3f;stroke-width:0;stroke-linejoin:round"/><path d="M34.214 74.533q-.04 0-.063-.024-.023-.023-.023-.065v-.246h-.608q-.042 0-.068-.019-.023-.02-.023-.059 0-.023.01-.047.011-.025.039-.063l.645-.94q.02-.03.043-.044.023-.015.055-.015.034 0 .057.021.025.021.025.068v.95h.155q.04 0 .061.02.021.018.021.054t-.02.055q-.022.02-.062.02h-.155v.245q0 .042-.023.065-.023.024-.066.024zm-.086-.483v-.821h.05l-.592.868v-.047zm.827.483q-.03 0-.05-.015-.022-.015-.028-.04-.004-.028.013-.06l.68-1.318v.076h-.763q-.038 0-.06-.02-.02-.02-.02-.056t.02-.055q.022-.02.06-.02h.84q.038 0 .062.02.023.019.023.055 0 .03-.008.053-.007.02-.02.048l-.651 1.272q-.015.03-.039.045-.023.015-.059.015zm1.158-.007q-.053 0-.085-.031-.031-.034-.031-.085 0-.05.031-.083.032-.033.085-.033t.083.033q.031.032.031.083 0 .05-.031.085-.03.031-.083.031zm.874.011q-.256 0-.39-.197-.133-.197-.133-.57 0-.249.06-.418.059-.172.175-.259.119-.086.288-.086.258 0 .39.194.133.193.133.568 0 .25-.06.42-.058.172-.175.261-.116.087-.288.087zm0-.15q.178 0 .263-.15.086-.153.086-.468 0-.318-.086-.464-.085-.148-.263-.148-.175 0-.262.148t-.087.464.087.467q.087.15.262.15zm1.431.146q-.042 0-.063-.023-.022-.024-.022-.066v-.883q0-.042.022-.063.02-.024.061-.024t.061.024q.024.02.024.063v.187l-.024-.03q.04-.119.13-.182.09-.066.215-.066.132 0 .212.064.083.061.11.192h-.032q.038-.118.136-.186.1-.07.23-.07.117 0 .191.045.076.044.114.135.038.089.038.227v.567q0 .042-.023.066-.021.023-.063.023-.04 0-.064-.023-.021-.024-.021-.066v-.559q0-.142-.049-.207-.048-.068-.165-.068-.127 0-.2.089-.073.087-.073.237v.508q0 .042-.023.066-.021.023-.064.023-.04 0-.063-.023-.021-.024-.021-.066v-.559q0-.142-.051-.207-.049-.068-.163-.068-.127 0-.201.089-.072.087-.072.237v.508q0 .089-.087.089zm1.812 0q-.042 0-.064-.023-.02-.024-.02-.066v-.883q0-.042.02-.063.022-.024.062-.024t.061.024q.024.02.024.063v.187l-.024-.03q.04-.119.13-.182.09-.066.215-.066.131 0 .212.064.082.061.11.192h-.032q.038-.118.136-.186.1-.07.23-.07.117 0 .19.045.077.044.115.135.038.089.038.227v.567q0 .042-.023.066-.021.023-.063.023-.04 0-.064-.023-.021-.024-.021-.066v-.559q0-.142-.049-.207-.048-.068-.165-.068-.127 0-.201.089-.072.087-.072.237v.508q0 .042-.023.066-.021.023-.064.023-.04 0-.063-.023-.021-.024-.021-.066v-.559q0-.142-.051-.207-.049-.068-.163-.068-.127 0-.201.089-.072.087-.072.237v.508q0 .089-.087.089z" aria-label="47.0 mm" style="font-size:2.11667px;font-family:Nunito;-inkscape-font-specification:Nunito;fill:#bb3f3f;stroke:#bb3f3f;stroke-width:0;stroke-linejoin:round"/><path d="M32.531 63.766h-13.8" style="fill:#000;stroke:#bb3f3f;stroke-width:.2;stroke-linejoin:round;stroke-dasharray:none;stroke-opacity:1;marker-end:url(#f)"/><path d="M32.531 73.766h-17.3" style="fill:#000;stroke:#bb3f3f;stroke-width:.2;stroke-linejoin:round;stroke-dasharray:none;stroke-opacity:1;marker-end:url(#g)"/><path d="M42.531 63.766h13.8" style="fill:#000;stroke:#bb3f3f;stroke-width:.2;stroke-linejoin:round;stroke-dasharray:none;stroke-opacity:1;marker-end:url(#f)"/><path d="M42.531 73.766h17.3" style="fill:#000;stroke:#bb3f3f;stroke-width:.2;stroke-linejoin:round;stroke-dasharray:none;stroke-opacity:1;marker-end:url(#h)"/></svg>