<svg xmlns="http://www.w3.org/2000/svg" width="375.685" height="302.202" viewBox="0 0 99.4 79.958"><path d="M146 161h1" style="fill:none;stroke:#bb3f3f;stroke-width:.3;stroke-linecap:round;stroke-linejoin:round;stroke-dasharray:none;stroke-opacity:1" transform="matrix(-1 0 0 -1 193.7 218.729)"/><path d="M146 161a.6.6 0 0 1-.6.6.6.6 0 0 1-.6-.6.6.6 0 0 1 .6-.6.6.6 0 0 1 .6.6ZM146 165a.6.6 0 0 1-.6.6.6.6 0 0 1-.6-.6.6.6 0 0 1 .6-.6.6.6 0 0 1 .6.6Z" style="fill:none;stroke:#bb3f3f;stroke-width:.3;stroke-linejoin:round" transform="matrix(-1 0 0 -1 193.7 218.729)"/><path d="M146 165h1" style="fill:#d40000;stroke:#bb3f3f;stroke-width:.3;stroke-linecap:round;stroke-linejoin:round;stroke-dasharray:none;stroke-opacity:1" transform="matrix(-1 0 0 -1 193.7 218.729)"/><path d="M140.5 163h1" style="fill:none;stroke:#bb3f3f;stroke-width:.3;stroke-linecap:round;stroke-linejoin:round;stroke-dasharray:none;stroke-opacity:1" transform="matrix(-1 0 0 -1 193.7 218.729)"/><path d="M142.7 163a.6.6 0 0 1-.6.6.6.6 0 0 1-.6-.6.6.6 0 0 1 .6-.6.6.6 0 0 1 .6.6Z" style="fill:none;stroke:#bb3f3f;stroke-width:.3;stroke-linejoin:round" transform="matrix(-1 0 0 -1 193.7 218.729)"/><path d="M140.5 162Z" style="fill:#d40000;stroke:#d40000;stroke-width:.4;stroke-linejoin:round;stroke-dasharray:none" transform="matrix(-1 0 0 -1 193.7 218.729)"/><path d="m151.137 162.673 2.251-1.363" style="fill:none;stroke:#bb3f3f;stroke-width:.3;stroke-linecap:round;stroke-linejoin:round;stroke-dasharray:none;stroke-opacity:1" transform="matrix(-1 0 0 -1 202.2 218.729)"/><path d="M146 161h1" style="fill:none;stroke:#bb3f3f;stroke-width:.3;stroke-linecap:round;stroke-linejoin:round;stroke-dasharray:none;stroke-opacity:1" transform="matrix(-1 0 0 -1 193.7 226.729)"/><path d="M146 161a.6.6 0 0 1-.6.6.6.6 0 0 1-.6-.6.6.6 0 0 1 .6-.6.6.6 0 0 1 .6.6ZM146 165a.6.6 0 0 1-.6.6.6.6 0 0 1-.6-.6.6.6 0 0 1 .6-.6.6.6 0 0 1 .6.6Z" style="fill:none;stroke:#bb3f3f;stroke-width:.3;stroke-linejoin:round" transform="matrix(-1 0 0 -1 193.7 226.729)"/><path d="M146 165h1" style="fill:#d40000;stroke:#bb3f3f;stroke-width:.3;stroke-linecap:round;stroke-linejoin:round;stroke-dasharray:none;stroke-opacity:1" transform="matrix(-1 0 0 -1 193.7 226.729)"/><path d="M140.5 163h1" style="fill:none;stroke:#bb3f3f;stroke-width:.3;stroke-linecap:round;stroke-linejoin:round;stroke-dasharray:none;stroke-opacity:1" transform="matrix(-1 0 0 -1 193.7 226.729)"/><path d="M142.7 163a.6.6 0 0 1-.6.6.6.6 0 0 1-.6-.6.6.6 0 0 1 .6-.6.6.6 0 0 1 .6.6Z" style="fill:none;stroke:#bb3f3f;stroke-width:.3;stroke-linejoin:round" transform="matrix(-1 0 0 -1 193.7 226.729)"/><path d="M140.5 162Z" style="fill:#d40000;stroke:#d40000;stroke-width:.4;stroke-linejoin:round;stroke-dasharray:none" transform="matrix(-1 0 0 -1 193.7 226.729)"/><path d="m151.137 162.673 2.251-1.363" style="fill:none;stroke:#bb3f3f;stroke-width:.3;stroke-linecap:round;stroke-linejoin:round;stroke-dasharray:none;stroke-opacity:1" transform="matrix(-1 0 0 -1 202.2 226.729)"/><path d="M146 161h1" style="fill:none;stroke:#bb3f3f;stroke-width:.3;stroke-linecap:round;stroke-linejoin:round;stroke-dasharray:none;stroke-opacity:1" transform="matrix(-1 0 0 -1 193.7 234.729)"/><path d="M146 161a.6.6 0 0 1-.6.6.6.6 0 0 1-.6-.6.6.6 0 0 1 .6-.6.6.6 0 0 1 .6.6ZM146 165a.6.6 0 0 1-.6.6.6.6 0 0 1-.6-.6.6.6 0 0 1 .6-.6.6.6 0 0 1 .6.6Z" style="fill:none;stroke:#bb3f3f;stroke-width:.3;stroke-linejoin:round" transform="matrix(-1 0 0 -1 193.7 234.729)"/><path d="M146 165h1" style="fill:#d40000;stroke:#bb3f3f;stroke-width:.3;stroke-linecap:round;stroke-linejoin:round;stroke-dasharray:none;stroke-opacity:1" transform="matrix(-1 0 0 -1 193.7 234.729)"/><path d="M140.5 163h1" style="fill:none;stroke:#bb3f3f;stroke-width:.3;stroke-linecap:round;stroke-linejoin:round;stroke-dasharray:none;stroke-opacity:1" transform="matrix(-1 0 0 -1 193.7 234.729)"/><path d="M142.7 163a.6.6 0 0 1-.6.6.6.6 0 0 1-.6-.6.6.6 0 0 1 .6-.6.6.6 0 0 1 .6.6Z" style="fill:none;stroke:#bb3f3f;stroke-width:.3;stroke-linejoin:round" transform="matrix(-1 0 0 -1 193.7 234.729)"/><path d="M140.5 162Z" style="fill:#d40000;stroke:#d40000;stroke-width:.4;stroke-linejoin:round;stroke-dasharray:none" transform="matrix(-1 0 0 -1 193.7 234.729)"/><path d="m151.137 162.673 2.251-1.363" style="fill:none;stroke:#bb3f3f;stroke-width:.3;stroke-linecap:round;stroke-linejoin:round;stroke-dasharray:none;stroke-opacity:1" transform="matrix(-1 0 0 -1 202.2 234.729)"/><path d="M154.5 257.5h20v68h-20zM75.5 293.5h20v30h-20Z" style="fill:none;fill-opacity:.362269;stroke:#bb3f3f;stroke-width:.3;stroke-linecap:round;stroke-linejoin:round" transform="translate(-75.3 -249.771)"/><path d="M120 300.5h10.5v26H120ZM81.5 253h14v36.5h-14Z" style="fill:none;fill-opacity:.362269;stroke:#bb3f3f;stroke-width:.3;stroke-linecap:round;stroke-linejoin:round;stroke-dasharray:.3,.6" transform="translate(-75.3 -249.771)"/><path d="M128.5 305.5h26M95.5 303.5H122M128.5 313.5h26M95.5 297.5h59M95.5 311.5H122M116 315.5h6M94.5 281.5h9M94.5 277.5H108M94.5 285.5h5M94.5 257.5h5M116 319.5v-4M99.5 286.5v-1M99.5 257.5v-1M112 323.5v-12M108 311.5v-34M134.5 297.5v-2M142.5 305.5v-32M146.5 297.5v-28M134.5 288.8v-2M103.5 319.5v-38M142.5 273.5h-48M146.5 269.5h-52M154.5 265.5h-60M154.5 261.5h-60M128.5 321.5h26M95.5 319.5H122M112 323.5h10" style="fill:none;stroke:#bb3f3f;stroke-width:.3;stroke-linecap:round;stroke-linejoin:round;stroke-dasharray:none;stroke-opacity:1" transform="translate(-75.3 -249.771)"/><path d="M67.5 93.5h1M68 93v1" style="fill:none;stroke:#bb3f3f;stroke-width:.3;stroke-linecap:round;stroke-linejoin:round;stroke-dasharray:none;stroke-opacity:1" transform="rotate(45 98.53 45.075)"/><path d="M122 307.5h-4" style="fill:none;stroke:#bb3f3f;stroke-width:.3;stroke-linecap:round;stroke-linejoin:round;stroke-dasharray:none;stroke-opacity:1" transform="translate(-75.3 -249.771)"/><path d="M112.5 311.5a.5.5 0 0 1-.5.5.5.5 0 0 1-.5-.5.5.5 0 0 1 .5-.5.5.5 0 0 1 .5.5ZM116.5 303.5a.5.5 0 0 1-.5.5.5.5 0 0 1-.5-.5.5.5 0 0 1 .5-.5.5.5 0 0 1 .5.5ZM135 297.5a.5.5 0 0 1-.5.5.5.5 0 0 1-.5-.5.5.5 0 0 1 .5-.5.5.5 0 0 1 .5.5zM143 305.5a.5.5 0 0 1-.5.5.5.5 0 0 1-.5-.5.5.5 0 0 1 .5-.5.5.5 0 0 1 .5.5zM147 297.5a.5.5 0 0 1-.5.5.5.5 0 0 1-.5-.5.5.5 0 0 1 .5-.5.5.5 0 0 1 .5.5zM116.5 319.5a.5.5 0 0 1-.5.5.5.5 0 0 1-.5-.5.5.5 0 0 1 .5-.5.5.5 0 0 1 .5.5z" style="fill:#bb3f3f;stroke:#bb3f3f;stroke-width:0;stroke-linejoin:round" transform="translate(-75.3 -249.771)"/><path d="M156.646 298.345q-.104 0-.21-.016-.104-.015-.197-.046-.093-.033-.167-.08-.042-.03-.059-.07t-.012-.078q.007-.04.031-.07.026-.03.064-.038.038-.007.084.022.104.062.221.09.117.029.245.029.189 0 .274-.062.086-.064.086-.164 0-.084-.062-.131-.06-.048-.207-.079l-.262-.055q-.226-.047-.338-.16-.11-.113-.11-.3 0-.116.048-.211.047-.095.133-.164.088-.07.207-.105.122-.038.267-.038.143 0 .272.035.128.036.23.105.039.026.05.064.015.039.008.077-.007.035-.034.062-.026.026-.066.03-.039.005-.089-.023-.088-.05-.178-.072t-.195-.021q-.11 0-.189.03-.078.032-.121.089-.04.055-.04.13 0 .087.057.139.057.05.195.079l.26.054q.235.05.35.158.116.107.116.285 0 .115-.047.207-.046.093-.134.16-.085.067-.207.102-.121.036-.274.036zm1.077-.005q-.074 0-.115-.04-.038-.043-.038-.117v-1.386q0-.076.04-.114.041-.04.115-.04h.574q.276 0 .426.137.15.139.15.386 0 .248-.15.388-.15.138-.426.138h-.424v.491q0 .074-.038.117-.038.04-.114.04zm.152-.888h.376q.162 0 .246-.071.083-.074.083-.215 0-.14-.083-.212-.084-.071-.246-.071h-.376zm1.4.888q-.074 0-.114-.04-.038-.043-.038-.117v-1.403q0-.076.038-.116.04-.04.114-.04t.112.04q.04.04.04.116v1.403q0 .074-.037.117-.039.04-.115.04zm.46.16q-.04 0-.07-.026-.025-.024-.025-.062t.026-.065.069-.026h.945q.04 0 .067.026.026.027.026.065t-.026.062q-.026.026-.067.026zm1.852-.155q-.104 0-.21-.017-.104-.014-.197-.045-.093-.033-.166-.08-.043-.03-.06-.07t-.012-.079q.007-.04.031-.069.026-.03.064-.038.039-.007.084.022.105.061.221.09.117.029.246.029.188 0 .273-.062.086-.065.086-.165 0-.083-.062-.13-.06-.048-.207-.08l-.262-.054q-.226-.047-.338-.16-.11-.114-.11-.3 0-.116.048-.211.048-.096.133-.165.088-.069.207-.104.122-.039.267-.039.143 0 .272.036.128.036.23.105.039.026.05.064.015.038.008.076-.007.036-.034.062-.026.026-.066.031-.038.005-.088-.024-.089-.05-.18-.071-.09-.021-.194-.021-.11 0-.188.03-.08.032-.122.089-.04.054-.04.13 0 .086.057.139.057.05.195.078l.26.055q.235.05.35.157.116.107.116.286 0 .114-.047.207-.045.093-.134.16-.085.066-.207.102t-.274.036zm1.705 0q-.262 0-.45-.105-.185-.107-.285-.3-.1-.195-.1-.46 0-.197.057-.354.057-.16.164-.272.107-.114.262-.174.157-.061.352-.061.131 0 .258.033.126.033.221.095.05.031.067.076.016.043.007.086-.01.04-.04.07-.03.028-.075.032-.042.002-.095-.03-.074-.048-.16-.07-.085-.021-.173-.021-.17 0-.286.07-.117.068-.176.2-.06.13-.06.32 0 .189.06.322t.176.202.286.07q.09 0 .178-.022.089-.024.167-.071.053-.031.093-.026.043.002.071.028.029.026.039.067.01.038-.005.08-.015.041-.058.072-.095.07-.228.107-.131.036-.267.036zm.991-.005q-.074 0-.114-.04-.038-.043-.038-.117v-1.405q0-.076.038-.114.04-.04.114-.04t.112.04q.04.038.04.114v.607h.005l.684-.686q.038-.038.076-.057t.086-.019q.069 0 .097.036.031.036.024.083-.005.048-.045.088l-.695.688.002-.138.726.739q.05.047.052.1.002.052-.033.088-.033.033-.1.033-.057 0-.093-.024-.033-.024-.079-.069l-.702-.702h-.005v.638q0 .074-.038.116-.038.04-.114.04z" aria-label="SPI_SCK" style="font-weight:700;font-size:2.38125px;font-family:Nunito;-inkscape-font-specification:&quot;Nunito Bold&quot;;fill:#bb3f3f;stroke:#bb3f3f;stroke-width:0;stroke-linejoin:round" transform="translate(-75.3 -249.771)"/><path d="M90.14 298.363q-.105 0-.21-.016-.104-.015-.197-.046-.093-.033-.167-.08-.043-.03-.06-.07-.016-.04-.011-.078.007-.04.03-.07.027-.03.065-.038.038-.007.083.022.105.062.222.09.116.029.245.029.188 0 .274-.062.085-.064.085-.164 0-.084-.062-.131-.059-.048-.207-.079l-.262-.055q-.226-.047-.338-.16-.11-.114-.11-.3 0-.116.048-.211t.134-.164q.088-.07.207-.105.121-.038.267-.038.142 0 .271.035t.231.105q.038.026.05.064.014.039.007.077-.007.035-.033.062t-.067.03q-.038.006-.088-.023-.088-.05-.179-.072-.09-.021-.195-.021-.11 0-.188.03-.079.032-.121.089-.04.055-.04.13 0 .087.056.139.057.05.195.079l.26.054q.236.05.35.158.117.107.117.285 0 .115-.048.207-.045.093-.133.16-.086.067-.207.102-.122.036-.274.036zm1.705 0q-.262 0-.45-.105-.186-.107-.286-.3-.1-.195-.1-.46 0-.197.057-.354.057-.16.164-.271.108-.115.262-.174.158-.062.353-.062.13 0 .257.033.126.033.221.095.05.031.067.077.017.043.007.085-.01.04-.04.07-.029.028-.074.033-.043.002-.095-.031-.074-.048-.16-.07-.086-.02-.174-.02-.169 0-.285.068-.117.07-.177.2-.06.131-.06.322 0 .188.06.321.06.134.177.203t.285.069q.09 0 .179-.022.088-.023.167-.071.052-.031.092-.026.043.002.072.028t.038.067q.01.038-.005.081-.014.04-.057.071-.095.07-.229.108-.13.035-.266.035zm.99-.005q-.073 0-.114-.04-.038-.043-.038-.117v-1.405q0-.076.038-.114.04-.04.114-.04t.112.04q.04.038.04.114v.607h.006l.683-.685q.038-.039.076-.058t.086-.019q.069 0 .098.036.03.036.023.083-.004.048-.045.088l-.695.689.002-.139.727.739q.05.047.052.1.002.052-.033.088-.034.033-.1.033-.058 0-.093-.024t-.079-.069l-.702-.702h-.005v.638q0 .074-.038.117-.038.04-.115.04z" aria-label="SCK" style="font-weight:700;font-size:2.38125px;font-family:Nunito;-inkscape-font-specification:&quot;Nunito Bold&quot;;fill:#bb3f3f;stroke:#bb3f3f;stroke-width:0;stroke-linejoin:round" transform="translate(-75.3 -249.771)"/><path d="M91.957 304.363q-.262 0-.45-.105-.186-.107-.286-.3-.1-.195-.1-.46 0-.197.057-.354.057-.16.165-.271.107-.115.261-.174.158-.062.353-.062.13 0 .257.033.126.033.222.095.05.031.066.077.017.043.007.085-.01.04-.04.07-.029.028-.074.033-.043.002-.095-.031-.074-.048-.16-.07-.086-.02-.174-.02-.169 0-.285.068-.117.07-.177.2-.06.131-.06.322 0 .188.06.321.06.134.177.203t.285.069q.09 0 .179-.022.088-.023.167-.071.052-.031.093-.026.042.002.071.028t.038.067q.01.038-.005.081-.014.04-.057.071-.095.07-.228.108-.131.035-.267.035zm1.381 0q-.105 0-.21-.016-.104-.015-.197-.046-.093-.033-.167-.08-.043-.03-.06-.07-.016-.04-.011-.078.007-.04.03-.07.027-.03.065-.038.038-.007.083.022.105.062.222.09.116.029.245.029.188 0 .274-.062.086-.064.086-.164 0-.084-.062-.131-.06-.048-.208-.079l-.261-.055q-.227-.047-.339-.16-.11-.114-.11-.3 0-.116.048-.211t.134-.164q.088-.07.207-.105.121-.038.267-.038.143 0 .271.035t.231.105q.038.026.05.064.014.039.007.077-.007.035-.033.062t-.067.03q-.038.006-.088-.023-.088-.05-.178-.072t-.196-.021q-.11 0-.188.03-.078.032-.121.089-.04.055-.04.13 0 .087.056.139.058.05.196.079l.26.054q.235.05.35.158.116.107.116.285 0 .115-.048.207-.045.093-.133.16-.086.067-.207.102-.122.036-.274.036z" aria-label="CS" style="font-weight:700;font-size:2.38125px;font-family:Nunito;-inkscape-font-specification:&quot;Nunito Bold&quot;;fill:#bb3f3f;stroke:#bb3f3f;stroke-width:0;stroke-linejoin:round" transform="translate(-75.3 -249.771)"/><path d="M92.771 312.363q-.105 0-.21-.016-.104-.015-.197-.046-.093-.033-.167-.08-.042-.03-.06-.07-.016-.04-.011-.078.007-.04.03-.07.027-.03.065-.038.038-.007.084.022.104.062.221.09.117.029.245.029.188 0 .274-.062.086-.064.086-.164 0-.084-.062-.131-.06-.048-.207-.079l-.262-.055q-.226-.047-.338-.16-.11-.114-.11-.3 0-.116.048-.211.047-.095.133-.164.088-.07.207-.105.122-.038.267-.038.143 0 .271.035t.231.105q.039.026.05.064.015.039.008.077-.008.035-.034.062t-.066.03q-.039.006-.089-.023-.088-.05-.178-.072t-.195-.021q-.11 0-.189.03-.078.032-.121.089-.04.055-.04.13 0 .087.057.139.057.05.195.079l.26.054q.235.05.35.158.116.107.116.285 0 .115-.047.207-.046.093-.134.16-.085.067-.207.102-.121.036-.274.036zm1.077-.005q-.074 0-.115-.04-.038-.043-.038-.117v-1.403q0-.076.038-.116.04-.04.115-.04.073 0 .112.04t.04.116v1.403q0 .074-.038.117-.038.04-.114.04z" aria-label="SI" style="font-weight:700;font-size:2.38125px;font-family:Nunito;-inkscape-font-specification:&quot;Nunito Bold&quot;;fill:#bb3f3f;stroke:#bb3f3f;stroke-width:0;stroke-linejoin:round" transform="translate(-75.3 -249.771)"/><path d="M91.516 320.363q-.104 0-.21-.016-.104-.015-.197-.046-.093-.033-.167-.08-.042-.03-.06-.07-.016-.04-.011-.078.007-.04.031-.07.026-.03.064-.038.038-.007.084.022.104.062.221.09.117.029.245.029.188 0 .274-.062.086-.064.086-.164 0-.084-.062-.131-.06-.048-.207-.079l-.262-.055q-.226-.047-.338-.16-.11-.114-.11-.3 0-.116.048-.211.047-.095.133-.164.088-.07.207-.105.122-.038.267-.038.143 0 .272.035.128.036.23.105.039.026.05.064.015.039.008.077-.007.035-.034.062-.026.026-.066.03-.039.006-.089-.023-.088-.05-.178-.072t-.195-.021q-.11 0-.188.03-.08.032-.122.089-.04.055-.04.13 0 .087.057.139.057.05.195.079l.26.054q.235.05.35.158.116.107.116.285 0 .115-.047.207-.046.093-.134.16-.085.067-.207.102-.121.036-.274.036zm1.677 0q-.243 0-.426-.107-.181-.107-.281-.3-.1-.195-.1-.457 0-.198.057-.355.057-.16.162-.271.107-.115.254-.174.15-.062.334-.062.245 0 .426.107.181.105.281.298t.1.454q0 .198-.057.358t-.164.273q-.105.115-.255.177-.148.06-.331.06zm0-.262q.155 0 .262-.071.11-.072.166-.207.06-.136.06-.324 0-.286-.129-.443-.126-.157-.36-.157-.152 0-.261.071t-.17.205q-.056.133-.056.324 0 .283.128.443.129.16.36.16z" aria-label="SO" style="font-weight:700;font-size:2.38125px;font-family:Nunito;-inkscape-font-specification:&quot;Nunito Bold&quot;;fill:#bb3f3f;stroke:#bb3f3f;stroke-width:0;stroke-linejoin:round" transform="translate(-75.3 -249.771)"/><path d="M85.342 282.359q-.067 0-.102-.038-.036-.039-.036-.105v-1.431q0-.07.038-.105.038-.038.105-.038.06 0 .093.024.036.02.064.076l.588 1.088h-.076l.588-1.088q.029-.055.062-.076.033-.024.093-.024.067 0 .102.038.036.036.036.105v1.43q0 .067-.036.106-.033.038-.102.038-.067 0-.102-.038-.036-.039-.036-.105v-1.103h.052l-.5.912q-.024.04-.05.06t-.071.019-.074-.02q-.029-.02-.05-.059l-.505-.914h.057v1.105q0 .066-.035.105-.034.038-.103.038zm2.077 0q-.074 0-.115-.04-.038-.044-.038-.118V280.8q0-.076.038-.117.04-.04.115-.04.073 0 .112.04t.04.117v1.402q0 .074-.038.117-.038.04-.114.04zm1.097.005q-.104 0-.21-.017-.104-.014-.197-.045-.093-.034-.167-.081-.042-.029-.06-.07-.016-.04-.011-.078.007-.04.031-.07.026-.03.064-.037t.084.021q.104.062.221.09.117.03.245.03.188 0 .274-.063.086-.064.086-.164 0-.083-.062-.13-.06-.048-.207-.08l-.262-.054q-.226-.048-.338-.16-.11-.114-.11-.3 0-.117.048-.212.047-.095.133-.164.088-.07.207-.105.122-.038.267-.038.143 0 .272.036.128.035.23.105.039.026.05.064.015.038.008.076-.007.036-.034.062-.026.026-.066.03-.039.006-.089-.023-.088-.05-.178-.071-.09-.022-.195-.022-.11 0-.188.031-.08.031-.122.088-.04.055-.04.131 0 .086.057.139.057.05.195.078l.26.055q.235.05.35.157.116.107.116.286 0 .114-.047.207-.046.093-.134.16-.085.066-.207.102t-.274.036zm1.677 0q-.243 0-.426-.108-.181-.107-.281-.3-.1-.195-.1-.457 0-.197.057-.355.057-.16.162-.271.107-.114.254-.174.15-.062.334-.062.245 0 .426.107.181.105.281.298t.1.455q0 .197-.057.357t-.164.274q-.105.114-.255.176-.148.06-.331.06zm0-.262q.155 0 .262-.072.11-.071.166-.207.06-.136.06-.324 0-.285-.129-.443-.126-.157-.36-.157-.152 0-.261.072-.11.069-.17.204-.056.134-.056.324 0 .284.128.443.129.16.36.16z" aria-label="MISO" style="font-weight:700;font-size:2.38125px;font-family:Nunito;-inkscape-font-specification:&quot;Nunito Bold&quot;;fill:#bb3f3f;stroke:#bb3f3f;stroke-width:0;stroke-linejoin:round" transform="translate(-75.3 -249.771)"/><path d="M156.646 306.345q-.104 0-.21-.016-.104-.015-.197-.046-.093-.033-.167-.08-.042-.03-.059-.07t-.012-.078q.007-.04.031-.07.026-.03.064-.038.038-.007.084.022.104.062.221.09.117.029.245.029.189 0 .274-.062.086-.064.086-.164 0-.084-.062-.131-.06-.048-.207-.079l-.262-.055q-.226-.047-.338-.16-.11-.113-.11-.3 0-.116.048-.211.047-.095.133-.164.088-.07.207-.105.122-.038.267-.038.143 0 .272.035.128.036.23.105.039.026.05.064.015.039.008.077-.007.035-.034.062-.026.026-.066.03-.039.005-.089-.023-.088-.05-.178-.072t-.195-.021q-.11 0-.189.03-.078.032-.121.089-.04.055-.04.13 0 .087.057.139.057.05.195.079l.26.054q.235.05.35.158.116.107.116.285 0 .115-.047.207-.046.093-.134.16-.085.067-.207.102-.121.036-.274.036zm1.077-.005q-.074 0-.115-.04-.038-.043-.038-.117v-1.386q0-.076.04-.114.041-.04.115-.04h.574q.276 0 .426.137.15.139.15.386 0 .248-.15.388-.15.138-.426.138h-.424v.491q0 .074-.038.117-.038.04-.114.04zm.152-.888h.376q.162 0 .246-.071.083-.074.083-.215 0-.14-.083-.212-.084-.071-.246-.071h-.376zm1.4.888q-.074 0-.114-.04-.038-.043-.038-.117v-1.403q0-.076.038-.116.04-.04.114-.04t.112.04q.04.04.04.116v1.403q0 .074-.037.117-.039.04-.115.04zm.46.16q-.04 0-.07-.026-.025-.024-.025-.062t.026-.065.069-.026h.945q.04 0 .067.026.026.027.026.065t-.026.062q-.026.026-.067.026zm1.852-.155q-.104 0-.21-.017-.104-.014-.197-.045-.093-.033-.166-.08-.043-.03-.06-.07t-.012-.079q.007-.04.031-.069.026-.03.064-.038.038-.007.084.022.104.061.221.09t.245.029q.189 0 .274-.062.086-.065.086-.165 0-.083-.062-.13-.06-.048-.207-.08l-.262-.054q-.226-.047-.338-.16-.11-.114-.11-.3 0-.116.048-.211.047-.096.133-.165.088-.069.207-.104.122-.039.267-.039.143 0 .272.036.128.036.23.105.039.026.05.064.015.038.008.076-.007.036-.034.062-.026.026-.066.031-.039.005-.089-.024-.088-.05-.178-.071t-.195-.021q-.11 0-.189.03-.078.032-.121.089-.04.054-.04.13 0 .086.057.139.057.05.195.078l.26.055q.235.05.35.157.116.107.116.286 0 .114-.047.207-.046.093-.134.16-.085.066-.207.102t-.274.036zm1.503 0q-.105 0-.21-.017-.104-.014-.197-.045-.093-.033-.167-.08-.043-.03-.06-.07-.016-.04-.011-.079.007-.04.03-.069.027-.03.065-.038.038-.007.083.022.105.061.222.09.116.029.245.029.188 0 .274-.062.086-.065.086-.165 0-.083-.062-.13-.06-.048-.207-.08l-.262-.054q-.227-.047-.339-.16-.11-.114-.11-.3 0-.116.049-.211.047-.096.133-.165.088-.069.207-.104.122-.039.267-.039.143 0 .271.036t.231.105q.038.026.05.064.015.038.007.076-.007.036-.033.062t-.067.031q-.038.005-.088-.024-.088-.05-.178-.071-.091-.021-.196-.021-.11 0-.188.03-.078.032-.121.089-.04.054-.04.13 0 .086.056.139.058.05.196.078l.26.055q.235.05.35.157.116.107.116.286 0 .114-.048.207-.045.093-.133.16-.086.066-.207.102-.122.036-.274.036z" aria-label="SPI_SS" style="font-weight:700;font-size:2.38125px;font-family:Nunito;-inkscape-font-specification:&quot;Nunito Bold&quot;;fill:#bb3f3f;stroke:#bb3f3f;stroke-width:0;stroke-linejoin:round" transform="translate(-75.3 -249.771)"/><path d="M156.836 262.286q-.262 0-.45-.105-.186-.107-.286-.3-.1-.195-.1-.46 0-.197.057-.354.057-.16.164-.272.108-.114.262-.174.158-.062.353-.062.13 0 .257.034.126.033.221.095.05.03.067.076.017.043.007.086-.01.04-.04.069t-.074.033q-.043.002-.095-.03-.074-.048-.16-.07-.086-.021-.174-.021-.169 0-.285.069-.117.069-.177.2-.06.13-.06.321 0 .189.06.322t.177.202.285.07q.09 0 .179-.022.088-.024.167-.071.052-.031.092-.027.043.002.072.029.028.026.038.067.01.038-.005.08-.014.041-.057.072-.095.07-.229.107-.13.036-.267.036zm.99-.005q-.073 0-.114-.04-.038-.044-.038-.117v-1.386q0-.076.04-.115.041-.04.115-.04h.574q.276 0 .426.133.15.131.15.37 0 .154-.07.266-.066.112-.194.172-.129.059-.312.059l.021-.036h.079q.097 0 .169.048.074.048.128.15l.179.331q.029.05.026.098-.002.047-.036.078-.033.029-.097.029t-.105-.026q-.04-.029-.071-.086l-.24-.443q-.044-.081-.103-.107-.057-.029-.148-.029h-.226v.534q0 .073-.038.116-.038.04-.115.04zm.153-.917h.371q.165 0 .248-.067.086-.069.086-.204t-.086-.2q-.083-.07-.248-.07h-.371zm1.49.898q-.078 0-.121-.04-.04-.044-.04-.122v-1.355q0-.079.04-.12.043-.042.121-.042h.85q.06 0 .091.03.033.032.033.089 0 .06-.033.093-.03.03-.09.03h-.72v.463h.667q.062 0 .093.03.031.032.031.091 0 .06-.03.09-.032.032-.094.032h-.667v.488h.72q.06 0 .09.03.033.032.033.091 0 .06-.033.09-.03.032-.09.032zm1.815.024q-.105 0-.21-.017-.104-.014-.197-.045-.093-.034-.167-.081-.043-.029-.06-.07-.016-.04-.011-.078.007-.04.03-.07.027-.03.065-.037t.083.021q.105.062.222.09.116.03.245.03.188 0 .274-.063.086-.064.086-.164 0-.083-.062-.131-.06-.048-.207-.079l-.262-.054q-.227-.048-.339-.16-.11-.114-.11-.3 0-.117.048-.212t.134-.164q.088-.07.207-.105.121-.038.267-.038.143 0 .271.036t.231.104q.038.027.05.065.014.038.007.076-.007.036-.033.062t-.067.03q-.038.006-.088-.023-.088-.05-.179-.071-.09-.022-.195-.022-.11 0-.188.031-.079.031-.121.088-.04.055-.04.131 0 .086.056.138.058.05.196.079l.26.055q.235.05.35.157.116.107.116.286 0 .114-.048.207-.045.093-.133.16-.086.066-.207.102-.122.035-.274.035zm1.086-.024q-.079 0-.122-.04-.04-.044-.04-.122v-1.355q0-.079.04-.12.043-.042.122-.042h.85q.06 0 .09.03.034.032.034.089 0 .06-.034.093-.03.03-.09.03h-.72v.463h.668q.061 0 .092.03.031.032.031.091 0 .06-.03.09-.032.032-.093.032h-.667v.488h.719q.06 0 .09.03.034.032.034.091 0 .06-.034.09-.03.032-.09.032zm1.805.019q-.074 0-.114-.04-.039-.044-.039-.117v-1.286h-.464q-.062 0-.098-.034-.033-.035-.033-.095 0-.062.033-.093.036-.033.098-.033h1.234q.061 0 .095.033.035.031.035.093 0 .06-.035.095-.034.034-.095.034h-.465v1.286q0 .073-.038.116-.038.04-.114.04zm.707.16q-.04 0-.069-.027-.026-.024-.026-.062t.026-.064q.029-.026.07-.026h.944q.04 0 .067.026.026.026.026.064t-.026.062q-.026.026-.067.026zm1.412-.18q-.078 0-.121-.04-.04-.043-.04-.121v-1.355q0-.079.04-.12.043-.042.121-.042h.572q.176 0 .3.052.124.053.188.15.066.098.066.234 0 .152-.088.257t-.24.14v-.035q.176.026.274.133.097.107.097.279 0 .223-.152.347-.15.122-.42.122zm.131-.23h.429q.162 0 .238-.062.076-.064.076-.19 0-.13-.076-.191-.076-.062-.238-.062h-.429zm0-.736h.388q.157 0 .234-.06.078-.061.078-.18 0-.12-.078-.18-.077-.061-.234-.061h-.388z" aria-label="CRESET_B" style="font-weight:700;font-size:2.38125px;font-family:Nunito;-inkscape-font-specification:&quot;Nunito Bold&quot;;fill:#bb3f3f;stroke:#bb3f3f;stroke-width:0;stroke-linejoin:round" transform="translate(-75.3 -249.771)"/><path d="M156.836 266.363q-.262 0-.45-.105-.186-.107-.286-.3-.1-.195-.1-.46 0-.197.057-.354.057-.16.164-.271.108-.115.262-.174.158-.062.353-.062.13 0 .257.033.126.033.221.095.05.031.067.077.017.042.007.085-.01.04-.04.07-.029.028-.074.033-.043.002-.095-.031-.074-.048-.16-.07-.086-.02-.174-.02-.169 0-.285.068-.117.07-.177.2-.06.131-.06.322 0 .188.06.321.06.134.177.203t.285.069q.09 0 .179-.022.088-.023.167-.071.052-.031.092-.026.043.002.072.028t.038.067q.01.038-.005.081-.014.04-.057.071-.095.07-.229.108-.13.035-.267.035zm1-.024q-.079 0-.122-.04-.04-.043-.04-.122v-1.355q0-.078.04-.119.043-.042.122-.042h.462q.421 0 .65.216.231.217.231.622 0 .202-.06.36-.057.154-.171.261-.112.107-.276.165-.162.054-.374.054zm.143-.252h.3q.147 0 .255-.036.11-.038.18-.11.074-.073.11-.183.036-.112.036-.26 0-.294-.145-.44-.146-.145-.436-.145h-.3zm2.262.276q-.243 0-.426-.107-.181-.107-.281-.3-.1-.195-.1-.457 0-.198.057-.355.057-.16.162-.271.107-.115.255-.174.15-.062.333-.062.245 0 .426.107.181.105.281.298.1.192.1.454 0 .198-.057.358t-.164.273q-.105.115-.255.177-.148.06-.33.06zm0-.262q.155 0 .262-.071.11-.072.167-.207.06-.136.06-.324 0-.286-.13-.443-.126-.157-.359-.157-.152 0-.262.071t-.169.205q-.057.133-.057.324 0 .283.128.443.129.16.36.16zm1.26.257q-.07 0-.107-.038t-.036-.11v-1.416q0-.074.036-.112.038-.04.097-.04.055 0 .081.02.029.02.067.068l.912 1.183h-.062v-1.126q0-.07.036-.107.038-.038.107-.038t.105.038.035.107v1.429q0 .066-.033.104t-.09.038q-.055 0-.089-.021-.03-.021-.069-.07l-.91-1.183h.06v1.127q0 .071-.036.11-.035.037-.104.037zm1.8-.019q-.079 0-.122-.04-.04-.043-.04-.122v-1.354q0-.079.04-.12.043-.042.122-.042h.85q.06 0 .09.03.034.032.034.089 0 .06-.034.093-.03.03-.09.03h-.72v.463h.668q.062 0 .093.03.03.032.03.091 0 .06-.03.09-.031.032-.093.032h-.667v.488h.719q.06 0 .09.03.034.032.034.091 0 .06-.034.09-.03.032-.09.032z" aria-label="CDONE" style="font-weight:700;font-size:2.38125px;font-family:Nunito;-inkscape-font-specification:&quot;Nunito Bold&quot;;fill:#bb3f3f;stroke:#bb3f3f;stroke-width:0;stroke-linejoin:round" transform="translate(-75.3 -249.771)"/><path d="M156.646 314.345q-.104 0-.21-.016-.104-.015-.197-.046-.093-.033-.167-.08-.042-.03-.059-.07t-.012-.078q.007-.04.031-.07.026-.03.064-.038.038-.007.084.022.104.062.221.09.117.029.245.029.189 0 .274-.062.086-.064.086-.164 0-.084-.062-.131-.06-.048-.207-.079l-.262-.055q-.226-.047-.338-.16-.11-.113-.11-.3 0-.116.048-.211.047-.095.133-.164.088-.07.207-.105.122-.038.267-.038.143 0 .272.035.128.036.23.105.039.026.05.064.015.039.008.077-.007.035-.034.062-.026.026-.066.03-.039.005-.089-.023-.088-.05-.178-.072t-.195-.021q-.11 0-.189.03-.078.032-.121.089-.04.055-.04.13 0 .087.057.139.057.05.195.079l.26.054q.235.05.35.158.116.107.116.285 0 .115-.047.207-.046.093-.134.16-.085.067-.207.102-.121.036-.274.036zm1.077-.005q-.074 0-.115-.04-.038-.043-.038-.117v-1.386q0-.076.04-.114.041-.04.115-.04h.574q.276 0 .426.137.15.139.15.386 0 .248-.15.388-.15.138-.426.138h-.424v.491q0 .074-.038.117-.038.04-.114.04zm.152-.888h.376q.162 0 .246-.071.083-.074.083-.215 0-.14-.083-.212-.084-.071-.246-.071h-.376zm1.4.888q-.074 0-.114-.04-.038-.043-.038-.117v-1.403q0-.076.038-.116.04-.04.114-.04t.112.04q.04.04.04.116v1.403q0 .074-.037.117-.039.04-.115.04zm.46.16q-.04 0-.07-.026-.025-.024-.025-.062t.026-.065.069-.026h.945q.04 0 .067.026.026.027.026.065t-.026.062q-.026.026-.067.026zm1.852-.155q-.104 0-.21-.017-.104-.014-.197-.045-.093-.033-.166-.08-.043-.03-.06-.07t-.012-.079q.007-.04.031-.069.026-.03.064-.038.038-.007.084.022.104.061.221.09t.245.029q.189 0 .274-.062.086-.065.086-.165 0-.083-.062-.13-.06-.048-.207-.08l-.262-.054q-.226-.047-.338-.16-.11-.114-.11-.3 0-.116.048-.211.047-.096.133-.165.088-.069.207-.104.122-.039.267-.039.143 0 .272.036.128.036.23.105.039.026.05.064.015.038.008.076-.007.036-.034.062-.026.026-.066.031-.039.005-.089-.024-.088-.05-.178-.071t-.195-.021q-.11 0-.189.03-.078.032-.121.089-.04.054-.04.13 0 .086.057.139.057.05.195.078l.26.055q.235.05.35.157.116.107.116.286 0 .114-.047.207-.046.093-.134.16-.085.066-.207.102t-.274.036zm1.677 0q-.243 0-.426-.107-.181-.107-.281-.3-.1-.195-.1-.457 0-.198.057-.355.057-.16.162-.272.107-.114.255-.174.15-.061.333-.061.245 0 .426.107.181.105.281.297.1.193.1.455 0 .198-.057.357-.057.16-.164.274-.105.115-.255.176-.148.06-.331.06zm0-.262q.155 0 .262-.071.11-.072.166-.208.06-.135.06-.323 0-.286-.129-.443-.126-.157-.36-.157-.152 0-.261.07t-.17.206q-.056.133-.056.324 0 .283.128.442.129.16.36.16z" aria-label="SPI_SO" style="font-weight:700;font-size:2.38125px;font-family:Nunito;-inkscape-font-specification:&quot;Nunito Bold&quot;;fill:#bb3f3f;stroke:#bb3f3f;stroke-width:0;stroke-linejoin:round" transform="translate(-75.3 -249.771)"/><path d="M150.646 305.845q-.104 0-.21-.016-.104-.015-.197-.046-.093-.033-.167-.08-.042-.03-.059-.07t-.012-.078q.007-.04.031-.07.026-.03.064-.038.038-.007.084.022.104.062.221.09.117.029.245.029.189 0 .274-.062.086-.064.086-.164 0-.084-.062-.131-.06-.048-.207-.079l-.262-.055q-.226-.047-.338-.16-.11-.113-.11-.3 0-.116.048-.211.047-.095.133-.164.088-.07.207-.105.122-.038.267-.038.143 0 .272.035.128.036.23.105.039.026.05.064.015.039.008.077-.007.035-.034.062-.026.026-.066.03-.039.005-.089-.023-.088-.05-.178-.072t-.195-.021q-.11 0-.189.03-.078.032-.121.089-.04.055-.04.13 0 .087.057.139.057.05.195.079l.26.054q.235.05.35.158.116.107.116.285 0 .115-.047.207-.046.093-.134.16-.085.067-.207.102-.121.036-.274.036zm1.077-.005q-.074 0-.115-.04-.038-.043-.038-.117v-1.386q0-.076.04-.114.041-.04.115-.04h.574q.276 0 .426.137.15.139.15.386 0 .248-.15.388-.15.138-.426.138h-.424v.491q0 .074-.038.117-.038.04-.114.04zm.152-.888h.376q.162 0 .246-.071.083-.074.083-.215 0-.14-.083-.212-.084-.071-.246-.071h-.376zm1.4.888q-.074 0-.114-.04-.038-.043-.038-.117v-1.403q0-.076.038-.116.04-.04.114-.04t.112.04q.04.04.04.116v1.403q0 .074-.037.117-.039.04-.115.04zm.46.16q-.04 0-.07-.026-.025-.024-.025-.062t.026-.064.069-.027h.945q.04 0 .067.027.026.026.026.064t-.026.062q-.026.026-.067.026zm1.852-.155q-.104 0-.21-.016-.104-.015-.197-.046-.093-.033-.166-.08-.043-.03-.06-.07t-.012-.078q.007-.04.031-.07.026-.03.064-.038.038-.007.084.022.104.062.221.09.117.029.245.029.189 0 .274-.062.086-.064.086-.164 0-.084-.062-.131-.06-.048-.207-.079l-.262-.055q-.226-.047-.338-.16-.11-.113-.11-.3 0-.116.048-.211.047-.095.133-.164.088-.07.207-.105.122-.038.267-.038.143 0 .272.035.128.036.23.105.039.026.05.064.015.039.008.077-.007.035-.034.062-.026.026-.066.03-.039.005-.089-.023-.088-.05-.178-.072t-.195-.021q-.11 0-.189.03-.078.032-.121.089-.04.055-.04.13 0 .087.057.139.057.05.195.079l.26.054q.235.05.35.158.116.107.116.285 0 .115-.047.207-.046.093-.134.16-.085.067-.207.102-.121.036-.274.036zm1.077-.005q-.074 0-.115-.04-.038-.043-.038-.117v-1.403q0-.076.038-.116.041-.04.115-.04t.112.04q.04.04.04.116v1.403q0 .074-.038.117-.038.04-.114.04z" aria-label="SPI_SI" style="font-weight:700;font-size:2.38125px;font-family:Nunito;-inkscape-font-specification:&quot;Nunito Bold&quot;;fill:#bb3f3f;stroke:#bb3f3f;stroke-width:0;stroke-linejoin:round" transform="translate(-69.3 -233.271)"/><path d="M149.602 305.838q-.072 0-.11-.043t-.038-.119v-.874q0-.078.038-.119.038-.043.11-.043.07 0 .109.043.04.04.04.12v.873q0 .076-.038.12-.038.042-.111.042zm0-1.42q-.084 0-.131-.04-.046-.043-.046-.116 0-.077.046-.117.047-.04.13-.04.086 0 .131.04t.046.117q0 .073-.046.116-.045.04-.13.04zm1.269 1.427q-.262 0-.45-.105-.186-.107-.286-.3-.1-.195-.1-.46 0-.197.057-.354.057-.16.164-.271.108-.115.262-.174.157-.062.353-.062.13 0 .257.033.126.033.221.095.05.031.067.077.017.043.007.085-.01.04-.04.07-.029.028-.074.033-.043.002-.096-.031-.073-.048-.16-.07-.085-.02-.173-.02-.169 0-.286.068-.116.07-.176.2-.06.131-.06.322 0 .188.06.321.06.134.176.203.117.069.286.069.09 0 .179-.022.088-.023.166-.071.053-.03.093-.026.043.002.072.028t.038.067q.01.038-.005.081-.015.04-.057.071-.096.07-.229.108-.131.035-.267.035zm1-.024q-.079 0-.122-.04-.04-.043-.04-.122v-1.354q0-.08.04-.12.043-.042.122-.042h.85q.06 0 .09.03.034.032.034.089 0 .06-.034.093-.03.03-.09.03H152v.463h.668q.061 0 .092.03.031.031.031.091t-.03.09-.093.032h-.667v.488h.719q.06 0 .09.03.034.032.034.091 0 .06-.034.09-.03.032-.09.032zm2.06.02q-.072 0-.112-.039-.04-.04-.04-.114v-.186h-.589q-.074 0-.119-.03-.043-.032-.043-.098 0-.038.02-.084.02-.045.073-.119l.652-.945q.034-.05.074-.076t.093-.026q.062 0 .102.038.04.035.04.114v.974h.118q.069 0 .102.033.036.031.036.093t-.036.095q-.033.031-.102.031h-.117v.186q0 .074-.04.114-.041.038-.112.038zm-.153-.591v-.743h.07l-.563.824v-.081zm1.312.595q-.297 0-.455-.224-.157-.226-.157-.643 0-.28.07-.471.07-.193.207-.29.138-.098.335-.098.3 0 .455.219.157.219.157.638 0 .279-.071.474-.07.193-.205.295-.136.1-.336.1zm0-.25q.162 0 .238-.15.079-.15.079-.469 0-.32-.079-.462-.076-.145-.238-.145-.16 0-.238.145-.078.143-.078.462t.078.47.238.15zm1.7.245q-.073 0-.116-.04-.04-.043-.04-.122v-1.374q0-.078.04-.119.043-.042.121-.042h.831q.062 0 .093.03.031.032.031.089 0 .06-.03.093-.032.03-.094.03h-.688v.474h.638q.06 0 .09.031.034.031.034.088 0 .06-.033.093-.031.031-.09.031h-.639v.576q0 .162-.147.162zm1.334 0q-.074 0-.114-.04-.038-.043-.038-.117v-1.386q0-.076.04-.114.04-.04.114-.04h.574q.277 0 .427.138t.15.385-.15.389q-.15.138-.427.138h-.424v.49q0 .074-.038.117-.038.04-.114.04zm.152-.888h.377q.162 0 .245-.071.083-.074.083-.215 0-.14-.083-.211-.083-.072-.245-.072h-.377zm2.044.893q-.28 0-.472-.105-.19-.104-.29-.297t-.1-.457q0-.2.057-.36.06-.16.169-.271.112-.115.271-.174.16-.062.362-.062.133 0 .267.033.136.031.255.107.04.026.052.065.014.038.005.078-.01.038-.036.067-.026.028-.066.036-.039.007-.086-.02-.09-.052-.183-.076-.093-.023-.208-.023-.176 0-.297.071-.122.07-.184.202-.06.134-.06.327 0 .292.141.445.14.152.417.152.095 0 .193-.019t.19-.052l-.06.136v-.508h-.261q-.06 0-.093-.03-.03-.032-.03-.084 0-.055.03-.083.033-.029.093-.029h.393q.06 0 .09.034.034.03.034.09v.579q0 .052-.022.088-.019.035-.064.052-.105.038-.24.064-.136.024-.267.024zm.962-.005q-.058 0-.093-.026t-.04-.07q-.008-.044.016-.1l.628-1.392q.031-.07.074-.098.045-.03.103-.03.054 0 .097.03.045.029.076.098l.632 1.393q.026.055.019.1t-.04.071q-.034.024-.089.024-.067 0-.105-.03-.035-.034-.064-.1l-.155-.36.129.083h-1.005l.128-.084-.152.36q-.031.07-.064.1-.034.031-.095.031zm.683-1.367-.333.793-.062-.076h.795l-.06.076-.335-.793z" aria-label="iCE40 FPGA" style="font-weight:700;font-size:2.38125px;font-family:Nunito;-inkscape-font-specification:&quot;Nunito Bold&quot;;fill:#bb3f3f;stroke:#bb3f3f;stroke-width:0;stroke-linejoin:round" transform="translate(-66.91 -226.876)"/><text xml:space="preserve" x="72.113" y="304.452" style="font-size:2.38125px;font-family:Roboto;-inkscape-font-specification:Roboto;text-align:start;writing-mode:lr-tb;direction:ltr;text-anchor:start;fill:#bb3f3f;fill-opacity:1;stroke:#bb3f3f;stroke-width:0;stroke-linejoin:round;stroke-dasharray:none;stroke-opacity:1" transform="translate(-66.91 -226.876)"/><path d="M150.061 305.845q-.105 0-.21-.016-.104-.015-.197-.046-.093-.033-.167-.08-.043-.03-.06-.07-.016-.04-.011-.078.007-.04.03-.07.027-.03.065-.038.038-.007.083.022.105.062.222.09.117.029.245.029.188 0 .274-.062.086-.064.086-.164 0-.084-.062-.131-.06-.048-.207-.079l-.262-.055q-.227-.047-.338-.16-.11-.113-.11-.3 0-.116.048-.211.047-.095.133-.164.088-.07.207-.105.122-.038.267-.038.143 0 .271.035t.231.105q.038.026.05.064.015.039.007.077-.007.035-.033.062t-.067.03q-.038.005-.088-.023-.088-.05-.178-.072t-.196-.021q-.11 0-.188.03-.078.032-.121.089-.04.055-.04.13 0 .087.056.139.058.05.196.079l.26.054q.235.05.35.158.116.107.116.285 0 .115-.048.207-.045.093-.133.16-.086.067-.207.102-.122.036-.274.036zm1.076-.005q-.073 0-.114-.04-.038-.043-.038-.117v-1.386q0-.076.04-.114.041-.04.115-.04h.574q.276 0 .426.137.15.139.15.386 0 .248-.15.388-.15.138-.426.138h-.424v.491q0 .074-.038.117-.038.04-.115.04zm.153-.888h.376q.162 0 .245-.071.084-.074.084-.215 0-.14-.084-.212-.083-.071-.245-.071h-.376zm1.4.888q-.074 0-.114-.04-.038-.043-.038-.117v-1.403q0-.076.038-.116.04-.04.114-.04t.112.04q.04.04.04.116v1.403q0 .074-.038.117-.038.04-.114.04zm1.322 0q-.074 0-.117-.04-.04-.043-.04-.122v-1.374q0-.078.04-.119.043-.043.121-.043h.831q.062 0 .093.031t.031.088q0 .06-.03.093-.032.031-.094.031h-.688v.474h.638q.06 0 .09.031.034.031.034.088 0 .06-.033.093-.031.031-.09.031h-.639v.576q0 .162-.147.162zm1.645.005q-.198 0-.298-.112-.1-.114-.1-.333v-1.126q0-.074.038-.112.039-.038.11-.038t.11.038q.04.038.04.112v1.112q0 .11.045.162.048.052.134.052h.035l.034-.005q.033-.005.045.019.012.021.012.09 0 .06-.024.093-.024.034-.079.04l-.05.006zm.745 0q-.126 0-.226-.047-.097-.05-.155-.134-.054-.083-.054-.188 0-.128.066-.202.067-.076.217-.11.15-.033.402-.033h.12v.171h-.117q-.148 0-.236.015t-.126.05q-.036.033-.036.095 0 .079.055.129t.152.05q.079 0 .138-.036.062-.038.098-.103.036-.064.036-.147v-.274q0-.12-.053-.171-.052-.053-.176-.053-.069 0-.15.017-.078.017-.167.057-.045.021-.08.012-.034-.01-.053-.038-.02-.031-.02-.067t.02-.07q.019-.035.064-.051.11-.046.21-.065.102-.019.186-.019.171 0 .28.053.113.052.167.16.055.104.055.27v.572q0 .074-.036.114-.035.039-.102.039t-.105-.039q-.035-.04-.035-.114v-.114h.019q-.017.083-.067.145-.048.06-.122.093-.073.033-.169.033zm1.346 0q-.103 0-.217-.021t-.205-.074q-.038-.024-.055-.055-.014-.033-.011-.064.005-.033.023-.057.022-.024.053-.031.033-.007.071.012.095.045.179.064.083.017.164.017.114 0 .17-.038.056-.04.056-.105 0-.055-.038-.083-.035-.031-.11-.046l-.237-.045q-.148-.028-.227-.107-.076-.081-.076-.207 0-.114.062-.198.064-.083.176-.128.112-.046.257-.046.105 0 .196.024.093.022.178.07.036.018.048.05.014.03.007.064-.007.03-.029.057-.021.023-.054.03-.031.006-.072-.014-.074-.038-.143-.054-.066-.017-.128-.017-.117 0-.174.04-.055.04-.055.108 0 .05.033.083.034.033.103.045l.238.045q.155.029.233.105.081.076.081.205 0 .174-.136.274-.135.097-.361.097zm.883-.005q-.071 0-.11-.038-.037-.04-.037-.114v-1.415q0-.073.038-.112.038-.038.11-.038.07 0 .109.038.04.039.04.112v.617h-.033q.052-.126.162-.19.112-.067.252-.067t.231.052.136.16q.045.105.045.267v.576q0 .074-.038.114-.038.038-.11.038-.07 0-.111-.038-.038-.04-.038-.114v-.562q0-.136-.053-.198-.05-.062-.157-.062-.131 0-.21.084-.076.08-.076.216v.522q0 .152-.15.152z" aria-label="SPI Flash" style="font-weight:700;font-size:2.38125px;font-family:Nunito;-inkscape-font-specification:&quot;Nunito Bold&quot;;fill:#bb3f3f;stroke:#bb3f3f;stroke-width:0;stroke-linejoin:round" transform="translate(-144.294 -228.89)"/><text xml:space="preserve" x="72.113" y="304.452" style="font-size:2.38125px;font-family:Roboto;-inkscape-font-specification:Roboto;text-align:start;writing-mode:lr-tb;direction:ltr;text-anchor:start;fill:#bb3f3f;fill-opacity:1;stroke:#bb3f3f;stroke-width:0;stroke-linejoin:round;stroke-dasharray:none;stroke-opacity:1" transform="translate(-144.294 -228.89)"/><path d="M150.263 305.845q-.261 0-.45-.105-.185-.107-.285-.3-.1-.195-.1-.46 0-.197.057-.354.057-.16.164-.271.107-.115.262-.174.157-.062.352-.062.131 0 .258.033.126.033.221.095.05.031.067.077.016.043.007.085-.01.04-.04.07-.03.028-.075.033-.042.002-.095-.031-.074-.048-.16-.07-.085-.02-.173-.02-.17 0-.286.068-.117.07-.176.2-.06.131-.06.322 0 .188.06.321.06.134.176.203.117.069.286.069.09 0 .178-.022.089-.023.167-.071.053-.03.093-.026.043.002.071.028.03.027.039.067.01.038-.005.081-.015.04-.058.071-.095.07-.228.108-.131.035-.267.035zm.996-.005q-.074 0-.117-.04-.04-.043-.04-.122v-1.374q0-.078.04-.119.043-.043.122-.043h.83q.063 0 .094.031.03.031.03.088 0 .06-.03.093-.031.031-.093.031h-.689v.474h.639q.06 0 .09.031.033.031.033.088 0 .06-.033.093-.03.031-.09.031h-.639v.576q0 .162-.147.162zm1.957.005q-.278 0-.471-.105-.19-.104-.29-.297t-.1-.457q0-.2.056-.36.06-.16.17-.271.111-.115.271-.174.16-.062.362-.062.133 0 .267.033.135.031.254.107.04.026.053.065.014.038.005.078-.01.038-.036.067-.026.028-.067.036-.038.007-.085-.02-.09-.052-.184-.076-.093-.023-.207-.023-.176 0-.297.071-.122.07-.184.202-.06.134-.06.327 0 .293.141.445t.417.152q.095 0 .193-.019.097-.019.19-.052l-.06.136v-.508h-.261q-.06 0-.093-.03-.031-.032-.031-.084 0-.055.03-.083.034-.029.094-.029h.393q.06 0 .09.034.034.03.034.09v.579q0 .052-.022.088-.019.035-.064.052-.105.038-.24.064-.136.024-.267.024zm2.17 0q-.105 0-.21-.016-.105-.015-.198-.046-.093-.033-.166-.08-.043-.03-.06-.07t-.012-.078q.007-.04.031-.07.026-.03.065-.038.038-.007.083.022.105.062.221.09.117.029.246.029.188 0 .273-.062.086-.064.086-.164 0-.084-.062-.131-.06-.048-.207-.079l-.262-.055q-.226-.047-.338-.16-.11-.113-.11-.3 0-.116.048-.211t.133-.164q.089-.07.208-.105.121-.038.266-.038.143 0 .272.035.128.036.23.105.039.026.05.064.015.039.008.077-.007.035-.034.062-.026.026-.066.03-.038.005-.088-.023-.088-.05-.179-.072-.09-.021-.195-.021-.11 0-.188.03-.079.032-.122.089-.04.055-.04.13 0 .087.057.139.057.05.195.079l.26.054q.235.05.35.158.116.107.116.285 0 .115-.047.207-.045.093-.134.16-.085.067-.207.102-.121.036-.274.036zm1.085-.024q-.078 0-.121-.04-.04-.043-.04-.122v-1.354q0-.08.04-.12.043-.042.121-.042h.85q.06 0 .091.03.033.032.033.089 0 .06-.033.093-.031.03-.09.03h-.72v.463h.667q.062 0 .093.03.031.031.031.091t-.031.09-.093.032h-.667v.488h.72q.059 0 .09.03.033.032.033.091 0 .06-.033.09-.031.032-.09.032zm1.415 0q-.074 0-.114-.04-.04-.043-.04-.117v-1.374q0-.076.037-.114.04-.04.114-.04t.112.04q.04.038.04.114v1.272h.691q.065 0 .098.033.036.033.036.095t-.036.098q-.033.033-.098.033z" aria-label="CFG SEL" style="font-weight:700;font-size:2.38125px;font-family:Nunito;-inkscape-font-specification:&quot;Nunito Bold&quot;;fill:#bb3f3f;stroke:#bb3f3f;stroke-width:0;stroke-linejoin:round" transform="translate(-104.194 -225.89)"/><text xml:space="preserve" x="72.113" y="304.452" style="font-size:2.38125px;font-family:Roboto;-inkscape-font-specification:Roboto;text-align:start;writing-mode:lr-tb;direction:ltr;text-anchor:start;fill:#bb3f3f;fill-opacity:1;stroke:#bb3f3f;stroke-width:0;stroke-linejoin:round;stroke-dasharray:none;stroke-opacity:1" transform="translate(-104.194 -225.89)"/><path d="M150.263 305.845q-.261 0-.45-.105-.185-.107-.285-.3-.1-.195-.1-.46 0-.197.057-.354.057-.16.164-.271.107-.115.262-.174.157-.062.352-.062.131 0 .258.033.126.033.221.095.05.031.067.077.016.043.007.085-.01.04-.04.07-.03.028-.075.033-.042.002-.095-.031-.074-.048-.16-.07-.085-.02-.173-.02-.17 0-.286.068-.117.07-.176.2-.06.131-.06.322 0 .188.06.321.06.134.176.203.117.069.286.069.09 0 .178-.022.089-.023.167-.071.053-.03.093-.026.043.002.071.028.03.027.039.067.01.038-.005.081-.015.04-.058.071-.095.07-.228.108-.131.035-.267.035zm.996-.005q-.074 0-.117-.04-.04-.043-.04-.122v-1.374q0-.078.04-.119.043-.043.122-.043h.83q.063 0 .094.031.03.031.03.088 0 .06-.03.093-.031.031-.093.031h-.689v.474h.639q.06 0 .09.031.033.031.033.088 0 .06-.033.093-.03.031-.09.031h-.639v.576q0 .162-.147.162zm1.957.005q-.278 0-.471-.105-.19-.104-.29-.297t-.1-.457q0-.2.056-.36.06-.16.17-.271.111-.115.271-.174.16-.062.362-.062.133 0 .267.033.135.031.254.107.04.026.053.065.014.038.005.078-.01.038-.036.067-.026.028-.067.036-.038.007-.085-.02-.09-.052-.184-.076-.093-.023-.207-.023-.176 0-.297.071-.122.07-.184.202-.06.134-.06.327 0 .293.141.445t.417.152q.095 0 .193-.019.097-.019.19-.052l-.06.136v-.508h-.261q-.06 0-.093-.03-.031-.032-.031-.084 0-.055.03-.083.034-.029.094-.029h.393q.06 0 .09.034.034.03.034.09v.579q0 .052-.022.088-.019.035-.064.052-.105.038-.24.064-.136.024-.267.024zm1.743-.005q-.073 0-.114-.04-.038-.043-.038-.117v-1.403q0-.076.038-.116.04-.04.114-.04t.112.04q.04.04.04.116v1.403q0 .074-.037.117-.038.04-.115.04zm.677 0q-.074 0-.117-.04-.04-.043-.04-.122v-1.374q0-.078.04-.119.043-.043.121-.043h.831q.062 0 .093.031t.031.088q0 .06-.03.093-.032.031-.094.031h-.688v.474h.638q.06 0 .09.031.034.031.034.088 0 .06-.033.093-.031.031-.09.031h-.639v.576q0 .162-.147.162z" aria-label="CFG IF" style="font-weight:700;font-size:2.38125px;font-family:Nunito;-inkscape-font-specification:&quot;Nunito Bold&quot;;fill:#bb3f3f;stroke:#bb3f3f;stroke-width:0;stroke-linejoin:round" transform="translate(-139.811 -304.116)"/><text xml:space="preserve" x="72.113" y="304.452" style="font-size:2.38125px;font-family:Roboto;-inkscape-font-specification:Roboto;text-align:start;writing-mode:lr-tb;direction:ltr;text-anchor:start;fill:#bb3f3f;fill-opacity:1;stroke:#bb3f3f;stroke-width:0;stroke-linejoin:round;stroke-dasharray:none;stroke-opacity:1" transform="translate(-139.811 -304.116)"/><path d="M149.642 305.857q-.066.002-.105-.036t-.038-.097q0-.045.029-.079.026-.035.079-.038l.071-.005q.105-.007.157-.064.055-.06.055-.17v-1.07q0-.077.038-.115.04-.04.114-.04t.112.04q.04.038.04.114v1.07q0 .15-.054.254-.052.105-.157.164-.105.058-.26.067zm1.717.002q-.071 0-.112-.038-.04-.04-.04-.114v-.186h-.588q-.074 0-.12-.031-.042-.031-.042-.098 0-.038.019-.083.021-.045.073-.119l.653-.945q.033-.05.074-.077t.093-.026q.062 0 .102.038.04.036.04.115v.974h.117q.07 0 .103.033.035.03.035.093 0 .062-.035.095-.034.031-.103.031h-.116v.186q0 .074-.041.114-.04.038-.112.038zm-.152-.59v-.743h.069l-.562.824v-.081z" aria-label="J4" style="font-weight:700;font-size:2.38125px;font-family:Nunito;-inkscape-font-specification:&quot;Nunito Bold&quot;;fill:#bb3f3f;stroke:#bb3f3f;stroke-width:0;stroke-linejoin:round" transform="translate(-97.833 -252.112)"/><text xml:space="preserve" x="72.113" y="304.452" style="font-size:2.38125px;font-family:Roboto;-inkscape-font-specification:Roboto;text-align:start;writing-mode:lr-tb;direction:ltr;text-anchor:start;fill:#bb3f3f;fill-opacity:1;stroke:#bb3f3f;stroke-width:0;stroke-linejoin:round;stroke-dasharray:none;stroke-opacity:1" transform="translate(-97.833 -252.112)"/><path d="M149.409 305.838q-.067.002-.105-.036t-.038-.097q0-.045.028-.079.027-.036.079-.038l.071-.005q.105-.007.158-.064.054-.06.054-.17v-1.07q0-.077.038-.115.04-.04.115-.04.074 0 .112.04.04.038.04.114v1.07q0 .15-.055.254-.052.105-.157.164-.105.058-.26.067zm1.462.007q-.126 0-.257-.033-.131-.034-.241-.103-.045-.028-.062-.066-.014-.04-.007-.079.01-.04.036-.067.028-.028.067-.033t.088.021q.088.05.178.077t.193.026q.1 0 .172-.036.07-.036.11-.1.037-.064.037-.15 0-.133-.08-.214-.082-.083-.222-.083-.076 0-.148.026-.071.024-.14.085-.022.02-.055.039-.034.016-.072.016-.06 0-.09-.03-.031-.032-.031-.086v-.78q0-.063.033-.097.036-.035.1-.035h.784q.064 0 .097.033.036.03.036.093 0 .06-.036.093-.033.033-.097.033h-.62v.533h-.078q.062-.083.164-.128t.224-.045q.16 0 .276.069.12.066.184.188.066.119.066.278 0 .165-.073.29-.074.125-.212.196-.136.07-.324.07z" aria-label="J5" style="font-weight:700;font-size:2.38125px;font-family:Nunito;-inkscape-font-specification:&quot;Nunito Bold&quot;;fill:#bb3f3f;stroke:#bb3f3f;stroke-width:0;stroke-linejoin:round" transform="translate(-97.6 -244.093)"/><text xml:space="preserve" x="72.113" y="304.452" style="font-size:2.38125px;font-family:Roboto;-inkscape-font-specification:Roboto;text-align:start;writing-mode:lr-tb;direction:ltr;text-anchor:start;fill:#bb3f3f;fill-opacity:1;stroke:#bb3f3f;stroke-width:0;stroke-linejoin:round;stroke-dasharray:none;stroke-opacity:1" transform="translate(-97.6 -244.093)"/><path d="M149.409 305.838q-.067.002-.105-.036t-.038-.097q0-.045.028-.079.027-.036.079-.038l.071-.005q.105-.007.158-.064.054-.06.054-.17v-1.07q0-.077.038-.115.04-.04.115-.04.074 0 .112.04.04.038.04.114v1.07q0 .15-.055.254-.052.105-.157.164-.105.058-.26.067zm1.51.007q-.208 0-.355-.098-.146-.1-.222-.285-.076-.186-.076-.45 0-.215.047-.379.05-.167.143-.28.093-.115.227-.175.135-.06.304-.06.105 0 .212.034.11.031.205.095.038.024.05.062t.002.076q-.007.036-.033.065-.024.026-.062.033-.038.005-.083-.021-.081-.048-.153-.067-.071-.02-.143-.02-.138 0-.233.065t-.145.193q-.048.129-.048.322v.178h-.029q.02-.121.08-.207.061-.088.156-.133.095-.048.212-.048.145 0 .257.07.112.068.177.19.064.121.064.278 0 .162-.072.29-.069.127-.195.2-.124.072-.288.072zm-.017-.243q.085 0 .15-.038.066-.038.102-.107.036-.071.036-.162 0-.093-.036-.162t-.102-.107q-.065-.04-.15-.04-.086 0-.15.04-.065.038-.103.107-.035.07-.035.162 0 .09.035.162.038.069.103.107.064.038.15.038z" aria-label="J6" style="font-weight:700;font-size:2.38125px;font-family:Nunito;-inkscape-font-specification:&quot;Nunito Bold&quot;;fill:#bb3f3f;stroke:#bb3f3f;stroke-width:0;stroke-linejoin:round" transform="translate(-97.6 -236.093)"/><text xml:space="preserve" x="72.113" y="304.452" style="font-size:2.38125px;font-family:Roboto;-inkscape-font-specification:Roboto;text-align:start;writing-mode:lr-tb;direction:ltr;text-anchor:start;fill:#bb3f3f;fill-opacity:1;stroke:#bb3f3f;stroke-width:0;stroke-linejoin:round;stroke-dasharray:none;stroke-opacity:1" transform="translate(-97.6 -236.093)"/><g style="stroke:#bb3f3f;stroke-opacity:1"><path d="M117.5 159v1l-1 .4 2 .7-2 .8 2 .8-2 .8 2 .8-1 .4v1" style="fill:none;stroke:#bb3f3f;stroke-width:.3;stroke-linecap:round;stroke-linejoin:round;stroke-dasharray:none;stroke-opacity:1" transform="translate(-58.3 -119.971)"/></g><path d="M108.5 158.5v1.5" style="fill:none;stroke:#bb3f3f;stroke-width:.3;stroke-linecap:round;stroke-linejoin:round;stroke-dasharray:none;stroke-opacity:1" transform="translate(-49.3 -122.021)"/><path d="m107.5 159.8 1-1.3 1 1.3" style="fill:none;stroke:#bb3f3f;stroke-width:.3;stroke-linecap:round;stroke-linejoin:round;stroke-dasharray:none" transform="translate(-49.3 -122.021)"/><path d="M116 303.5v-8M116 288.8v-2" style="fill:none;stroke:#bb3f3f;stroke-width:.3;stroke-linecap:round;stroke-linejoin:round;stroke-dasharray:none;stroke-opacity:1" transform="translate(-75.3 -249.771)"/><g style="stroke:#bb3f3f;stroke-opacity:1"><path d="M117.5 159v1l-1 .4 2 .7-2 .8 2 .8-2 .8 2 .8-1 .4v1" style="fill:none;stroke:#bb3f3f;stroke-width:.3;stroke-linecap:round;stroke-linejoin:round;stroke-dasharray:none;stroke-opacity:1" transform="translate(-76.8 -119.971)"/></g><path d="M108.5 158.5v1.5" style="fill:none;stroke:#bb3f3f;stroke-width:.3;stroke-linecap:round;stroke-linejoin:round;stroke-dasharray:none;stroke-opacity:1" transform="translate(-67.8 -122.021)"/><path d="m107.5 159.8 1-1.3 1 1.3" style="fill:none;stroke:#bb3f3f;stroke-width:.3;stroke-linecap:round;stroke-linejoin:round;stroke-dasharray:none" transform="translate(-67.8 -122.021)"/><path d="M134.5 261.5v-2M134.5 252.8v-2" style="fill:none;stroke:#bb3f3f;stroke-width:.3;stroke-linecap:round;stroke-linejoin:round;stroke-dasharray:none;stroke-opacity:1" transform="translate(-75.3 -249.771)"/><path d="M117.5 265.5a.5.5 0 0 1-.5.5.5.5 0 0 1-.5-.5.5.5 0 0 1 .5-.5.5.5 0 0 1 .5.5ZM135 261.5a.5.5 0 0 1-.5.5.5.5 0 0 1-.5-.5.5.5 0 0 1 .5-.5.5.5 0 0 1 .5.5z" style="fill:#bb3f3f;stroke:#bb3f3f;stroke-width:0;stroke-linejoin:round" transform="translate(-75.3 -249.771)"/><g style="stroke:#bb3f3f;stroke-opacity:1"><path d="M117.5 159v1l-1 .4 2 .7-2 .8 2 .8-2 .8 2 .8-1 .4v1" style="fill:none;stroke:#bb3f3f;stroke-width:.3;stroke-linecap:round;stroke-linejoin:round;stroke-dasharray:none;stroke-opacity:1" transform="translate(-58.3 -155.971)"/></g><path d="M108.5 158.5v1.5" style="fill:none;stroke:#bb3f3f;stroke-width:.3;stroke-linecap:round;stroke-linejoin:round;stroke-dasharray:none;stroke-opacity:1" transform="translate(-49.3 -158.021)"/><path d="m107.5 159.8 1-1.3 1 1.3" style="fill:none;stroke:#bb3f3f;stroke-width:.3;stroke-linecap:round;stroke-linejoin:round;stroke-dasharray:none" transform="translate(-49.3 -158.021)"/><path d="M117 265.5v-6M117 252.8v-2" style="fill:none;stroke:#bb3f3f;stroke-width:.3;stroke-linecap:round;stroke-linejoin:round;stroke-dasharray:none;stroke-opacity:1" transform="translate(-75.3 -249.771)"/><g style="stroke:#bb3f3f;stroke-opacity:1"><path d="M117.5 159v1l-1 .4 2 .7-2 .8 2 .8-2 .8 2 .8-1 .4v1" style="fill:none;stroke:#bb3f3f;stroke-width:.3;stroke-linecap:round;stroke-linejoin:round;stroke-dasharray:none;stroke-opacity:1" transform="translate(-75.8 -155.971)"/></g><path d="M108.5 158.5v1.5" style="fill:none;stroke:#bb3f3f;stroke-width:.3;stroke-linecap:round;stroke-linejoin:round;stroke-dasharray:none;stroke-opacity:1" transform="translate(-66.8 -158.021)"/><path d="m107.5 159.8 1-1.3 1 1.3" style="fill:none;stroke:#bb3f3f;stroke-width:.3;stroke-linecap:round;stroke-linejoin:round;stroke-dasharray:none" transform="translate(-66.8 -158.021)"/><path d="M108.5 158.5v1.5" style="fill:none;stroke:#bb3f3f;stroke-width:.3;stroke-linecap:round;stroke-linejoin:round;stroke-dasharray:none;stroke-opacity:1" transform="translate(-84.3 -153.271)"/><path d="m107.5 159.8 1-1.3 1 1.3" style="fill:none;stroke:#bb3f3f;stroke-width:.3;stroke-linecap:round;stroke-linejoin:round;stroke-dasharray:none" transform="translate(-84.3 -153.271)"/><path d="M68.5 92.8v1" style="fill:none;stroke:#bb3f3f;stroke-width:.3;stroke-linecap:round;stroke-linejoin:round;stroke-dasharray:none;stroke-opacity:1" transform="rotate(90 74.386 37.614)"/><path d="M95-68.5a.6.6 0 0 1-.6.6.6.6 0 0 1-.6-.6.6.6 0 0 1 .6-.6.6.6 0 0 1 .6.6z" style="fill:none;stroke:#bb3f3f;stroke-width:.3;stroke-linejoin:round" transform="matrix(-1 0 0 -1 112 -36.771)"/><path d="M68.5 92.8v1" style="fill:none;stroke:#bb3f3f;stroke-width:.3;stroke-linecap:round;stroke-linejoin:round;stroke-dasharray:none;stroke-opacity:1" transform="rotate(90 72.386 39.614)"/><path d="M95-68.5a.6.6 0 0 1-.6.6.6.6 0 0 1-.6-.6.6.6 0 0 1 .6-.6.6.6 0 0 1 .6.6z" style="fill:none;stroke:#bb3f3f;stroke-width:.3;stroke-linejoin:round" transform="matrix(-1 0 0 -1 112 -32.771)"/><path d="M85.4 278.359q-.067 0-.103-.038-.036-.039-.036-.105v-1.431q0-.07.038-.105.038-.038.105-.038.06 0 .093.024.036.02.064.076l.588 1.088h-.076l.588-1.088q.029-.055.062-.076.034-.024.093-.024.067 0 .103.038.035.036.035.105v1.43q0 .067-.035.106-.034.038-.103.038-.067 0-.102-.038-.036-.039-.036-.105v-1.103h.052l-.5.912q-.023.04-.05.06-.026.019-.071.019t-.074-.02-.05-.059l-.505-.914h.057v1.105q0 .066-.035.105-.034.038-.103.038zm2.676.005q-.243 0-.426-.108-.181-.107-.281-.3-.1-.195-.1-.457 0-.197.057-.355.057-.16.162-.271.107-.114.254-.174.15-.062.334-.062.245 0 .426.107.181.105.281.298t.1.455q0 .197-.057.357t-.164.274q-.105.114-.255.176-.148.06-.331.06zm0-.262q.155 0 .262-.072.11-.071.166-.207.06-.136.06-.324 0-.285-.129-.443-.126-.157-.36-.157-.152 0-.261.072-.11.069-.17.204-.056.134-.056.324 0 .284.128.443.129.16.36.16zm1.695.262q-.104 0-.21-.017-.104-.014-.197-.045-.093-.034-.167-.081-.042-.029-.06-.07-.016-.04-.011-.078.007-.04.03-.07.027-.03.065-.037t.084.021q.104.062.221.09.117.03.245.03.188 0 .274-.063.086-.064.086-.164 0-.083-.062-.13-.06-.048-.207-.08l-.262-.054q-.226-.048-.338-.16-.11-.114-.11-.3 0-.117.048-.212.047-.095.133-.164.088-.07.207-.105.122-.038.267-.038.143 0 .271.036t.231.105q.039.026.05.064.015.038.008.076-.008.036-.034.062t-.066.03q-.039.006-.089-.023-.088-.05-.178-.071-.09-.022-.195-.022-.11 0-.189.031-.078.031-.121.088-.04.055-.04.131 0 .086.057.139.057.05.195.078l.26.055q.235.05.35.157.116.107.116.286 0 .114-.047.207-.046.093-.134.16-.085.066-.207.102t-.274.036zm1.077-.005q-.074 0-.115-.04-.038-.044-.038-.118V276.8q0-.076.038-.117.04-.04.115-.04.073 0 .112.04t.04.117v1.402q0 .074-.038.117-.038.04-.114.04z" aria-label="MOSI" style="font-weight:700;font-size:2.38125px;font-family:Nunito;-inkscape-font-specification:&quot;Nunito Bold&quot;;fill:#bb3f3f;stroke:#bb3f3f;stroke-width:0;stroke-linejoin:round" transform="translate(-75.3 -249.771)"/><path d="M88.957 274.5q-.262 0-.45-.105-.186-.107-.286-.3-.1-.195-.1-.46 0-.197.057-.354.057-.16.165-.272.107-.114.261-.173.158-.062.353-.062.13 0 .257.033.126.033.222.095.05.031.066.076.017.043.007.086-.01.04-.04.07-.029.028-.074.033-.043.002-.095-.031-.074-.048-.16-.07-.086-.02-.174-.02-.169-.001-.285.068-.117.07-.177.2-.06.131-.06.322 0 .188.06.321t.177.203.285.069q.09 0 .179-.022.088-.024.167-.071.052-.031.093-.026.042.002.071.028t.038.067q.01.038-.005.08-.014.041-.057.072-.095.07-.228.107-.131.036-.267.036zm1.381 0q-.105 0-.21-.017-.104-.014-.197-.045-.093-.033-.167-.08-.043-.03-.06-.07-.016-.04-.011-.079.007-.04.03-.069.027-.03.065-.038.038-.007.083.022.105.062.222.09.116.029.245.029.188 0 .274-.062.086-.064.086-.164 0-.084-.062-.131-.06-.048-.208-.079l-.261-.055q-.227-.047-.339-.16-.11-.114-.11-.3 0-.116.049-.211.047-.096.133-.165.088-.069.207-.104.121-.039.267-.039.143 0 .271.036t.231.105q.038.026.05.064.014.038.007.076-.007.036-.033.062t-.067.031q-.038.005-.088-.023-.088-.05-.178-.072t-.196-.021q-.11 0-.188.03-.078.032-.121.089-.04.055-.04.13 0 .087.056.139.058.05.196.079l.26.054q.235.05.35.157.116.108.116.286 0 .115-.048.207-.045.093-.133.16-.086.067-.207.102-.122.036-.274.036z" aria-label="CS" style="font-weight:700;font-size:2.38125px;font-family:Nunito;-inkscape-font-specification:&quot;Nunito Bold&quot;;fill:#bb3f3f;stroke:#bb3f3f;stroke-width:0;stroke-linejoin:round" transform="translate(-75.3 -249.771)"/><path d="M87.14 270.5q-.105 0-.21-.017-.104-.014-.197-.045-.093-.033-.167-.08-.043-.03-.06-.07-.016-.04-.011-.079.007-.04.03-.069.027-.03.065-.038.038-.007.083.022.105.062.222.09.116.029.245.029.188 0 .274-.062.085-.064.085-.164 0-.084-.062-.131-.059-.048-.207-.079l-.262-.055q-.226-.047-.338-.16-.11-.114-.11-.3 0-.116.048-.211.048-.096.134-.165.088-.069.207-.104.121-.039.267-.039.142 0 .271.036t.231.105q.038.026.05.064.014.038.007.076-.007.036-.033.062t-.067.031q-.038.005-.088-.023-.088-.05-.179-.072-.09-.021-.195-.021-.11 0-.188.03-.079.032-.121.089-.04.055-.04.13 0 .087.056.139.057.05.196.079l.26.054q.235.05.35.157.116.108.116.286 0 .115-.048.207-.045.093-.133.16-.086.067-.207.102-.122.036-.274.036zm1.705 0q-.262 0-.45-.105-.186-.107-.286-.3-.1-.195-.1-.46 0-.197.057-.354.057-.16.164-.272.108-.114.262-.173.158-.062.353-.062.13 0 .257.033.126.033.221.095.05.031.067.076.017.043.007.086-.01.04-.04.07-.029.028-.074.033-.043.002-.095-.031-.074-.048-.16-.07-.086-.02-.174-.02-.169-.001-.285.068-.117.07-.177.2-.06.131-.06.322 0 .188.06.321t.177.203.285.069q.09 0 .179-.022.088-.024.167-.071.052-.031.092-.026.043.002.072.028t.038.067q.01.038-.005.08-.014.041-.057.072-.095.07-.229.107-.13.036-.266.036zm.99-.005q-.073 0-.114-.04-.038-.043-.038-.117v-1.405q0-.076.038-.114.04-.04.114-.04t.112.04q.04.038.04.114v.607h.006l.683-.686q.038-.038.076-.057t.086-.019q.069 0 .098.036.03.036.023.083-.004.048-.045.088l-.695.688.002-.138.727.739q.05.047.052.1.002.052-.033.088-.034.033-.1.033-.058 0-.093-.024t-.079-.069l-.702-.702h-.005v.638q0 .074-.038.116-.038.04-.115.04z" aria-label="SCK" style="font-weight:700;font-size:2.38125px;font-family:Nunito;-inkscape-font-specification:&quot;Nunito Bold&quot;;fill:#bb3f3f;stroke:#bb3f3f;stroke-width:0;stroke-linejoin:round" transform="translate(-75.3 -249.771)"/><path d="M86.933 266.5q-.262 0-.45-.105-.186-.107-.286-.3-.1-.195-.1-.46 0-.197.057-.354.057-.16.164-.272.108-.114.262-.173.158-.062.353-.062.13 0 .257.033.126.033.221.095.05.031.067.076.017.043.007.086-.01.04-.04.07-.029.028-.074.033-.043.002-.095-.031-.074-.048-.16-.07-.086-.02-.174-.02-.169-.001-.285.068-.117.07-.177.2-.06.131-.06.322 0 .188.06.321t.177.203.285.069q.09 0 .179-.022.088-.024.167-.071.052-.031.092-.026.043.002.072.028t.038.067q.01.038-.005.08-.014.041-.057.072-.095.07-.229.107-.13.036-.266.036zm1-.024q-.079 0-.121-.04-.041-.043-.041-.122v-1.355q0-.078.04-.119.043-.043.122-.043h.462q.421 0 .65.217.231.217.231.622 0 .202-.06.36-.057.154-.171.261-.112.107-.276.164-.162.055-.374.055zm.143-.252h.3q.148 0 .255-.036.11-.038.18-.11.074-.073.11-.183.036-.112.036-.26 0-.295-.145-.44-.146-.145-.436-.145h-.3zm1.652.271q-.069 0-.107-.038-.035-.038-.035-.11v-1.416q0-.074.035-.112.038-.04.098-.04.055 0 .08.02.03.02.068.067l.912 1.184h-.062v-1.126q0-.07.035-.108.038-.038.108-.038.069 0 .104.038.036.039.036.108v1.428q0 .067-.033.105-.034.038-.09.038t-.089-.021q-.03-.022-.069-.07l-.91-1.183h.06v1.127q0 .071-.036.11-.036.037-.105.037z" aria-label="CDN" style="font-weight:700;font-size:2.38125px;font-family:Nunito;-inkscape-font-specification:&quot;Nunito Bold&quot;;fill:#bb3f3f;stroke:#bb3f3f;stroke-width:0;stroke-linejoin:round" transform="translate(-75.3 -249.771)"/><path d="M85.761 262.5q-.262 0-.45-.105-.186-.107-.286-.3-.1-.195-.1-.46 0-.197.058-.354.057-.16.164-.272.107-.114.262-.173.157-.062.352-.062.131 0 .257.033.127.033.222.095.05.031.067.076.016.043.007.086-.01.04-.04.07-.03.028-.075.033-.042.002-.095-.031-.074-.048-.16-.07-.085-.02-.173-.02-.17-.001-.286.068-.117.07-.176.2-.06.131-.06.322 0 .188.06.321t.176.203.286.069q.09 0 .178-.022.088-.024.167-.071.052-.031.093-.026.043.002.071.028.029.026.038.067.01.038-.004.08-.015.041-.058.072-.095.07-.228.107-.131.036-.267.036zm.99-.005q-.073 0-.113-.04-.039-.043-.039-.117v-1.386q0-.076.04-.114.041-.04.115-.04h.574q.276 0 .426.133.15.13.15.369 0 .154-.069.266-.066.112-.195.172t-.312.06l.022-.036h.078q.098 0 .17.047.073.048.128.15l.178.331q.029.05.027.098-.003.047-.036.078-.034.029-.098.029t-.105-.026q-.04-.029-.071-.086l-.24-.443q-.043-.08-.103-.107-.057-.029-.148-.029h-.226v.534q0 .074-.038.116-.038.041-.114.041zm.153-.917h.372q.164 0 .247-.066.086-.07.086-.205t-.086-.2q-.083-.07-.247-.07h-.372zm1.903.922q-.105 0-.21-.017-.104-.014-.197-.045-.093-.033-.167-.081-.043-.029-.06-.07-.016-.04-.011-.078.007-.04.03-.069.027-.03.065-.038.038-.007.083.021.105.062.222.09.116.03.245.03.188 0 .274-.062.085-.065.085-.165 0-.083-.061-.13-.06-.048-.208-.08l-.262-.054q-.226-.048-.338-.16-.11-.114-.11-.3 0-.116.048-.212t.134-.164q.088-.069.207-.105.121-.038.267-.038.142 0 .271.036t.231.105q.038.026.05.064.014.038.007.076-.007.036-.033.062t-.067.031q-.038.005-.088-.024-.088-.05-.179-.071-.09-.021-.195-.021-.11 0-.188.03-.079.032-.121.089-.04.054-.04.13 0 .086.056.139.057.05.196.078l.26.055q.235.05.35.157.116.107.116.286 0 .114-.048.207-.045.093-.133.16-.086.066-.207.102-.122.036-.274.036zm1.445-.005q-.074 0-.114-.04-.038-.044-.038-.117v-1.286h-.464q-.062 0-.098-.034-.033-.035-.033-.095 0-.062.033-.093.036-.033.098-.033h1.233q.062 0 .095.033.036.031.036.093 0 .06-.036.095-.033.034-.095.034h-.464v1.286q0 .073-.038.116-.039.04-.115.04z" aria-label="CRST" style="font-weight:700;font-size:2.38125px;font-family:Nunito;-inkscape-font-specification:&quot;Nunito Bold&quot;;fill:#bb3f3f;stroke:#bb3f3f;stroke-width:0;stroke-linejoin:round" transform="translate(-75.3 -249.771)"/><path d="M87.266 258.5q-.128 0-.266-.033-.139-.034-.241-.1-.048-.031-.064-.072-.017-.04-.01-.076.01-.038.036-.064.028-.026.069-.031.043-.005.093.021.097.053.188.076.09.022.186.022.104 0 .176-.029.071-.028.107-.085.038-.058.038-.139 0-.119-.08-.176-.08-.06-.232-.06h-.152q-.067 0-.103-.033-.033-.033-.033-.092 0-.06.033-.093.036-.034.103-.034h.124q.09 0 .154-.028.065-.031.1-.086t.036-.133q0-.11-.074-.167-.071-.057-.21-.057-.087 0-.166.021-.076.02-.169.074-.043.026-.083.021-.038-.005-.065-.03-.026-.027-.035-.063-.01-.038.005-.076.014-.04.059-.069.102-.067.226-.1.124-.036.255-.036.174 0 .298.055.124.053.188.153.067.097.067.238 0 .1-.039.183-.038.081-.107.138t-.166.081v-.028q.171.028.266.143.096.111.096.28 0 .148-.074.258t-.21.169q-.136.057-.324.057zm1.598-.005q-.064 0-.107-.029-.04-.03-.067-.09l-.621-1.395q-.027-.06-.015-.105.012-.046.05-.072t.09-.026q.07 0 .103.031.036.029.06.088l.564 1.308h-.102l.562-1.31q.026-.057.062-.086.035-.03.1-.03.052 0 .085.025.036.027.046.072t-.017.105l-.622 1.395q-.026.06-.066.09-.038.03-.105.03zm1.529.005q-.129 0-.267-.033-.138-.034-.24-.1-.048-.031-.065-.072-.016-.04-.01-.076.01-.038.037-.064.028-.026.069-.031t.092.021q.098.053.189.076.09.022.185.022.105 0 .177-.029.07-.028.107-.085.038-.058.038-.139 0-.119-.081-.176-.079-.06-.231-.06h-.153q-.066 0-.102-.033-.033-.033-.033-.092 0-.06.033-.093.036-.034.102-.034h.124q.09 0 .155-.028.064-.031.1-.086t.036-.133q0-.11-.074-.167-.071-.057-.21-.057-.088 0-.166.021-.076.02-.17.074-.042.026-.083.021-.038-.005-.064-.03-.026-.027-.036-.063-.01-.038.005-.076.014-.04.06-.069.102-.067.226-.1.124-.036.255-.036.173 0 .297.055.124.053.188.153.067.097.067.238 0 .1-.038.183-.038.081-.107.138-.07.057-.167.081v-.028q.172.028.267.143.095.111.095.28 0 .148-.074.258t-.21.169q-.135.057-.323.057z" aria-label="3V3" style="font-weight:700;font-size:2.38125px;font-family:Nunito;-inkscape-font-specification:&quot;Nunito Bold&quot;;fill:#bb3f3f;stroke:#bb3f3f;stroke-width:0;stroke-linejoin:round" transform="translate(-75.3 -249.771)"/><path d="M86.769 286.363q-.28 0-.472-.105-.19-.104-.29-.297t-.1-.457q0-.2.057-.36.06-.16.169-.271.112-.115.271-.174.16-.062.362-.062.133 0 .267.033.136.031.255.107.04.026.052.065.014.038.005.078-.01.038-.036.067-.026.028-.067.036-.038.007-.085-.02-.09-.052-.184-.076-.093-.023-.207-.023-.176 0-.297.07-.122.07-.184.203-.06.134-.06.327 0 .292.141.445.14.152.417.152.095 0 .193-.019.097-.019.19-.052l-.06.136v-.508h-.261q-.06 0-.093-.03-.031-.032-.031-.084 0-.055.03-.083.034-.029.094-.029h.393q.06 0 .09.033.034.031.034.091v.579q0 .052-.022.088-.019.035-.064.052-.105.038-.24.064-.136.024-.267.024zm1.088-.005q-.07 0-.107-.038t-.036-.11v-1.416q0-.074.036-.112.038-.04.097-.04.055 0 .081.02.029.02.067.067l.912 1.184h-.062v-1.126q0-.07.036-.108.038-.038.107-.038t.105.038.035.108v1.428q0 .067-.033.105t-.09.038q-.055 0-.089-.021-.03-.022-.069-.07l-.91-1.183h.06v1.127q0 .07-.035.109t-.105.038zm1.8-.019q-.079 0-.121-.04-.04-.043-.04-.122v-1.355q0-.078.04-.119.042-.043.121-.043h.462q.421 0 .65.217.231.217.231.622 0 .202-.06.36-.057.154-.171.261-.112.107-.276.164-.162.055-.374.055zm.143-.252h.3q.148 0 .255-.036.11-.038.18-.11.074-.073.11-.183.036-.112.036-.26 0-.295-.145-.44-.146-.145-.436-.145h-.3z" aria-label="GND" style="font-weight:700;font-size:2.38125px;font-family:Nunito;-inkscape-font-specification:&quot;Nunito Bold&quot;;fill:#bb3f3f;stroke:#bb3f3f;stroke-width:0;stroke-linejoin:round" transform="translate(-75.3 -249.771)"/><path d="M68.5 92.8v1" style="fill:none;stroke:#bb3f3f;stroke-width:.3;stroke-linecap:round;stroke-linejoin:round;stroke-dasharray:none;stroke-opacity:1" transform="rotate(90 76.386 35.614)"/><path d="M95-68.5a.6.6 0 0 1-.6.6.6.6 0 0 1-.6-.6.6.6 0 0 1 .6-.6.6.6 0 0 1 .6.6z" style="fill:none;stroke:#bb3f3f;stroke-width:.3;stroke-linejoin:round" transform="matrix(-1 0 0 -1 112 -40.771)"/><path d="M68.5 92.8v1" style="fill:none;stroke:#bb3f3f;stroke-width:.3;stroke-linecap:round;stroke-linejoin:round;stroke-dasharray:none;stroke-opacity:1" transform="rotate(90 78.386 33.614)"/><path d="M95-68.5a.6.6 0 0 1-.6.6.6.6 0 0 1-.6-.6.6.6 0 0 1 .6-.6.6.6 0 0 1 .6.6z" style="fill:none;stroke:#bb3f3f;stroke-width:.3;stroke-linejoin:round" transform="matrix(-1 0 0 -1 112 -44.771)"/><path d="M68.5 92.8v1" style="fill:none;stroke:#bb3f3f;stroke-width:.3;stroke-linecap:round;stroke-linejoin:round;stroke-dasharray:none;stroke-opacity:1" transform="rotate(90 80.386 31.614)"/><path d="M95-68.5a.6.6 0 0 1-.6.6.6.6 0 0 1-.6-.6.6.6 0 0 1 .6-.6.6.6 0 0 1 .6.6z" style="fill:none;stroke:#bb3f3f;stroke-width:.3;stroke-linejoin:round" transform="matrix(-1 0 0 -1 112 -48.771)"/><path d="M68.5 92.8v1" style="fill:none;stroke:#bb3f3f;stroke-width:.3;stroke-linecap:round;stroke-linejoin:round;stroke-dasharray:none;stroke-opacity:1" transform="rotate(90 82.386 29.614)"/><path d="M95-68.5a.6.6 0 0 1-.6.6.6.6 0 0 1-.6-.6.6.6 0 0 1 .6-.6.6.6 0 0 1 .6.6z" style="fill:none;stroke:#bb3f3f;stroke-width:.3;stroke-linejoin:round" transform="matrix(-1 0 0 -1 112 -52.771)"/><path d="M68.5 92.8v1" style="fill:none;stroke:#bb3f3f;stroke-width:.3;stroke-linecap:round;stroke-linejoin:round;stroke-dasharray:none;stroke-opacity:1" transform="rotate(90 84.386 27.614)"/><path d="M95-68.5a.6.6 0 0 1-.6.6.6.6 0 0 1-.6-.6.6.6 0 0 1 .6-.6.6.6 0 0 1 .6.6z" style="fill:none;stroke:#bb3f3f;stroke-width:.3;stroke-linejoin:round" transform="matrix(-1 0 0 -1 112 -56.771)"/><path d="M68.5 92.8v1" style="fill:none;stroke:#bb3f3f;stroke-width:.3;stroke-linecap:round;stroke-linejoin:round;stroke-dasharray:none;stroke-opacity:1" transform="rotate(90 86.386 25.614)"/><path d="M95-68.5a.6.6 0 0 1-.6.6.6.6 0 0 1-.6-.6.6.6 0 0 1 .6-.6.6.6 0 0 1 .6.6z" style="fill:none;stroke:#bb3f3f;stroke-width:.3;stroke-linejoin:round" transform="matrix(-1 0 0 -1 112 -60.771)"/><path d="M114.1 162h-3.2M113.7 162.7h-2.4M113 163.4h-1M112.5 161v1" style="fill:none;stroke:#bb3f3f;stroke-width:.3;stroke-linecap:round;stroke-linejoin:round;stroke-dasharray:none;stroke-opacity:1" transform="translate(-88.3 -124.271)"/><path d="M288.755-118.026q-.068 0-.108-.037-.037-.04-.037-.106 0-.07.037-.103.04-.035.108-.035h.297v-1.299h.164l-.39.235q-.05.03-.094.024-.043-.008-.075-.037-.029-.032-.04-.074t.006-.085q.018-.045.069-.074l.365-.22q.053-.031.106-.052.052-.024.097-.024.056 0 .093.032.037.029.037.098v1.476h.27q.069 0 .106.035.04.034.04.103t-.04.106q-.037.037-.106.037zm1.969.026q-.33 0-.505-.249-.175-.251-.175-.714 0-.312.077-.524.079-.214.23-.323.153-.108.373-.108.333 0 .505.243.175.244.175.71 0 .309-.08.526-.076.214-.227.328-.15.111-.373.111Zm0-.278q.18 0 .264-.166.088-.167.088-.522 0-.354-.088-.513-.084-.161-.264-.161-.177 0-.265.161-.087.159-.087.513 0 .355.087.522.088.166.265.166zm1.847.273q-.08 0-.122-.043-.042-.045-.042-.127v-1.571q0-.082.042-.125t.122-.042.121.042q.045.043.045.125v.976h.005l.437-.46q.053-.053.093-.082t.108-.03.103.038q.037.034.037.084t-.047.101l-.46.487v-.138l.505.545q.047.05.042.103-.003.05-.042.085-.04.032-.1.032-.075 0-.12-.03-.042-.028-.095-.086l-.46-.482h-.006v.429q0 .169-.166.169zm1.301-.021q-.068 0-.105-.037t-.037-.104q0-.068.037-.103.037-.037.105-.037h.503v.09q-.312-.156-.452-.376-.138-.22-.138-.5 0-.256.12-.441.118-.186.327-.284.21-.1.48-.1.203 0 .37.058.169.056.293.164.125.106.19.26.07.15.07.343 0 .188-.061.35-.059.158-.188.29-.13.133-.339.236v-.09h.503q.069 0 .103.037.037.035.037.103t-.037.104q-.034.037-.103.037h-.556q-.05 0-.084-.022-.035-.02-.053-.055-.019-.037-.019-.08 0-.037.008-.063.01-.03.032-.056t.053-.053q.122-.1.198-.209.077-.11.114-.233.037-.121.037-.25 0-.186-.069-.316t-.196-.196q-.127-.068-.304-.068-.174 0-.304.068-.127.067-.199.196-.068.13-.068.315 0 .124.037.246t.114.236q.079.113.2.211.054.043.075.08t.02.092q0 .064-.041.111-.043.045-.117.045zM252.755-119.026q-.068 0-.108-.037-.037-.04-.037-.106 0-.07.037-.103.04-.035.108-.035h.297v-1.299h.164l-.39.235q-.05.03-.094.024-.043-.008-.075-.037-.029-.032-.04-.074t.006-.085q.018-.045.069-.074l.365-.22q.053-.031.106-.052.052-.024.097-.024.056 0 .093.032.037.029.037.098v1.476h.27q.069 0 .106.035.04.034.04.103t-.04.106q-.037.037-.106.037zm1.969.026q-.33 0-.506-.249-.174-.251-.174-.714 0-.312.077-.524.079-.214.23-.323.153-.108.373-.108.333 0 .505.243.175.244.175.71 0 .309-.08.526-.076.214-.227.328-.15.111-.373.111Zm0-.278q.18 0 .264-.166.088-.167.088-.522 0-.354-.088-.513-.084-.161-.264-.161-.177 0-.265.161-.087.159-.087.513 0 .355.087.522.088.166.265.166zm1.847.273q-.08 0-.122-.043-.042-.045-.042-.127v-1.571q0-.082.042-.125t.122-.042.121.042q.045.043.045.125v.976h.005l.437-.46q.053-.053.092-.082.04-.03.109-.03t.103.038q.037.034.037.084t-.047.101l-.46.487v-.138l.505.545q.047.05.042.103-.003.05-.042.085-.04.032-.101.032-.074 0-.12-.03-.041-.028-.094-.086l-.46-.482h-.006v.429q0 .169-.166.169zm1.301-.021q-.068 0-.105-.037t-.037-.104q0-.068.037-.103.037-.037.105-.037h.503v.09q-.312-.156-.452-.376-.138-.22-.138-.5 0-.256.12-.441.118-.186.327-.284.21-.1.48-.1.203 0 .37.058.169.056.293.164.125.106.19.26.07.15.07.343 0 .188-.061.35-.059.158-.188.29-.13.133-.339.236v-.09h.503q.069 0 .103.037.037.035.037.103t-.037.104q-.034.037-.103.037h-.556q-.05 0-.085-.022-.034-.02-.052-.055-.019-.037-.019-.08 0-.037.008-.063.01-.03.032-.056t.053-.053q.121-.1.198-.209.077-.11.114-.233.037-.121.037-.25 0-.186-.069-.316t-.196-.196q-.127-.068-.304-.068-.175 0-.304.068-.127.067-.199.196-.068.13-.068.315 0 .124.037.246t.113.236q.08.113.201.211.053.043.075.08.02.037.02.092 0 .064-.042.111-.042.045-.116.045zM252.755-136.526q-.068 0-.108-.037-.037-.04-.037-.106 0-.07.037-.103.04-.035.108-.035h.297v-1.299h.164l-.39.235q-.05.03-.094.024-.043-.008-.075-.037-.029-.031-.04-.074t.006-.085q.018-.045.069-.074l.365-.22q.053-.031.106-.052.052-.024.097-.024.056 0 .093.032.037.029.037.098v1.476h.27q.069 0 .106.034.04.035.04.104t-.04.105q-.037.037-.106.037zm1.969.026q-.33 0-.505-.249-.175-.251-.175-.714 0-.312.077-.524.079-.214.23-.323.153-.108.373-.108.333 0 .505.243.175.244.175.71 0 .309-.08.526-.076.214-.227.328-.15.111-.373.111zm0-.278q.18 0 .264-.166.088-.167.088-.522 0-.354-.088-.513-.084-.161-.264-.161-.177 0-.265.161-.087.159-.087.513 0 .355.087.522.088.166.265.166zm1.847.273q-.08 0-.122-.043-.042-.045-.042-.127v-1.571q0-.082.042-.125t.122-.042.121.042q.045.043.045.125v.976h.005l.437-.46q.053-.053.093-.082t.108-.03.103.038q.037.034.037.084t-.047.1l-.46.488v-.138l.505.545q.047.05.042.103-.003.05-.042.085-.04.032-.1.032-.075 0-.12-.03-.042-.028-.095-.087l-.46-.481h-.006v.428q0 .17-.166.17zm1.301-.021q-.068 0-.105-.037t-.037-.104q0-.068.037-.103.037-.037.105-.037h.503v.09q-.312-.156-.452-.376-.138-.22-.138-.5 0-.256.12-.441.118-.186.327-.284.21-.1.48-.1.203 0 .37.058.169.056.293.164.125.106.19.26.07.15.07.343 0 .188-.061.35-.059.158-.188.29-.13.133-.339.236v-.09h.503q.069 0 .103.037.037.035.037.103 0 .066-.037.104-.034.037-.103.037h-.556q-.05 0-.084-.022-.035-.02-.053-.055-.019-.037-.019-.08 0-.037.008-.063.01-.03.032-.056t.053-.053q.121-.1.198-.209.077-.11.114-.233.037-.121.037-.25 0-.186-.069-.316t-.196-.196q-.127-.068-.304-.068-.175 0-.304.068-.127.067-.199.196-.068.13-.068.315 0 .124.037.246t.113.236q.08.113.201.211.053.043.075.08.02.037.02.092 0 .064-.042.111-.042.045-.116.045zM288.755-136.526q-.068 0-.108-.037-.037-.04-.037-.106 0-.07.037-.103.04-.035.108-.035h.297v-1.299h.164l-.39.235q-.05.03-.094.024-.043-.008-.074-.037-.03-.031-.04-.074t.005-.085q.018-.045.069-.074l.365-.22q.053-.031.106-.052.053-.024.098-.024.055 0 .092.032.037.029.037.098v1.476h.27q.069 0 .106.034.04.035.04.104t-.04.105q-.037.037-.106.037zm1.969.026q-.33 0-.505-.249-.175-.251-.175-.714 0-.312.077-.524.08-.214.23-.323.153-.108.373-.108.333 0 .505.243.175.244.175.71 0 .309-.08.526-.076.214-.227.328-.15.111-.373.111zm0-.278q.18 0 .265-.166.087-.167.087-.522 0-.354-.087-.513-.085-.161-.265-.161-.177 0-.265.161-.087.159-.087.513 0 .355.087.522.088.166.265.166zm1.847.273q-.08 0-.122-.043-.042-.045-.042-.127v-1.571q0-.082.042-.125t.122-.042.121.042q.045.043.045.125v.976h.005l.437-.46q.053-.053.093-.082t.108-.03.103.038q.037.034.037.084t-.047.1l-.46.488v-.138l.505.545q.047.05.042.103-.003.05-.042.085-.04.032-.1.032-.075 0-.12-.03-.042-.028-.095-.087l-.46-.481h-.006v.428q0 .17-.166.17zm1.301-.021q-.068 0-.105-.037t-.037-.104q0-.068.037-.103.037-.037.105-.037h.503v.09q-.312-.156-.452-.376-.138-.22-.138-.5 0-.256.12-.441.118-.186.327-.284.21-.1.48-.1.203 0 .37.058.169.056.293.164.125.106.19.26.07.15.07.343 0 .188-.061.35-.058.158-.188.29-.13.133-.339.236v-.09h.503q.069 0 .103.037.037.035.037.103 0 .066-.037.104-.034.037-.103.037h-.556q-.05 0-.084-.022-.035-.02-.053-.055-.019-.037-.019-.08 0-.037.008-.063.01-.03.032-.056t.053-.053q.121-.1.198-.209.077-.11.114-.233.037-.121.037-.25 0-.186-.069-.316t-.196-.196q-.127-.068-.304-.068-.175 0-.304.068-.127.067-.199.196-.068.13-.068.315 0 .124.037.246t.113.236q.08.113.201.211.053.043.075.08.02.037.02.092 0 .064-.042.111-.042.045-.116.045z" aria-label="10 kΩ" style="font-weight:700;font-size:2.64583px;font-family:Nunito;-inkscape-font-specification:&quot;Nunito Bold&quot;;fill:#bb3f3f;stroke:#bb3f3f;stroke-width:0;stroke-linejoin:round" transform="rotate(90 87.236 -162.536)"/></svg>